<?xml version="1.0" encoding="UTF-8" standalone="no"?>
<!-- Created with Inkscape (http://www.inkscape.org/) -->

<svg
   xmlns:dc="http://purl.org/dc/elements/1.1/"
   xmlns:cc="http://creativecommons.org/ns#"
   xmlns:rdf="http://www.w3.org/1999/02/22-rdf-syntax-ns#"
   xmlns:svg="http://www.w3.org/2000/svg"
   xmlns="http://www.w3.org/2000/svg"
   xmlns:sodipodi="http://sodipodi.sourceforge.net/DTD/sodipodi-0.dtd"
   xmlns:inkscape="http://www.inkscape.org/namespaces/inkscape"
   width="24"
   height="24"
   viewBox="0 0 6.3499999 6.3500002"
   version="1.1"
   id="svg8"
   sodipodi:docname="ail_fill.svg"
   inkscape:version="0.92.4 (5da689c313, 2019-01-14)">
  <defs
     id="defs2">
    <inkscape:path-effect
       effect="bspline"
       id="path-effect4522"
       is_visible="true"
       weight="33.333333"
       steps="2"
       helper_size="0"
       apply_no_weight="true"
       apply_with_weight="true"
       only_selected="false" />
  </defs>
  <sodipodi:namedview
     id="base"
     pagecolor="#ffffff"
     bordercolor="#666666"
     borderopacity="1.0"
     inkscape:pageopacity="0.0"
     inkscape:pageshadow="2"
     inkscape:zoom="32"
     inkscape:cx="5.070667"
     inkscape:cy="12.772691"
     inkscape:document-units="mm"
     inkscape:current-layer="layer1"
     showgrid="true"
     units="px"
     objecttolerance="20"
     inkscape:window-width="1920"
     inkscape:window-height="1017"
     inkscape:window-x="3512"
     inkscape:window-y="126"
     inkscape:window-maximized="1">
    <inkscape:grid
       type="xygrid"
       id="grid815"
       originx="3.175"
       originy="3.175"
       spacingx="0.13229167"
       spacingy="0.13229167"
       color="#6900ff"
       opacity="0.1254902"
       empspacing="2"
       dotted="false" />
  </sodipodi:namedview>
  <metadata
     id="metadata5">
    <rdf:RDF>
      <cc:Work
         rdf:about="">
        <dc:format>image/svg+xml</dc:format>
        <dc:type
           rdf:resource="http://purl.org/dc/dcmitype/StillImage" />
        <dc:title></dc:title>
      </cc:Work>
    </rdf:RDF>
  </metadata>
  <g
     inkscape:label="Calque 1"
     inkscape:groupmode="layer"
     id="layer1"
     transform="translate(0,-290.64997)">
    <path
       style="color:#000000;font-style:normal;font-variant:normal;font-weight:normal;font-stretch:normal;font-size:medium;line-height:normal;font-family:sans-serif;font-variant-ligatures:normal;font-variant-position:normal;font-variant-caps:normal;font-variant-numeric:normal;font-variant-alternates:normal;font-feature-settings:normal;text-indent:0;text-align:start;text-decoration:none;text-decoration-line:none;text-decoration-style:solid;text-decoration-color:#000000;letter-spacing:normal;word-spacing:normal;text-transform:none;writing-mode:lr-tb;direction:ltr;text-orientation:mixed;dominant-baseline:auto;baseline-shift:baseline;text-anchor:start;white-space:normal;shape-padding:0;clip-rule:nonzero;display:inline;overflow:visible;visibility:visible;opacity:1;isolation:auto;mix-blend-mode:normal;color-interpolation:sRGB;color-interpolation-filters:linearRGB;solid-color:#000000;solid-opacity:1;vector-effect:none;fill:#000000;fill-opacity:1;fill-rule:evenodd;stroke:none;stroke-width:0.26458332px;stroke-linecap:butt;stroke-linejoin:miter;stroke-miterlimit:4;stroke-dasharray:none;stroke-dashoffset:0;stroke-opacity:1;color-rendering:auto;image-rendering:auto;shape-rendering:auto;text-rendering:auto;enable-background:accumulate"
       d="m 3.0429688,291.17969 c 0,0 -0.00124,0.29432 -0.017578,0.62109 -0.00817,0.16339 -0.019179,0.33508 -0.037109,0.47852 -0.01793,0.14344 -0.049129,0.26427 -0.064453,0.29492 -0.076363,0.15272 -0.2641073,0.35856 -0.5,0.57812 -0.2358927,0.21956 -0.5174404,0.4586 -0.78125,0.70508 -0.2638095,0.24648 -0.5111165,0.49979 -0.67773435,0.76367 -0.1666178,0.26388 -0.25604695,0.55149 -0.1640625,0.83203 0.0841637,0.2567 0.23624135,0.44397 0.42382815,0.56446 0.1875868,0.12049 0.4051115,0.17677 0.6308594,0.20312 0.4514956,0.0527 0.9444474,-0.0137 1.3203124,-0.0137 0.3758651,0 0.8668638,0.0664 1.3183594,0.0137 0.2257478,-0.0264 0.4452257,-0.0826 0.6328125,-0.20312 0.1875868,-0.12049 0.3377113,-0.30776 0.421875,-0.56446 0.091985,-0.28054 0.00256,-0.56815 -0.1640625,-0.83203 -0.1666178,-0.26388 -0.4119716,-0.51719 -0.6757812,-0.76367 -0.2638096,-0.24648 -0.5473105,-0.48552 -0.7832032,-0.70508 -0.2358926,-0.21956 -0.4236368,-0.4254 -0.5,-0.57812 -0.015324,-0.0307 -0.046523,-0.15148 -0.064453,-0.29492 -0.01793,-0.14344 -0.02894,-0.31513 -0.037109,-0.47852 -0.016339,-0.32677 -0.017578,-0.62109 -0.017578,-0.62109 z m 0.1328124,1.45117 c 0.00676,0.0179 0.00536,0.0459 0.013672,0.0625 0.108257,0.21651 0.3136848,0.42816 0.5566407,0.6543 0.2429558,0.22613 0.5241621,0.46292 0.78125,0.70312 0.2570878,0.2402 0.4906165,0.4846 0.6347656,0.71289 0.144149,0.2283 0.1962775,0.42578 0.1367187,0.60742 -0.067379,0.2055 -0.1759935,0.33364 -0.3164062,0.42383 -0.1404128,0.0902 -0.3186009,0.1406 -0.5195313,0.16406 -0.4018607,0.0469 -0.8815695,-0.0176 -1.2871094,-0.0176 -0.4055398,0 -0.8872017,0.0645 -1.2890624,0.0176 -0.2009304,-0.0235 -0.3791186,-0.0739 -0.5195313,-0.16406 -0.1404127,-0.0902 -0.2490268,-0.21833 -0.3164063,-0.42383 -0.0595587,-0.18164 -0.00548,-0.37912 0.1386719,-0.60742 0.144149,-0.22829 0.3757247,-0.47269 0.6328125,-0.71289 0.2570879,-0.2402 0.5382942,-0.47699 0.78125,-0.70312 0.2429559,-0.22614 0.4483836,-0.43779 0.5566406,-0.6543 0.00837,-0.0167 0.00883,-0.0444 0.015625,-0.0625 z"
       id="path5842"
       inkscape:connector-curvature="0" />
    <path
       style="color:#000000;font-style:normal;font-variant:normal;font-weight:normal;font-stretch:normal;font-size:medium;line-height:normal;font-family:sans-serif;font-variant-ligatures:normal;font-variant-position:normal;font-variant-caps:normal;font-variant-numeric:normal;font-variant-alternates:normal;font-feature-settings:normal;text-indent:0;text-align:start;text-decoration:none;text-decoration-line:none;text-decoration-style:solid;text-decoration-color:#000000;letter-spacing:normal;word-spacing:normal;text-transform:none;writing-mode:lr-tb;direction:ltr;text-orientation:mixed;dominant-baseline:auto;baseline-shift:baseline;text-anchor:start;white-space:normal;shape-padding:0;clip-rule:nonzero;display:inline;overflow:visible;visibility:visible;opacity:1;isolation:auto;mix-blend-mode:normal;color-interpolation:sRGB;color-interpolation-filters:linearRGB;solid-color:#000000;solid-opacity:1;vector-effect:none;fill:#000000;fill-opacity:1;fill-rule:evenodd;stroke:none;stroke-width:0.26458332px;stroke-linecap:round;stroke-linejoin:miter;stroke-miterlimit:4;stroke-dasharray:none;stroke-dashoffset:0;stroke-opacity:1;color-rendering:auto;image-rendering:auto;shape-rendering:auto;text-rendering:auto;enable-background:accumulate"
       d="m 3.0410156,295.93945 a 0.13230489,0.13230489 0 0 0 -0.091797,0.041 l -0.2636719,0.26367 a 0.13230489,0.13230489 0 1 0 0.1855469,0.1875 l 0.265625,-0.26367 a 0.13230489,0.13230489 0 0 0 -0.095703,-0.22852 z"
       id="path5844"
       inkscape:connector-curvature="0" />
    <path
       style="color:#000000;font-style:normal;font-variant:normal;font-weight:normal;font-stretch:normal;font-size:medium;line-height:normal;font-family:sans-serif;font-variant-ligatures:normal;font-variant-position:normal;font-variant-caps:normal;font-variant-numeric:normal;font-variant-alternates:normal;font-feature-settings:normal;text-indent:0;text-align:start;text-decoration:none;text-decoration-line:none;text-decoration-style:solid;text-decoration-color:#000000;letter-spacing:normal;word-spacing:normal;text-transform:none;writing-mode:lr-tb;direction:ltr;text-orientation:mixed;dominant-baseline:auto;baseline-shift:baseline;text-anchor:start;white-space:normal;shape-padding:0;clip-rule:nonzero;display:inline;overflow:visible;visibility:visible;opacity:1;isolation:auto;mix-blend-mode:normal;color-interpolation:sRGB;color-interpolation-filters:linearRGB;solid-color:#000000;solid-opacity:1;vector-effect:none;fill:#000000;fill-opacity:1;fill-rule:evenodd;stroke:none;stroke-width:0.26499999;stroke-linecap:round;stroke-linejoin:miter;stroke-miterlimit:4;stroke-dasharray:none;stroke-dashoffset:0;stroke-opacity:1;color-rendering:auto;image-rendering:auto;shape-rendering:auto;text-rendering:auto;enable-background:accumulate"
       d="m 3.3066406,295.93945 a 0.13251324,0.13251324 0 0 0 -0.09375,0.22852 l 0.265625,0.26367 a 0.13258252,0.13258252 0 1 0 0.1875,-0.1875 l -0.265625,-0.26367 a 0.13251324,0.13251324 0 0 0 -0.09375,-0.041 z"
       id="path5846"
       inkscape:connector-curvature="0" />
    <path
       style="color:#000000;font-style:normal;font-variant:normal;font-weight:normal;font-stretch:normal;font-size:medium;line-height:normal;font-family:sans-serif;font-variant-ligatures:normal;font-variant-position:normal;font-variant-caps:normal;font-variant-numeric:normal;font-variant-alternates:normal;font-feature-settings:normal;text-indent:0;text-align:start;text-decoration:none;text-decoration-line:none;text-decoration-style:solid;text-decoration-color:#000000;letter-spacing:normal;word-spacing:normal;text-transform:none;writing-mode:lr-tb;direction:ltr;text-orientation:mixed;dominant-baseline:auto;baseline-shift:baseline;text-anchor:start;white-space:normal;shape-padding:0;clip-rule:nonzero;display:inline;overflow:visible;visibility:visible;opacity:1;isolation:auto;mix-blend-mode:normal;color-interpolation:sRGB;color-interpolation-filters:linearRGB;solid-color:#000000;solid-opacity:1;vector-effect:none;fill:#000000;fill-opacity:1;fill-rule:evenodd;stroke:none;stroke-width:0.26458332px;stroke-linecap:round;stroke-linejoin:miter;stroke-miterlimit:4;stroke-dasharray:none;stroke-dashoffset:0;stroke-opacity:1;color-rendering:auto;image-rendering:auto;shape-rendering:auto;text-rendering:auto;enable-background:accumulate"
       d="m 2.5,293.82422 a 0.13230489,0.13230489 0 0 0 -0.095703,0.0586 c 0,0 -0.2010585,0.29506 -0.3867188,0.64649 -0.09283,0.17571 -0.1824732,0.36477 -0.2421875,0.54492 -0.059714,0.18015 -0.098737,0.35137 -0.050781,0.50976 0.081955,0.27069 0.3199225,0.41938 0.5195312,0.50586 0.1996088,0.0865 0.3808594,0.11524 0.3808594,0.11524 a 0.1324572,0.1324572 0 1 0 0.041016,-0.26172 c 0,0 -0.1514237,-0.0242 -0.3164062,-0.0957 -0.1649825,-0.0715 -0.3239134,-0.18597 -0.3710938,-0.3418 -0.016611,-0.0549 -0.00337,-0.19017 0.048828,-0.34766 0.052203,-0.15749 0.135933,-0.33801 0.2246093,-0.50586 0.1773527,-0.3357 0.3710938,-0.62109 0.3710938,-0.62109 A 0.13230489,0.13230489 0 0 0 2.5,293.82422 Z"
       id="path5848"
       inkscape:connector-curvature="0" />
    <path
       style="color:#000000;font-style:normal;font-variant:normal;font-weight:normal;font-stretch:normal;font-size:medium;line-height:normal;font-family:sans-serif;font-variant-ligatures:normal;font-variant-position:normal;font-variant-caps:normal;font-variant-numeric:normal;font-variant-alternates:normal;font-feature-settings:normal;text-indent:0;text-align:start;text-decoration:none;text-decoration-line:none;text-decoration-style:solid;text-decoration-color:#000000;letter-spacing:normal;word-spacing:normal;text-transform:none;writing-mode:lr-tb;direction:ltr;text-orientation:mixed;dominant-baseline:auto;baseline-shift:baseline;text-anchor:start;white-space:normal;shape-padding:0;clip-rule:nonzero;display:inline;overflow:visible;visibility:visible;opacity:1;isolation:auto;mix-blend-mode:normal;color-interpolation:sRGB;color-interpolation-filters:linearRGB;solid-color:#000000;solid-opacity:1;vector-effect:none;fill:#000000;fill-opacity:1;fill-rule:evenodd;stroke:none;stroke-width:0.26458332px;stroke-linecap:round;stroke-linejoin:miter;stroke-miterlimit:4;stroke-dasharray:none;stroke-dashoffset:0;stroke-opacity:1;color-rendering:auto;image-rendering:auto;shape-rendering:auto;text-rendering:auto;enable-background:accumulate"
       d="m 3.8203125,293.82422 a 0.13230489,0.13230489 0 0 0 -0.09375,0.20703 c 0,0 0.1956942,0.28539 0.3730469,0.62109 0.088676,0.16785 0.1724066,0.34837 0.2246094,0.50586 0.052203,0.15749 0.063486,0.2928 0.046875,0.34766 -0.04718,0.15583 -0.2061113,0.27032 -0.3710938,0.3418 -0.1649825,0.0715 -0.3164062,0.0957 -0.3164062,0.0957 a 0.1324572,0.1324572 0 1 0 0.041016,0.26172 c 0,0 0.1812506,-0.0288 0.3808594,-0.11524 0.1996087,-0.0865 0.4375766,-0.23517 0.5195312,-0.50586 0.047956,-0.15839 0.00893,-0.32961 -0.050781,-0.50976 -0.059714,-0.18015 -0.1493574,-0.36921 -0.2421876,-0.54492 -0.1856602,-0.35143 -0.3867187,-0.64649 -0.3867187,-0.64649 a 0.13230489,0.13230489 0 0 0 -0.125,-0.0586 z"
       id="path5848-9"
       inkscape:connector-curvature="0" />
  </g>
</svg>
