<?xml version="1.0" encoding="UTF-8" standalone="no"?>
<!-- Created with Inkscape (http://www.inkscape.org/) -->

<svg
   xmlns:dc="http://purl.org/dc/elements/1.1/"
   xmlns:cc="http://creativecommons.org/ns#"
   xmlns:rdf="http://www.w3.org/1999/02/22-rdf-syntax-ns#"
   xmlns:svg="http://www.w3.org/2000/svg"
   xmlns="http://www.w3.org/2000/svg"
   xmlns:sodipodi="http://sodipodi.sourceforge.net/DTD/sodipodi-0.dtd"
   xmlns:inkscape="http://www.inkscape.org/namespaces/inkscape"
   width="24"
   height="24"
   viewBox="0 0 6.3499999 6.3500002"
   version="1.1"
   id="svg8"
   sodipodi:docname="aromatiques.svg"
   inkscape:version="0.92.4 (5da689c313, 2019-01-14)">
  <defs
     id="defs2">
    <inkscape:path-effect
       effect="bspline"
       id="path-effect4522"
       is_visible="true"
       weight="33.333333"
       steps="2"
       helper_size="0"
       apply_no_weight="true"
       apply_with_weight="true"
       only_selected="false" />
  </defs>
  <sodipodi:namedview
     id="base"
     pagecolor="#ffffff"
     bordercolor="#666666"
     borderopacity="1.0"
     inkscape:pageopacity="0.0"
     inkscape:pageshadow="2"
     inkscape:zoom="32"
     inkscape:cx="6.634857"
     inkscape:cy="13.043265"
     inkscape:document-units="mm"
     inkscape:current-layer="layer1"
     showgrid="true"
     units="px"
     objecttolerance="20"
     inkscape:window-width="1920"
     inkscape:window-height="1017"
     inkscape:window-x="1592"
     inkscape:window-y="126"
     inkscape:window-maximized="1">
    <inkscape:grid
       type="xygrid"
       id="grid815"
       originx="3.175"
       originy="3.175"
       spacingx="0.13229167"
       spacingy="0.13229167"
       color="#6900ff"
       opacity="0.1254902"
       empspacing="2"
       dotted="false" />
  </sodipodi:namedview>
  <metadata
     id="metadata5">
    <rdf:RDF>
      <cc:Work
         rdf:about="">
        <dc:format>image/svg+xml</dc:format>
        <dc:type
           rdf:resource="http://purl.org/dc/dcmitype/StillImage" />
        <dc:title></dc:title>
      </cc:Work>
    </rdf:RDF>
  </metadata>
  <g
     inkscape:label="Calque 1"
     inkscape:groupmode="layer"
     id="layer1"
     transform="translate(0,-290.64997)">
    <path
       style="color:#000000;font-style:normal;font-variant:normal;font-weight:normal;font-stretch:normal;font-size:medium;line-height:normal;font-family:sans-serif;font-variant-ligatures:normal;font-variant-position:normal;font-variant-caps:normal;font-variant-numeric:normal;font-variant-alternates:normal;font-feature-settings:normal;text-indent:0;text-align:start;text-decoration:none;text-decoration-line:none;text-decoration-style:solid;text-decoration-color:#000000;letter-spacing:normal;word-spacing:normal;text-transform:none;writing-mode:lr-tb;direction:ltr;text-orientation:mixed;dominant-baseline:auto;baseline-shift:baseline;text-anchor:start;white-space:normal;shape-padding:0;clip-rule:nonzero;display:inline;overflow:visible;visibility:visible;opacity:1;isolation:auto;mix-blend-mode:normal;color-interpolation:sRGB;color-interpolation-filters:linearRGB;solid-color:#000000;solid-opacity:1;vector-effect:none;fill:#000000;fill-opacity:1;fill-rule:nonzero;stroke:none;stroke-width:0.99999994px;stroke-linecap:round;stroke-linejoin:round;stroke-miterlimit:4;stroke-dasharray:none;stroke-dashoffset:0;stroke-opacity:1;color-rendering:auto;image-rendering:auto;shape-rendering:auto;text-rendering:auto;enable-background:accumulate"
       d="M 10.714844 2.0058594 C 9.3155395 1.9769268 7.6093246 2.1166723 5.5019531 2.4960938 A 0.50004998 0.50004998 0 0 0 5.484375 2.4960938 A 0.50004998 0.50004998 0 0 0 5.2890625 2.5332031 L 4.8046875 2.6152344 L 4.9804688 3.046875 A 0.50004998 0.50004998 0 0 0 5.09375 3.3164062 C 6.0779142 5.7568096 7.0092048 7.5105381 10.246094 9.4277344 C 11.988206 10.459583 13.971238 10.598766 15.443359 10.269531 C 16.17942 10.104744 16.79604 9.8286878 17.214844 9.40625 C 17.424245 9.1949744 17.587449 8.9377948 17.634766 8.6308594 C 17.642619 8.5799227 17.626267 8.5291977 17.621094 8.4785156 C 18.63701 8.6482795 19.638975 8.681597 20.595703 8.4902344 A 0.50017731 0.50017731 0 1 0 20.404297 7.5097656 C 19.583534 7.6739236 18.676741 7.6363173 17.728516 7.46875 C 17.87368 7.1065537 17.953541 6.7374409 17.900391 6.3789062 C 17.806296 5.7441724 17.502287 5.1658682 17.103516 4.6523438 C 16.305973 3.6252949 15.13828 2.8418883 14.150391 2.5253906 C 13.244267 2.2350851 12.135382 2.035231 10.714844 2.0058594 z M 10.917969 3.1308594 C 12.147043 3.1305995 13.131416 3.2492117 13.847656 3.4785156 C 14.573827 3.7113345 15.665511 4.4299337 16.314453 5.265625 C 16.638926 5.6834518 16.852151 6.1228965 16.912109 6.5273438 C 16.950289 6.7849071 16.926987 7.0274609 16.833984 7.2734375 C 15.404395 6.9105834 13.908795 6.298615 12.46875 5.6113281 C 10.795475 4.8127046 9.2554179 3.964041 7.8964844 3.3359375 C 9.0066358 3.2139589 10.04452 3.131044 10.917969 3.1308594 z M 6.71875 3.9238281 C 8.0992848 4.5030085 10.00483 5.5436249 12.033203 6.5117188 C 13.497907 7.2107865 15.041762 7.8668936 16.574219 8.2578125 L 16.587891 8.2773438 C 16.657256 8.3812808 16.654164 8.4270507 16.646484 8.4765625 C 16.638812 8.5264523 16.60703 8.6030309 16.505859 8.7050781 C 16.303519 8.9091726 15.831559 9.1504795 15.220703 9.2871094 C 13.99899 9.5603692 12.238409 9.4504389 10.755859 8.5722656 C 8.1904572 7.0527761 7.4742816 5.6848821 6.71875 3.9238281 z M 7.5078125 8.4902344 A 0.50004998 0.50004998 0 0 0 7.0273438 8.8457031 C 6.8487762 9.3814134 6.7814257 10.249153 6.7109375 11.435547 C 6.6404493 12.621941 6.5934468 14.061634 6.5625 15.480469 C 6.5485084 16.121996 6.5470201 16.644098 6.5390625 17.251953 C 6.5014613 16.959309 6.4777288 16.72508 6.4375 16.425781 C 6.2803775 15.256849 6.1092481 14.06434 5.9433594 13.068359 C 5.7774721 12.072378 5.6285819 11.301779 5.4765625 10.845703 A 0.50004998 0.50004998 0 0 0 4.9824219 10.492188 A 0.50004998 0.50004998 0 0 0 4.5253906 11.15625 C 4.6233711 11.450297 4.7899352 12.256561 4.953125 13.236328 C 5.1163137 14.216133 5.2911246 15.396918 5.4472656 16.558594 C 5.471526 16.73909 5.4846486 16.878021 5.5078125 17.056641 C 5.370425 16.522365 5.2683493 16.062872 5.1152344 15.511719 C 4.7385213 14.155662 4.3250884 12.805193 3.9414062 11.746094 C 3.749565 11.216544 3.5682131 10.763137 3.3886719 10.402344 C 3.2091307 10.041777 3.1088119 9.764717 2.7460938 9.5605469 A 0.50004998 0.50004998 0 0 0 2.4589844 9.4941406 A 0.50004998 0.50004998 0 0 0 2.2519531 10.431641 C 2.1423374 10.370034 2.3435506 10.543076 2.4941406 10.845703 C 2.644731 11.148443 2.8196889 11.57744 3.0039062 12.085938 C 3.372341 13.102933 3.7759391 14.436481 4.1484375 15.777344 C 4.5209364 17.118207 4.8605601 18.467641 5.1074219 19.533203 C 5.2308537 20.065965 5.3364959 20.527687 5.4042969 20.876953 C 5.4720978 21.226181 5.4998677 21.516189 5.5 21.498047 A 0.50198273 0.50198273 0 0 0 6.2148438 21.955078 A 0.50004998 0.50004998 0 0 0 6.75 21.974609 A 0.50004998 0.50004998 0 0 0 7.2851562 21.955078 A 0.50198273 0.50198273 0 0 0 8.0019531 21.505859 C 8.0043879 21.164568 8.1242906 19.111706 8.3710938 17.113281 C 8.4944953 16.114088 8.647442 15.110346 8.828125 14.314453 C 9.0088091 13.51856 9.2994657 12.907563 9.3535156 12.853516 A 0.50004998 0.50004998 0 0 0 8.9394531 11.998047 A 0.50004998 0.50004998 0 0 0 8.6445312 12.144531 C 8.198581 12.590516 8.0468789 13.241996 7.8535156 14.09375 C 7.7433441 14.579047 7.6509266 15.127245 7.5644531 15.693359 C 7.56628 15.604479 7.5644619 15.593032 7.5664062 15.503906 C 7.5972094 14.092139 7.6456595 12.660453 7.7148438 11.496094 C 7.7840242 10.331697 7.9012232 9.3685583 7.9726562 9.1542969 A 0.50004998 0.50004998 0 0 0 7.5078125 8.4902344 z M 12.482422 10.492188 A 0.50004998 0.50004998 0 0 0 12.091797 11.289062 C 12.317544 11.612831 12.513328 11.929254 12.695312 12.244141 C 12.318858 12.355951 11.915618 12.4507 11.449219 12.5 A 0.50094627 0.50094627 0 0 0 11.552734 13.496094 C 12.147728 13.43316 12.671273 13.300357 13.162109 13.136719 C 13.247459 13.319611 13.324451 13.501266 13.396484 13.681641 C 12.969422 13.827818 12.504731 13.947645 11.951172 14.005859 A 0.50004998 0.50004998 0 1 0 12.054688 14.994141 C 12.666412 14.929773 13.201291 14.793336 13.701172 14.623047 C 13.755429 14.813258 13.824038 15.005379 13.865234 15.193359 C 13.455403 15.330874 13.004873 15.446531 12.445312 15.503906 A 0.50094627 0.50094627 0 0 0 12.548828 16.5 C 13.099861 16.443446 13.575516 16.328758 14.017578 16.191406 C 14.051973 16.506453 14.069365 16.819869 14.074219 17.130859 C 13.74068 17.248198 13.50247 17.232778 13.273438 17.083984 A 0.50004998 0.50004998 0 1 0 12.726562 17.917969 C 13.132541 18.181718 13.592959 18.222723 14.048828 18.144531 C 14.039466 18.274911 14.028791 18.405075 14.015625 18.535156 C 13.75374 18.544932 13.437379 18.538802 13.042969 18.501953 A 0.50023865 0.50023865 0 1 0 12.955078 19.498047 C 13.311452 19.531708 13.606343 19.538278 13.882812 19.535156 C 13.7817 20.150362 13.659575 20.765963 13.515625 21.386719 A 0.50048297 0.50048297 0 1 0 14.490234 21.615234 C 14.657424 20.89426 14.802058 20.159253 14.908203 19.412109 C 15.319002 19.301288 15.639011 19.118095 15.849609 18.900391 C 16.077496 18.664926 16.196098 18.437875 16.306641 18.287109 C 16.417184 18.136306 16.49835 18.049064 16.697266 17.962891 A 0.50004998 0.50004998 0 0 0 16.476562 16.996094 L 16.476562 16.994141 A 0.50004998 0.50004998 0 0 0 16.298828 17.039062 C 15.917984 17.204228 15.666132 17.471413 15.501953 17.695312 C 15.337774 17.919438 15.242797 18.09139 15.132812 18.205078 C 15.102049 18.236899 15.059897 18.261745 15.023438 18.289062 C 15.035888 18.113508 15.058732 17.940797 15.064453 17.763672 C 15.658688 17.42296 16.247562 16.928775 16.845703 16.359375 A 0.50004998 0.50004998 0 0 0 17.001953 16.029297 A 0.50094627 0.50094627 0 0 0 17.554688 16.5 C 17.823143 16.472448 18.073238 16.430753 18.314453 16.382812 C 18.285178 16.837449 18.239864 17.293639 18.181641 17.75 C 18.041103 17.715218 17.906212 17.663057 17.775391 17.578125 A 0.50164862 0.50164862 0 0 0 17.228516 18.419922 C 17.479294 18.582843 17.756348 18.678932 18.042969 18.734375 C 18.017362 18.890592 17.982797 19.03453 17.955078 19.189453 C 17.693356 19.164073 17.428708 19.11622 17.15625 19.025391 A 0.50074454 0.50074454 0 1 0 16.845703 19.976562 C 17.156336 20.080109 17.457969 20.135095 17.755859 20.169922 C 17.671976 20.57603 17.599258 21.0008 17.509766 21.386719 A 0.50048297 0.50048297 0 0 0 18.484375 21.615234 C 18.588816 21.164851 18.681531 20.663239 18.78125 20.181641 C 19.682214 20.091352 20.503415 19.774395 21.208984 19.453125 A 0.50004998 0.50004998 0 0 0 20.972656 18.5 A 0.50004998 0.50004998 0 0 0 20.794922 18.544922 C 20.216032 18.809104 19.618321 19.043557 18.994141 19.150391 C 19.020052 19.004979 19.044292 18.86367 19.068359 18.716797 C 19.124461 18.704508 19.180342 18.701429 19.236328 18.685547 C 19.938849 18.486366 20.644431 18.032749 21.347656 17.363281 A 0.50004998 0.50004998 0 0 0 21.001953 16.492188 A 0.50004998 0.50004998 0 0 0 20.654297 16.640625 C 20.140039 17.130215 19.656219 17.444564 19.230469 17.619141 C 19.293012 17.105313 19.33577 16.587118 19.359375 16.070312 C 20.172028 15.765316 20.82505 15.350825 21.341797 14.869141 A 0.50004998 0.50004998 0 0 0 20.957031 13.998047 A 0.50004998 0.50004998 0 0 0 20.662109 14.138672 C 20.29459 14.481267 19.886053 14.783043 19.369141 15.019531 C 19.361784 14.645406 19.33137 14.27724 19.292969 13.910156 C 19.89693 13.634236 20.413086 13.282026 20.845703 12.861328 A 0.50004998 0.50004998 0 0 0 20.447266 11.998047 A 0.50004998 0.50004998 0 0 0 20.152344 12.144531 C 19.862244 12.426631 19.516985 12.663305 19.130859 12.869141 C 19.091211 12.675017 19.051358 12.480959 19 12.291016 C 19.512098 12.032343 19.971051 11.726596 20.351562 11.355469 A 0.50004998 0.50004998 0 0 0 19.945312 10.498047 A 0.50004998 0.50004998 0 0 0 19.650391 10.638672 C 19.377168 10.905163 19.051534 11.128573 18.693359 11.328125 C 18.618197 11.142412 18.536984 10.958733 18.447266 10.779297 A 0.50004998 0.50004998 0 0 0 18.003906 10.492188 A 0.50004998 0.50004998 0 0 0 17.554688 11.222656 C 17.635412 11.384106 17.708235 11.550554 17.775391 11.720703 C 17.376861 11.847067 16.949428 11.950826 16.447266 12.003906 A 0.50004998 0.50004998 0 1 0 16.550781 12.994141 C 17.103448 12.935684 17.592951 12.815635 18.056641 12.669922 C 18.103657 12.861512 18.14705 13.055474 18.181641 13.253906 C 17.809486 13.363415 17.410808 13.455352 16.949219 13.503906 A 0.50094627 0.50094627 0 1 0 17.052734 14.5 C 17.502145 14.452712 17.914313 14.36918 18.302734 14.263672 C 18.330127 14.619962 18.34508 14.979995 18.34375 15.347656 C 18.067809 15.411157 17.783199 15.469861 17.451172 15.503906 A 0.50094627 0.50094627 0 0 0 17.003906 15.953125 A 0.50004998 0.50004998 0 0 0 16.455078 15.496094 A 0.50004998 0.50004998 0 0 0 16.152344 15.636719 C 15.763839 16.006561 15.388543 16.325088 15.039062 16.582031 C 15.02303 16.332347 14.984727 16.079094 14.951172 15.826172 C 15.494897 15.554193 15.957251 15.229414 16.34375 14.869141 A 0.50004998 0.50004998 0 0 0 15.958984 13.998047 A 0.50004998 0.50004998 0 0 0 15.65625 14.138672 C 15.396202 14.381085 15.100189 14.592171 14.775391 14.785156 C 14.731575 14.598749 14.684129 14.410875 14.628906 14.222656 C 15.085274 13.976101 15.502358 13.693152 15.849609 13.355469 A 0.50004998 0.50004998 0 0 0 15.494141 12.492188 A 0.50004998 0.50004998 0 0 0 15.154297 12.638672 C 14.906305 12.879825 14.615337 13.086113 14.298828 13.273438 C 14.22989 13.09956 14.156098 12.925453 14.076172 12.75 C 14.553359 12.498805 14.987026 12.209157 15.347656 11.857422 A 0.50004998 0.50004998 0 0 0 15 10.994141 A 0.50004998 0.50004998 0 0 0 14.652344 11.140625 C 14.361744 11.42405 14.014514 11.661347 13.626953 11.867188 C 13.414123 11.485804 13.181402 11.101913 12.910156 10.712891 A 0.50004998 0.50004998 0 0 0 12.482422 10.492188 z "
       transform="matrix(0.26458333,0,0,0.26458333,0,290.64997)"
       id="path4571" />
  </g>
</svg>
