<?xml version="1.0" encoding="UTF-8" standalone="no"?>
<!-- Created with Inkscape (http://www.inkscape.org/) -->

<svg
   xmlns:dc="http://purl.org/dc/elements/1.1/"
   xmlns:cc="http://creativecommons.org/ns#"
   xmlns:rdf="http://www.w3.org/1999/02/22-rdf-syntax-ns#"
   xmlns:svg="http://www.w3.org/2000/svg"
   xmlns="http://www.w3.org/2000/svg"
   xmlns:sodipodi="http://sodipodi.sourceforge.net/DTD/sodipodi-0.dtd"
   xmlns:inkscape="http://www.inkscape.org/namespaces/inkscape"
   width="24"
   height="24"
   viewBox="0 0 6.3499999 6.3500002"
   version="1.1"
   id="svg8"
   sodipodi:docname="aubergine.svg"
   inkscape:version="0.92.4 (5da689c313, 2019-01-14)">
  <defs
     id="defs2">
    <inkscape:path-effect
       effect="bspline"
       id="path-effect821"
       is_visible="true"
       weight="33.333333"
       steps="2"
       helper_size="0"
       apply_no_weight="true"
       apply_with_weight="true"
       only_selected="false" />
    <inkscape:path-effect
       effect="bspline"
       id="path-effect4522"
       is_visible="true"
       weight="33.333333"
       steps="2"
       helper_size="0"
       apply_no_weight="true"
       apply_with_weight="true"
       only_selected="false" />
  </defs>
  <sodipodi:namedview
     id="base"
     pagecolor="#ffffff"
     bordercolor="#666666"
     borderopacity="1.0"
     inkscape:pageopacity="0.0"
     inkscape:pageshadow="2"
     inkscape:zoom="32"
     inkscape:cx="11.971752"
     inkscape:cy="12.222535"
     inkscape:document-units="mm"
     inkscape:current-layer="layer1"
     showgrid="true"
     units="px"
     objecttolerance="20"
     inkscape:window-width="1920"
     inkscape:window-height="1017"
     inkscape:window-x="1592"
     inkscape:window-y="126"
     inkscape:window-maximized="1">
    <inkscape:grid
       type="xygrid"
       id="grid815"
       originx="3.175"
       originy="3.175"
       spacingx="0.13229167"
       spacingy="0.13229167"
       color="#6900ff"
       opacity="0.1254902"
       empspacing="2"
       dotted="false" />
  </sodipodi:namedview>
  <metadata
     id="metadata5">
    <rdf:RDF>
      <cc:Work
         rdf:about="">
        <dc:format>image/svg+xml</dc:format>
        <dc:type
           rdf:resource="http://purl.org/dc/dcmitype/StillImage" />
        <dc:title></dc:title>
      </cc:Work>
    </rdf:RDF>
  </metadata>
  <g
     inkscape:label="Calque 1"
     inkscape:groupmode="layer"
     id="layer1"
     transform="translate(0,-290.64997)">
    <path
       style="color:#000000;font-style:normal;font-variant:normal;font-weight:normal;font-stretch:normal;font-size:medium;line-height:normal;font-family:sans-serif;font-variant-ligatures:normal;font-variant-position:normal;font-variant-caps:normal;font-variant-numeric:normal;font-variant-alternates:normal;font-feature-settings:normal;text-indent:0;text-align:start;text-decoration:none;text-decoration-line:none;text-decoration-style:solid;text-decoration-color:#000000;letter-spacing:normal;word-spacing:normal;text-transform:none;writing-mode:lr-tb;direction:ltr;text-orientation:mixed;dominant-baseline:auto;baseline-shift:baseline;text-anchor:start;white-space:normal;shape-padding:0;clip-rule:nonzero;display:inline;overflow:visible;visibility:visible;opacity:1;isolation:auto;mix-blend-mode:normal;color-interpolation:sRGB;color-interpolation-filters:linearRGB;solid-color:#000000;solid-opacity:1;vector-effect:none;fill:#000000;fill-opacity:1;fill-rule:evenodd;stroke:none;stroke-width:0.26458332px;stroke-linecap:butt;stroke-linejoin:round;stroke-miterlimit:4;stroke-dasharray:none;stroke-dashoffset:0;stroke-opacity:1;color-rendering:auto;image-rendering:auto;shape-rendering:auto;text-rendering:auto;enable-background:accumulate"
       d="m 4.1972656,291.69727 c -0.046458,0.007 -0.069249,0.022 -0.095703,0.0371 -0.052907,0.0303 -0.111575,0.0738 -0.1835937,0.13085 -0.1440376,0.11403 -0.3336988,0.27964 -0.5410157,0.46094 -0.4146337,0.3626 -0.9012799,0.78924 -1.1542969,0.95117 -0.2649397,0.16957 -0.589256,0.32339 -0.8789062,0.49805 -0.2896502,0.17466 -0.55362356,0.37126 -0.671875,0.66016 -0.11064844,0.27031 -0.13303858,0.58205 -0.0820313,0.87109 0.0510073,0.28904 0.17446688,0.56005 0.3828125,0.73633 0.20086865,0.16996 0.50796895,0.31021 0.83203125,0.37891 0.3240623,0.0687 0.6702371,0.0675 0.9316406,-0.10938 0.8487886,-0.57431 1.1194326,-1.14898 1.2929688,-1.73242 0.1589102,-0.53427 0.430965,-0.92361 0.6660156,-1.20117 0.1175253,-0.13878 0.2250138,-0.24827 0.3066406,-0.33789 0.040813,-0.0448 0.075436,-0.0845 0.1035157,-0.125 0.02808,-0.0405 0.06102,-0.0818 0.052734,-0.16211 a 0.13230489,0.13230489 0 0 0 -0.1640625,-0.11524 l -0.3261718,0.082 0.091797,-0.45703 a 0.13230489,0.13230489 0 0 0 -0.1894531,-0.14453 l -0.2871094,0.14258 0.080078,-0.39453 a 0.13230489,0.13230489 0 0 0 0.00195,-0.041 c -0.00326,-0.0316 -0.027153,-0.0818 -0.068359,-0.10742 -0.041207,-0.0256 -0.07638,-0.0248 -0.099609,-0.0215 z m -0.1523437,0.4082 -0.074219,0.37109 a 0.13230489,0.13230489 0 0 0 0.1894531,0.14453 l 0.2871094,-0.14453 -0.078125,0.39649 a 0.13230489,0.13230489 0 0 0 0.1601563,0.15429 l 0.1660156,-0.041 c -0.063711,0.0684 -0.1211235,0.12813 -0.2011719,0.22265 -0.2486265,0.2936 -0.5461968,0.71479 -0.71875,1.29493 -0.166665,0.56034 -0.3830162,1.04551 -1.1875,1.58984 -0.1664663,0.11263 -0.4454993,0.13031 -0.7285156,0.0703 -0.2830163,-0.06 -0.5634509,-0.19612 -0.7148438,-0.32422 -0.143916,-0.12176 -0.25207225,-0.33531 -0.29492182,-0.57812 -0.0428496,-0.24281 -0.0214678,-0.50993 0.0664062,-0.72461 0.0802711,-0.19611 0.29178898,-0.37074 0.56445318,-0.53516 0.2726641,-0.16441 0.5987269,-0.31888 0.8847656,-0.50195 0.2979614,-0.1907 0.7717593,-0.61275 1.1855468,-0.97461 0.1917354,-0.16767 0.3616355,-0.31313 0.4941407,-0.41992 z"
       id="path819"
       inkscape:connector-curvature="0" />
    <path
       style="color:#000000;font-style:normal;font-variant:normal;font-weight:normal;font-stretch:normal;font-size:medium;line-height:normal;font-family:sans-serif;font-variant-ligatures:normal;font-variant-position:normal;font-variant-caps:normal;font-variant-numeric:normal;font-variant-alternates:normal;font-feature-settings:normal;text-indent:0;text-align:start;text-decoration:none;text-decoration-line:none;text-decoration-style:solid;text-decoration-color:#000000;letter-spacing:normal;word-spacing:normal;text-transform:none;writing-mode:lr-tb;direction:ltr;text-orientation:mixed;dominant-baseline:auto;baseline-shift:baseline;text-anchor:start;white-space:normal;shape-padding:0;clip-rule:nonzero;display:inline;overflow:visible;visibility:visible;opacity:1;isolation:auto;mix-blend-mode:normal;color-interpolation:sRGB;color-interpolation-filters:linearRGB;solid-color:#000000;solid-opacity:1;vector-effect:none;fill:#000000;fill-opacity:1;fill-rule:evenodd;stroke:none;stroke-width:0.26458332px;stroke-linecap:round;stroke-linejoin:round;stroke-miterlimit:4;stroke-dasharray:none;stroke-dashoffset:0;stroke-opacity:1;color-rendering:auto;image-rendering:auto;shape-rendering:auto;text-rendering:auto;enable-background:accumulate"
       d="m 5.5585938,291.31055 a 0.13230489,0.13230489 0 0 0 -0.082031,0.0273 l -0.4941406,0.37109 h -0.75 a 0.13230489,0.13230489 0 1 0 0,0.26368 h 0.7929687 l -0.1289062,0.77148 a 0.13277282,0.13277282 0 1 0 0.2617187,0.0449 l 0.1269531,-0.76172 0.3769532,-0.5039 a 0.13230489,0.13230489 0 0 0 -0.1035156,-0.21289 z"
       id="path826"
       inkscape:connector-curvature="0" />
  </g>
</svg>
