<?xml version="1.0" encoding="UTF-8" standalone="no"?>
<!-- Created with Inkscape (http://www.inkscape.org/) -->

<svg
   xmlns:dc="http://purl.org/dc/elements/1.1/"
   xmlns:cc="http://creativecommons.org/ns#"
   xmlns:rdf="http://www.w3.org/1999/02/22-rdf-syntax-ns#"
   xmlns:svg="http://www.w3.org/2000/svg"
   xmlns="http://www.w3.org/2000/svg"
   xmlns:sodipodi="http://sodipodi.sourceforge.net/DTD/sodipodi-0.dtd"
   xmlns:inkscape="http://www.inkscape.org/namespaces/inkscape"
   width="24"
   height="24"
   viewBox="0 0 6.3499999 6.3500002"
   version="1.1"
   id="svg8"
   sodipodi:docname="brocoli.svg"
   inkscape:version="0.92.4 (5da689c313, 2019-01-14)">
  <defs
     id="defs2">
    <inkscape:path-effect
       effect="bspline"
       id="path-effect4522"
       is_visible="true"
       weight="33.333333"
       steps="2"
       helper_size="0"
       apply_no_weight="true"
       apply_with_weight="true"
       only_selected="false" />
  </defs>
  <sodipodi:namedview
     id="base"
     pagecolor="#ffffff"
     bordercolor="#666666"
     borderopacity="1.0"
     inkscape:pageopacity="0.0"
     inkscape:pageshadow="2"
     inkscape:zoom="32"
     inkscape:cx="15.211565"
     inkscape:cy="11.529557"
     inkscape:document-units="mm"
     inkscape:current-layer="layer1"
     showgrid="true"
     units="px"
     objecttolerance="20"
     inkscape:window-width="1920"
     inkscape:window-height="1017"
     inkscape:window-x="-8"
     inkscape:window-y="-8"
     inkscape:window-maximized="1">
    <inkscape:grid
       type="xygrid"
       id="grid815"
       originx="3.175"
       originy="3.175"
       spacingx="0.13229167"
       spacingy="0.13229167"
       color="#6900ff"
       opacity="0.1254902"
       empspacing="2"
       dotted="false" />
  </sodipodi:namedview>
  <metadata
     id="metadata5">
    <rdf:RDF>
      <cc:Work
         rdf:about="">
        <dc:format>image/svg+xml</dc:format>
        <dc:type
           rdf:resource="http://purl.org/dc/dcmitype/StillImage" />
        <dc:title></dc:title>
      </cc:Work>
    </rdf:RDF>
  </metadata>
  <g
     inkscape:label="Calque 1"
     inkscape:groupmode="layer"
     id="layer1"
     transform="translate(0,-290.64997)">
    <path
       style="color:#000000;font-style:normal;font-variant:normal;font-weight:normal;font-stretch:normal;font-size:medium;line-height:normal;font-family:sans-serif;font-variant-ligatures:normal;font-variant-position:normal;font-variant-caps:normal;font-variant-numeric:normal;font-variant-alternates:normal;font-feature-settings:normal;text-indent:0;text-align:start;text-decoration:none;text-decoration-line:none;text-decoration-style:solid;text-decoration-color:#000000;letter-spacing:normal;word-spacing:normal;text-transform:none;writing-mode:lr-tb;direction:ltr;text-orientation:mixed;dominant-baseline:auto;baseline-shift:baseline;text-anchor:start;white-space:normal;shape-padding:0;clip-rule:nonzero;display:inline;overflow:visible;visibility:visible;opacity:1;isolation:auto;mix-blend-mode:normal;color-interpolation:sRGB;color-interpolation-filters:linearRGB;solid-color:#000000;solid-opacity:1;vector-effect:none;fill:#000000;fill-opacity:1;fill-rule:evenodd;stroke:none;stroke-width:0.99999994px;stroke-linecap:butt;stroke-linejoin:miter;stroke-miterlimit:4;stroke-dasharray:none;stroke-dashoffset:0;stroke-opacity:1;color-rendering:auto;image-rendering:auto;shape-rendering:auto;text-rendering:auto;enable-background:accumulate"
       d="M 11.03125 2.2304688 C 10.909116 2.2302502 10.786425 2.2397341 10.666016 2.2597656 C 9.884085 2.3901593 9.3254665 3.1506735 8.9179688 3.9804688 C 8.4605371 3.7292436 7.9912752 3.5037517 7.5585938 3.5527344 C 7.0038955 3.6154745 6.5386718 3.907318 6.1933594 4.2910156 C 5.746674 4.7873306 5.4681588 5.4325095 5.4121094 6.0898438 C 5.037671 6.0343054 4.6509814 6.143911 4.4003906 6.3945312 C 3.9352404 6.8596777 4.0208989 7.675087 4.1035156 8.46875 C 3.6866962 8.3357106 3.2496235 8.1087768 2.9160156 8.2773438 C 2.4001315 8.5385091 2.2091973 9.0973391 2.1992188 9.6191406 C 2.1823772 10.499884 2.7758195 11.383761 3.5351562 12.003906 C 2.6984627 12.683428 2.1282641 13.630326 2.1933594 14.476562 C 2.2318278 14.976632 2.3753293 15.463546 2.8339844 15.732422 C 3.0633117 15.866973 3.3687772 15.899683 3.6328125 15.820312 C 3.7491025 15.786297 3.8430586 15.678667 3.9492188 15.613281 C 4.0352181 15.685092 4.0728334 15.812445 4.1699219 15.857422 C 4.4503477 15.98706 4.7557627 16.024067 5.0722656 16.019531 C 5.2899944 16.016931 5.5162685 15.986415 5.7460938 15.943359 C 5.8558854 16.040371 6.7151982 16.803471 7.6914062 17.894531 C 8.731338 19.056774 9.8012517 20.559018 10.009766 21.601562 L 10.091797 22 L 14.410156 22 L 14.490234 21.601562 C 15.463371 16.735877 17.389292 12.84696 17.435547 12.753906 C 17.530077 12.749062 17.624973 12.746829 17.716797 12.728516 C 17.823285 12.705838 17.898609 12.588826 18.003906 12.535156 C 18.322868 12.645896 18.666133 12.770938 19.001953 12.882812 C 19.392763 13.013206 19.748048 13.126953 20.123047 13.126953 C 20.310545 13.126953 20.528666 13.095611 20.728516 12.941406 C 20.928366 12.786068 21.03125 12.506497 21.03125 12.277344 C 21.03125 11.942478 20.801538 11.55843 20.587891 11.15625 C 20.84449 11.01414 21.164491 10.960061 21.318359 10.720703 C 21.596106 10.288628 21.726346 9.75868 21.6875 9.2148438 C 21.648654 8.6710075 21.426861 8.1036371 20.972656 7.6796875 C 20.637469 7.3667426 20.073031 7.2726761 19.517578 7.1777344 C 19.57305 6.8148997 19.6479 6.4471313 19.599609 6.1367188 C 19.530792 5.694325 19.332886 5.2824118 18.978516 5.0292969 C 18.892315 4.9676995 18.798901 4.9188326 18.701172 4.8808594 C 18.699481 4.8614794 18.701928 4.841471 18.699219 4.8222656 C 18.650115 4.4741711 18.470679 4.1829158 18.240234 3.9296875 C 17.779347 3.4232686 17.086358 3.0298384 16.314453 2.7617188 C 15.542548 2.4937502 14.692751 2.3529197 13.908203 2.4667969 C 13.380795 2.5431433 13.025682 2.9876473 12.644531 3.3671875 C 12.475919 3.0618017 12.349033 2.7055118 12.083984 2.5332031 C 11.764143 2.3254236 11.397652 2.2311243 11.03125 2.2304688 z M 10.830078 3.2421875 C 11.098443 3.1975891 11.338564 3.2457402 11.537109 3.375 C 11.735656 3.5038819 11.917545 3.720993 12.017578 4.1210938 L 12.386719 5.6191406 L 12.962891 4.1875 C 13.140759 3.7451063 13.488268 3.5380265 14.046875 3.4570312 C 14.605481 3.3761494 15.330933 3.4825273 15.982422 3.7070312 C 16.63391 3.933425 17.219299 4.2909609 17.501953 4.6015625 C 17.59008 4.6984264 17.636859 4.7791023 17.667969 4.8496094 C 17.256782 4.9517995 16.817337 5.1937108 16.351562 5.5234375 C 15.689596 4.9283509 14.901389 4.4403445 14.179688 4.6894531 C 13.723092 4.8470594 13.31339 5.1535996 13.080078 5.5976562 C 12.941604 5.8610893 13.03798 6.2102303 13.050781 6.5351562 C 12.522379 6.5238177 11.993139 6.5084027 11.626953 6.6308594 C 11.131819 6.7964027 10.75343 7.1005562 10.59375 7.5097656 C 10.557068 7.6037598 10.5363 7.6996816 10.525391 7.796875 C 10.301018 7.5148081 10.03564 7.256606 9.7363281 7.0371094 C 9.205427 6.6477802 8.5766193 6.3653422 7.9199219 6.3359375 C 7.4491708 6.3132603 7.0259134 6.6487096 6.6132812 6.9550781 C 6.5653613 6.9010905 6.5166739 6.8572505 6.46875 6.8046875 C 6.312302 6.2733072 6.5067342 5.4350344 6.9316406 4.9628906 C 7.1488274 4.7213788 7.396495 4.57197 7.6699219 4.5410156 C 7.943348 4.5107794 8.2804589 4.5852414 8.703125 4.9023438 L 9.3007812 5.3535156 L 9.4863281 4.6230469 C 9.6911483 3.8037587 10.293351 3.3316489 10.830078 3.2421875 z M 14.900391 5.5625 C 15.313413 5.5539287 15.760074 5.7466069 16.070312 6.2617188 L 16.357422 6.734375 L 16.800781 6.4023438 C 17.263448 6.0553831 17.646335 5.8678056 17.916016 5.8046875 C 18.185696 5.7415694 18.313357 5.7883177 18.396484 5.8476562 C 18.479611 5.9069948 18.568817 6.0303038 18.609375 6.2910156 C 18.649933 6.551803 18.626797 6.9225906 18.513672 7.375 L 18.359375 8.0039062 L 19.001953 8.0039062 C 19.65473 8.0039062 20.044051 8.1780177 20.292969 8.4101562 C 20.541888 8.6425972 20.667751 8.9559472 20.691406 9.2871094 C 20.715066 9.618196 20.620695 9.9574391 20.476562 10.181641 C 20.332434 10.405767 20.178599 10.498047 19.998047 10.498047 L 19.119141 10.498047 L 19.570312 11.259766 C 19.858063 11.73935 19.908473 11.940512 19.945312 12.078125 C 19.785102 12.055448 19.591127 12.02342 19.310547 11.929688 C 18.951356 11.809876 18.550969 11.65586 18.160156 11.525391 L 17.746094 11.390625 L 17.572266 11.740234 C 17.580347 11.737211 17.571224 11.742224 17.554688 11.775391 L 17.572266 11.740234 C 17.567178 11.742138 17.563329 11.744506 17.525391 11.751953 C 17.427183 11.770851 17.229988 11.772297 16.992188 11.738281 C 16.771223 11.706674 16.505455 11.638582 16.224609 11.552734 L 14.646484 10.763672 L 14.625 10.863281 C 14.179138 10.62203 13.747967 10.357967 13.398438 10.068359 C 12.897025 9.6541609 12.564622 9.2116314 12.482422 8.8828125 L 12.416016 8.609375 L 12.158203 8.5273438 C 11.869678 8.4313437 11.680146 8.2740179 11.589844 8.1445312 C 11.499543 8.0148935 11.496516 7.9402591 11.523438 7.8710938 C 11.550348 7.8023063 11.640944 7.6833226 11.943359 7.5820312 C 12.245774 7.4811179 12.747109 7.4181721 13.449219 7.4941406 L 14.261719 7.5820312 L 13.966797 6.8222656 C 13.835866 6.4821081 13.868215 6.2501157 13.966797 6.0625 C 14.065378 5.8746575 14.257586 5.71857 14.505859 5.6328125 L 14.505859 5.6347656 C 14.629996 5.5919625 14.762716 5.5653571 14.900391 5.5625 z M 5.1757812 7.0449219 C 5.2014126 7.0409534 5.2377268 7.0521096 5.3144531 7.0800781 C 5.4679057 7.136771 5.7566563 7.3420089 6.0976562 7.796875 L 6.5039062 8.3359375 L 6.9023438 7.796875 C 7.1853434 7.4196781 7.4867751 7.3145698 7.8769531 7.3320312 C 8.2671308 7.3509289 8.7320726 7.5437055 9.1386719 7.8417969 C 9.5452708 8.1400016 9.889349 8.5430118 10.054688 8.9042969 C 10.220027 9.2656197 10.216657 9.5236641 10.083984 9.7226562 L 9.4628906 10.654297 L 10.570312 10.498047 C 10.955015 10.443244 11.215769 10.472351 11.361328 10.521484 C 11.506885 10.570996 11.542595 10.618964 11.574219 10.683594 C 11.621395 10.780009 11.618716 11.007335 11.519531 11.273438 L 10.376953 12.417969 C 10.023681 12.537738 9.7271767 12.520107 9.3535156 12.146484 L 8.0761719 10.869141 L 8.5117188 12.625 C 8.57598 12.881951 8.4822028 13.163232 8.2265625 13.482422 L 8.0898438 13.310547 L 6.0800781 14.8125 C 5.7030454 14.932207 5.3384803 15.021249 5.0566406 15.025391 C 4.8418954 15.028565 4.6785593 14.990857 4.5917969 14.951172 C 4.505034 14.911109 4.4903596 14.892757 4.4726562 14.839844 L 4.2148438 14.072266 L 3.6464844 14.648438 C 3.4982672 14.796595 3.3863551 14.848856 3.34375 14.861328 C 3.3011445 14.872667 3.3331709 14.873174 3.3359375 14.876953 C 3.3414669 14.880204 3.2134845 14.7089 3.1894531 14.396484 C 3.14139 13.771691 3.4462597 12.837414 4.2226562 12.449219 L 5.1152344 11.998047 L 4.2226562 11.554688 C 3.6650596 11.275758 3.1911191 10.270433 3.203125 9.6425781 C 3.2091269 9.3284994 3.2986417 9.2055506 3.3652344 9.171875 C 3.431827 9.1378593 3.6919112 9.0982229 4.2441406 9.4296875 L 5.2773438 10.048828 L 4.9824219 8.8828125 C 4.7585756 7.9874424 4.9622491 7.2427912 5.1015625 7.1035156 C 5.1363871 7.068744 5.1501499 7.0488904 5.1757812 7.0449219 z M 11.017578 8.9804688 C 11.20938 9.1420926 11.445037 9.2709227 11.701172 9.3769531 C 11.736912 9.4653198 11.780245 9.5506646 11.822266 9.6367188 C 11.776952 9.6160854 11.733383 9.5924928 11.685547 9.5761719 C 11.476119 9.5047388 11.194789 9.5331398 10.939453 9.53125 C 10.954159 9.3453715 10.997933 9.1613181 11.017578 8.9804688 z M 12.609375 10.699219 C 12.658903 10.74522 12.702573 10.793736 12.755859 10.837891 C 13.236441 11.236094 13.808394 11.573172 14.390625 11.867188 C 14.059672 13.159946 13.60439 14.091609 13.162109 15.105469 C 12.978657 14.278633 12.839084 13.799347 12.505859 11.476562 C 12.590117 11.221683 12.639954 10.95958 12.609375 10.699219 z M 15.255859 12.257812 C 15.45684 12.337684 15.660415 12.428115 15.855469 12.490234 C 15.85734 12.49083 15.859458 12.491593 15.861328 12.492188 L 16.388672 12.757812 C 16.203252 13.135765 14.634584 16.503698 13.642578 21.003906 L 10.748047 21.003906 C 10.339207 19.680656 9.418922 18.327363 8.4375 17.230469 C 7.6154785 16.311746 7.1216461 15.884869 6.8164062 15.611328 C 6.9042975 15.57598 6.9928244 15.556868 7.0800781 15.517578 C 7.4351882 15.357696 7.7794172 15.166535 8.0976562 14.947266 C 8.2399771 15.127086 8.36009 15.276328 8.6582031 15.673828 C 9.2153694 16.416694 9.8494104 17.314077 10.054688 17.724609 L 10.660156 18.935547 L 10.984375 17.623047 C 11.486818 15.613256 11.0619 13.565074 10.996094 13.234375 C 11.264114 13.103086 11.505463 12.931736 11.714844 12.726562 C 11.990189 14.735667 12.120236 15.934961 12.527344 17.15625 L 12.947266 18.427734 L 13.464844 17.193359 C 14.267684 15.254661 14.784793 14.117072 15.255859 12.257812 z M 9.2871094 13.007812 C 9.5265715 13.117385 9.769675 13.239371 10.009766 13.318359 C 10.009564 13.534573 10.009036 14.756151 10.017578 15.894531 C 9.8106225 15.603886 9.6745154 15.358351 9.4628906 15.076172 C 9.1440503 14.65105 9.0615888 14.553005 8.8613281 14.296875 C 8.8650131 14.292872 8.8693831 14.289172 8.8730469 14.285156 C 9.1894651 13.938196 9.2111824 13.460222 9.2871094 13.007812 z "
       transform="matrix(0.26458333,0,0,0.26458333,0,290.64997)"
       id="path3865" />
  </g>
</svg>
