<?xml version="1.0" encoding="UTF-8" standalone="no"?>
<!-- Created with Inkscape (http://www.inkscape.org/) -->

<svg
   xmlns:dc="http://purl.org/dc/elements/1.1/"
   xmlns:cc="http://creativecommons.org/ns#"
   xmlns:rdf="http://www.w3.org/1999/02/22-rdf-syntax-ns#"
   xmlns:svg="http://www.w3.org/2000/svg"
   xmlns="http://www.w3.org/2000/svg"
   xmlns:sodipodi="http://sodipodi.sourceforge.net/DTD/sodipodi-0.dtd"
   xmlns:inkscape="http://www.inkscape.org/namespaces/inkscape"
   width="24"
   height="24"
   viewBox="0 0 6.3499999 6.3500002"
   version="1.1"
   id="svg8"
   sodipodi:docname="brocoli_wire.svg"
   inkscape:version="0.92.4 (5da689c313, 2019-01-14)">
  <defs
     id="defs2">
    <inkscape:path-effect
       effect="bspline"
       id="path-effect4522"
       is_visible="true"
       weight="33.333333"
       steps="2"
       helper_size="0"
       apply_no_weight="true"
       apply_with_weight="true"
       only_selected="false" />
  </defs>
  <sodipodi:namedview
     id="base"
     pagecolor="#ffffff"
     bordercolor="#666666"
     borderopacity="1.0"
     inkscape:pageopacity="0.0"
     inkscape:pageshadow="2"
     inkscape:zoom="32"
     inkscape:cx="15.211565"
     inkscape:cy="11.529557"
     inkscape:document-units="mm"
     inkscape:current-layer="layer1"
     showgrid="true"
     units="px"
     objecttolerance="20"
     inkscape:window-width="1920"
     inkscape:window-height="1017"
     inkscape:window-x="-8"
     inkscape:window-y="-8"
     inkscape:window-maximized="1">
    <inkscape:grid
       type="xygrid"
       id="grid815"
       originx="3.175"
       originy="3.175"
       spacingx="0.13229167"
       spacingy="0.13229167"
       color="#6900ff"
       opacity="0.1254902"
       empspacing="2"
       dotted="false" />
  </sodipodi:namedview>
  <metadata
     id="metadata5">
    <rdf:RDF>
      <cc:Work
         rdf:about="">
        <dc:format>image/svg+xml</dc:format>
        <dc:type
           rdf:resource="http://purl.org/dc/dcmitype/StillImage" />
        <dc:title></dc:title>
      </cc:Work>
    </rdf:RDF>
  </metadata>
  <g
     inkscape:label="Calque 1"
     inkscape:groupmode="layer"
     id="layer1"
     transform="translate(0,-290.64997)">
    <path
       style="fill:none;fill-rule:evenodd;stroke:#000000;stroke-width:0.26458332px;stroke-linecap:butt;stroke-linejoin:miter;stroke-opacity:1"
       d="m 3.175,293.03122 c 0.1322917,0.52917 1.4552083,1.05833 1.5875,0.79375 0.396875,0.13229 0.9260417,0.39688 0.5291667,-0.26458 0.396875,0 0.5291667,-0.92605 -0.2645833,-0.92605 0.1322916,-0.52916 -0.1322917,-0.79374 -0.6614584,-0.39687 -0.2798808,-0.4648 -0.9781029,-0.21434 -0.79375,0.26458 -0.7956531,-0.0861 -0.79375,0.39688 -0.396875,0.52917 z"
       id="path3865"
       inkscape:connector-curvature="0"
       sodipodi:nodetypes="ccccccc" />
    <path
       style="fill:none;fill-rule:evenodd;stroke:#000000;stroke-width:0.26458332px;stroke-linecap:butt;stroke-linejoin:miter;stroke-opacity:1"
       d="m 1.0583333,294.61872 c 0.1322917,0.39688 1.4552084,-0.13229 1.3229167,-0.66146 0.5291667,0.52917 1.3229167,-0.79375 0.396875,-0.66146 0.2645833,-0.39688 -0.6614584,-1.19063 -1.0583334,-0.66146 -0.396875,-0.52917 -0.6614584,-0.13229 -0.5291667,0.39688 -0.6614583,-0.39688 -0.56299414,0.57832 -0.1322916,0.79375 -0.5291667,0.26459 -0.39687503,1.19063 0,0.79375 z"
       id="path3865-9"
       inkscape:connector-curvature="0"
       sodipodi:nodetypes="ccccccc" />
    <path
       style="fill:none;stroke:#000000;stroke-width:0.26458332px;stroke-linecap:butt;stroke-linejoin:miter;stroke-opacity:1"
       d="m 1.5875,294.75101 c 0,0 1.0583334,0.92604 1.190625,1.5875 h 0.9260417 c 0.2645834,-1.32292 0.79375,-2.38125 0.79375,-2.38125 L 3.96875,293.69268 c -0.1314447,0.6176 -0.2863509,0.86886 -0.5291667,1.45521 C 3.3072916,294.75102 3.3072916,294.61872 3.175,293.69268 l -0.396875,0.39687 c 0,0 0.1322917,0.66146 0,1.19063 -0.1322916,-0.26459 -0.6614584,-0.92604 -0.6614584,-0.92604 L 1.5875,294.75101"
       id="path833"
       inkscape:connector-curvature="0"
       sodipodi:nodetypes="ccccccccccc" />
    <path
       style="fill:none;stroke:#000000;stroke-width:0.26458332px;stroke-linecap:butt;stroke-linejoin:miter;stroke-opacity:1"
       d="m 1.5875,292.50205 c -0.1322917,-0.39687 0.2645833,-1.05833 0.79375,-0.66146 0.1322916,-0.52916 0.79375,-0.66146 0.9260417,-0.13229 0.2660787,-0.6618 1.8237197,-0.0121 1.4552083,0.39688"
       id="path835"
       inkscape:connector-curvature="0"
       sodipodi:nodetypes="cccc" />
  </g>
</svg>
