<?xml version="1.0" encoding="UTF-8" standalone="no"?>
<!-- Created with Inkscape (http://www.inkscape.org/) -->

<svg
   xmlns:dc="http://purl.org/dc/elements/1.1/"
   xmlns:cc="http://creativecommons.org/ns#"
   xmlns:rdf="http://www.w3.org/1999/02/22-rdf-syntax-ns#"
   xmlns:svg="http://www.w3.org/2000/svg"
   xmlns="http://www.w3.org/2000/svg"
   xmlns:sodipodi="http://sodipodi.sourceforge.net/DTD/sodipodi-0.dtd"
   xmlns:inkscape="http://www.inkscape.org/namespaces/inkscape"
   width="24"
   height="24"
   viewBox="0 0 6.3499999 6.3500002"
   version="1.1"
   id="svg8"
   sodipodi:docname="butternut.svg"
   inkscape:version="0.92.4 (5da689c313, 2019-01-14)">
  <defs
     id="defs2">
    <inkscape:path-effect
       effect="bspline"
       id="path-effect821"
       is_visible="true"
       weight="33.333333"
       steps="2"
       helper_size="0"
       apply_no_weight="true"
       apply_with_weight="true"
       only_selected="false" />
    <inkscape:path-effect
       effect="bspline"
       id="path-effect4522"
       is_visible="true"
       weight="33.333333"
       steps="2"
       helper_size="0"
       apply_no_weight="true"
       apply_with_weight="true"
       only_selected="false" />
  </defs>
  <sodipodi:namedview
     id="base"
     pagecolor="#ffffff"
     bordercolor="#666666"
     borderopacity="1.0"
     inkscape:pageopacity="0.0"
     inkscape:pageshadow="2"
     inkscape:zoom="32"
     inkscape:cx="11.461024"
     inkscape:cy="12.847535"
     inkscape:document-units="mm"
     inkscape:current-layer="layer1"
     showgrid="true"
     units="px"
     objecttolerance="20"
     inkscape:window-width="1920"
     inkscape:window-height="1017"
     inkscape:window-x="-8"
     inkscape:window-y="-8"
     inkscape:window-maximized="1">
    <inkscape:grid
       type="xygrid"
       id="grid815"
       originx="3.175"
       originy="3.175"
       spacingx="0.13229167"
       spacingy="0.13229167"
       color="#6900ff"
       opacity="0.1254902"
       empspacing="2"
       dotted="false" />
  </sodipodi:namedview>
  <metadata
     id="metadata5">
    <rdf:RDF>
      <cc:Work
         rdf:about="">
        <dc:format>image/svg+xml</dc:format>
        <dc:type
           rdf:resource="http://purl.org/dc/dcmitype/StillImage" />
        <dc:title></dc:title>
      </cc:Work>
    </rdf:RDF>
  </metadata>
  <g
     inkscape:label="Calque 1"
     inkscape:groupmode="layer"
     id="layer1"
     transform="translate(0,-290.64997)">
    <path
       style="color:#000000;font-style:normal;font-variant:normal;font-weight:normal;font-stretch:normal;font-size:medium;line-height:normal;font-family:sans-serif;font-variant-ligatures:normal;font-variant-position:normal;font-variant-caps:normal;font-variant-numeric:normal;font-variant-alternates:normal;font-feature-settings:normal;text-indent:0;text-align:start;text-decoration:none;text-decoration-line:none;text-decoration-style:solid;text-decoration-color:#000000;letter-spacing:normal;word-spacing:normal;text-transform:none;writing-mode:lr-tb;direction:ltr;text-orientation:mixed;dominant-baseline:auto;baseline-shift:baseline;text-anchor:start;white-space:normal;shape-padding:0;clip-rule:nonzero;display:inline;overflow:visible;visibility:visible;opacity:1;isolation:auto;mix-blend-mode:normal;color-interpolation:sRGB;color-interpolation-filters:linearRGB;solid-color:#000000;solid-opacity:1;vector-effect:none;fill:#000000;fill-opacity:1;fill-rule:evenodd;stroke:none;stroke-width:0.99999994px;stroke-linecap:butt;stroke-linejoin:round;stroke-miterlimit:4;stroke-dasharray:none;stroke-dashoffset:0;stroke-opacity:1;color-rendering:auto;image-rendering:auto;shape-rendering:auto;text-rendering:auto;enable-background:accumulate"
       d="M 21.076172 1.8613281 L 20.736328 2.0761719 C 20.257191 2.3758884 20.123377 2.7842113 19.998047 2.9179688 C 19.935382 2.9848664 19.902164 3.0153782 19.783203 3.0429688 C 19.664246 3.0694254 19.447571 3.0823959 19.097656 3.0117188 L 19.095703 3.0195312 C 19.009852 2.9273 18.914803 2.8388576 18.794922 2.7695312 C 18.467029 2.579799 18.05371 2.4960938 17.501953 2.4960938 C 16.854384 2.4960938 16.320613 2.897311 15.708984 3.4042969 C 15.097356 3.9113205 14.446515 4.5807913 13.796875 5.2871094 C 12.497595 6.6997078 11.211534 8.2846322 10.59375 8.9121094 C 10.222525 9.2893062 9.896564 9.4347698 9.515625 9.5234375 C 9.134686 9.6122564 8.689109 9.6171964 8.15625 9.6640625 C 7.0905325 9.7577948 5.721817 10.069199 4.1484375 11.642578 C 2.5502284 13.240789 2.3503329 14.900429 2.8417969 16.234375 C 3.3332609 17.568359 4.3945297 18.60745 5.1445312 19.357422 C 5.9426329 20.155545 7.1908971 21.086218 8.5996094 21.638672 C 10.008322 22.191125 11.639296 22.352371 13 21.431641 C 14.327865 20.533209 14.755534 19.20951 14.992188 17.990234 C 15.228843 16.770921 15.336114 15.623438 15.855469 14.824219 C 16.884153 13.241164 18.386082 11.619363 19.642578 10.195312 C 20.270826 9.4832495 20.835445 8.8175528 21.259766 8.2167969 C 21.684086 7.6160032 21.998047 7.0918107 21.998047 6.4980469 C 21.998047 6.0594705 21.912689 5.6988132 21.710938 5.4199219 C 21.631078 5.3095124 21.534943 5.2246605 21.435547 5.1523438 C 21.340224 4.799858 21.33734 4.5308122 21.414062 4.2753906 C 21.504578 3.9741623 21.698293 3.6560724 21.931641 3.25 L 22.123047 2.9179688 L 21.076172 1.8613281 z M 17.501953 3.5 C 17.950196 3.5 18.183195 3.5693164 18.292969 3.6328125 C 18.402741 3.6963086 18.433646 3.7446697 18.484375 3.8769531 C 18.486924 3.8836186 18.489744 3.9010531 18.492188 3.9082031 C 18.245241 3.943796 18.058018 4.0019531 17.996094 4.0019531 C 17.688115 4.0019531 17.609735 4.1336473 17.525391 4.2167969 C 17.441047 4.3003244 17.37015 4.3914008 17.294922 4.4960938 C 17.14447 4.7058575 16.979448 4.9810599 16.787109 5.3085938 C 16.402433 5.9636615 15.922603 6.8289269 15.398438 7.7382812 C 14.874271 8.6475978 14.309603 9.5950211 13.751953 10.386719 C 13.194303 11.178416 12.628999 11.819254 12.224609 12.085938 C 11.264041 12.719311 10.642877 12.812502 9.9804688 12.890625 C 9.3180604 12.968861 8.5657492 13.020495 7.7207031 13.583984 C 6.9066968 14.126649 6.112204 14.923782 5.5664062 15.878906 C 5.2507935 16.431238 5.0370193 17.046827 4.953125 17.6875 C 4.4687627 17.134971 4.0155778 16.528033 3.7792969 15.886719 C 3.3957607 14.845686 3.4478189 13.753351 4.8496094 12.351562 C 6.2762302 10.924942 7.2713562 10.745876 8.2460938 10.660156 C 8.7334627 10.617448 9.2221769 10.619748 9.7441406 10.498047 C 10.266104 10.376724 10.80472 10.117168 11.300781 9.6132812 C 12.016052 8.8867427 13.258985 7.3379828 14.527344 5.9589844 C 15.161523 5.2694852 15.802393 4.6270813 16.351562 4.171875 C 16.900732 3.7166309 17.399522 3.5 17.501953 3.5 z M 20.609375 3.6699219 C 20.561352 3.780662 20.491679 3.8665805 20.455078 3.9882812 C 20.38565 4.2194344 20.350118 4.473846 20.355469 4.7460938 C 20.149964 4.6885394 19.967003 4.6236895 19.8125 4.4980469 C 19.692335 4.4002976 19.637774 4.2474165 19.582031 4.0546875 C 19.730946 4.0539937 19.875139 4.0474114 20.005859 4.0175781 C 20.265177 3.9578616 20.44889 3.812788 20.609375 3.6699219 z M 18.75 4.8730469 C 18.791669 4.8730469 18.784568 4.8738339 18.824219 4.9042969 C 18.863885 4.9345331 18.950094 5.0154748 19.052734 5.2207031 L 19.107422 5.1933594 C 19.134529 5.2186967 19.147668 5.2470436 19.177734 5.2714844 C 19.744962 5.7325867 20.366881 5.7749048 20.662109 5.8710938 C 20.809723 5.9190938 20.866531 5.9487251 20.90625 6.0039062 C 20.945969 6.0587094 21.001953 6.186765 21.001953 6.4980469 C 21.001953 6.6541414 20.821859 7.1038821 20.441406 7.6425781 C 20.060953 8.1812364 19.512724 8.8261791 18.890625 9.53125 C 17.646428 10.941354 16.114716 12.59378 15.015625 14.285156 C 14.306232 15.376835 14.232833 16.659565 14.011719 17.798828 C 13.790605 18.938053 13.48231 19.899869 12.439453 20.605469 C 11.429437 21.288883 10.202085 21.192462 8.96875 20.708984 C 7.7946906 20.24824 6.6816744 19.436608 5.9707031 18.753906 C 5.8072142 17.946136 6.0052499 17.131479 6.4375 16.375 C 6.8917025 15.580165 7.5893969 14.875292 8.2753906 14.417969 C 8.930345 13.981358 9.4001365 13.961149 10.097656 13.878906 C 10.795176 13.796513 11.677625 13.645251 12.777344 12.919922 C 13.403097 12.507311 13.975826 11.798582 14.564453 10.962891 C 15.153081 10.127237 15.738733 9.1610785 16.269531 8.2402344 C 16.80033 7.3193903 17.278862 6.443202 17.650391 5.8105469 C 17.836154 5.4942004 17.993357 5.2390073 18.107422 5.0800781 C 18.152205 5.0177159 18.181347 4.9870796 18.203125 4.9628906 C 18.438741 4.9250953 18.689585 4.8730469 18.75 4.8730469 z "
       transform="matrix(0.26458333,0,0,0.26458333,0,290.64997)"
       id="path819" />
  </g>
</svg>
