<?xml version="1.0" encoding="UTF-8" standalone="no"?>
<!-- Created with Inkscape (http://www.inkscape.org/) -->

<svg
   xmlns:dc="http://purl.org/dc/elements/1.1/"
   xmlns:cc="http://creativecommons.org/ns#"
   xmlns:rdf="http://www.w3.org/1999/02/22-rdf-syntax-ns#"
   xmlns:svg="http://www.w3.org/2000/svg"
   xmlns="http://www.w3.org/2000/svg"
   xmlns:sodipodi="http://sodipodi.sourceforge.net/DTD/sodipodi-0.dtd"
   xmlns:inkscape="http://www.inkscape.org/namespaces/inkscape"
   width="24"
   height="24"
   viewBox="0 0 6.3499999 6.3500002"
   version="1.1"
   id="svg8"
   sodipodi:docname="carotte.svg"
   inkscape:version="0.92.4 (5da689c313, 2019-01-14)">
  <defs
     id="defs2">
    <inkscape:path-effect
       effect="bspline"
       id="path-effect4522"
       is_visible="true"
       weight="33.333333"
       steps="2"
       helper_size="0"
       apply_no_weight="true"
       apply_with_weight="true"
       only_selected="false" />
  </defs>
  <sodipodi:namedview
     id="base"
     pagecolor="#ffffff"
     bordercolor="#666666"
     borderopacity="1.0"
     inkscape:pageopacity="0.0"
     inkscape:pageshadow="2"
     inkscape:zoom="32"
     inkscape:cx="11.101748"
     inkscape:cy="9.287596"
     inkscape:document-units="mm"
     inkscape:current-layer="layer1"
     showgrid="true"
     units="px"
     objecttolerance="20"
     inkscape:window-width="1920"
     inkscape:window-height="1017"
     inkscape:window-x="1592"
     inkscape:window-y="126"
     inkscape:window-maximized="1">
    <inkscape:grid
       type="xygrid"
       id="grid815"
       originx="3.175"
       originy="3.175"
       spacingx="0.13229167"
       spacingy="0.13229167"
       color="#6900ff"
       opacity="0.1254902"
       empspacing="2"
       dotted="false" />
  </sodipodi:namedview>
  <metadata
     id="metadata5">
    <rdf:RDF>
      <cc:Work
         rdf:about="">
        <dc:format>image/svg+xml</dc:format>
        <dc:type
           rdf:resource="http://purl.org/dc/dcmitype/StillImage" />
        <dc:title></dc:title>
      </cc:Work>
    </rdf:RDF>
  </metadata>
  <g
     inkscape:label="Calque 1"
     inkscape:groupmode="layer"
     id="layer1"
     transform="translate(0,-290.64997)">
    <path
       style="color:#000000;font-style:normal;font-variant:normal;font-weight:normal;font-stretch:normal;font-size:medium;line-height:normal;font-family:sans-serif;font-variant-ligatures:normal;font-variant-position:normal;font-variant-caps:normal;font-variant-numeric:normal;font-variant-alternates:normal;font-feature-settings:normal;text-indent:0;text-align:start;text-decoration:none;text-decoration-line:none;text-decoration-style:solid;text-decoration-color:#000000;letter-spacing:normal;word-spacing:normal;text-transform:none;writing-mode:lr-tb;direction:ltr;text-orientation:mixed;dominant-baseline:auto;baseline-shift:baseline;text-anchor:start;white-space:normal;shape-padding:0;clip-rule:nonzero;display:inline;overflow:visible;visibility:visible;opacity:1;isolation:auto;mix-blend-mode:normal;color-interpolation:sRGB;color-interpolation-filters:linearRGB;solid-color:#000000;solid-opacity:1;vector-effect:none;fill:#000000;fill-opacity:1;fill-rule:evenodd;stroke:none;stroke-width:0.99999994px;stroke-linecap:butt;stroke-linejoin:miter;stroke-miterlimit:4;stroke-dasharray:none;stroke-dashoffset:0;stroke-opacity:1;color-rendering:auto;image-rendering:auto;shape-rendering:auto;text-rendering:auto;enable-background:accumulate"
       d="M 20.011719 3.4902344 A 0.50004998 0.50004998 0 0 0 19.953125 3.4941406 A 0.50004998 0.50004998 0 0 0 19.525391 3.8398438 L 18.775391 6.1035156 C 17.831805 5.3316347 16.789202 5.0813774 15.796875 5.2578125 C 14.590951 5.4721117 13.479649 6.2250456 12.474609 7.1328125 C 11.46957 8.0405794 10.56726 9.116522 9.8183594 10.0625 C 9.0694596 11.008478 8.4566416 11.838276 8.1503906 12.144531 C 7.321818 12.973079 5.8453631 14.955587 4.5839844 16.847656 C 3.9532954 17.79371 3.384844 18.70858 2.9960938 19.4375 C 2.8017187 19.801846 2.6546396 20.1154 2.5605469 20.390625 C 2.5135004 20.5282 2.4761332 20.651666 2.4648438 20.796875 C 2.4535543 20.942387 2.4570939 21.156135 2.6503906 21.349609 C 2.8436874 21.542743 3.0383574 21.546748 3.1816406 21.542969 C 3.3249236 21.539189 3.4520376 21.514672 3.5957031 21.474609 C 3.8830338 21.398263 4.2218363 21.268932 4.6132812 21.099609 C 5.3961715 20.760586 6.3864539 20.256344 7.4257812 19.689453 C 9.5044352 18.555633 11.747445 17.186519 12.800781 16.396484 C 13.228783 16.075602 14.139195 15.597801 15.162109 15.03125 C 16.185023 14.464737 17.335688 13.79863 18.314453 13.015625 C 19.293218 12.23262 20.122126 11.331735 20.433594 10.232422 C 20.705121 9.2741066 20.513033 8.1976466 19.746094 7.1347656 L 21.753906 5.9296875 A 0.50004998 0.50004998 0 0 0 21.466797 5 A 0.50004998 0.50004998 0 0 0 21.244141 5.0722656 L 19.900391 5.8769531 L 20.476562 4.1582031 A 0.50004998 0.50004998 0 0 0 20.011719 3.4902344 z M 16.634766 6.1972656 C 17.260706 6.2387576 17.873849 6.5477016 18.519531 7.234375 A 0.50004998 0.50004998 0 0 0 18.738281 7.484375 C 19.539323 8.4482013 19.681147 9.2231258 19.472656 9.9589844 C 19.252873 10.734657 18.583735 11.515445 17.6875 12.232422 C 16.791265 12.949398 15.689977 13.593881 14.681641 14.152344 C 13.673305 14.710807 12.775124 15.170633 12.203125 15.599609 C 11.256461 16.309631 8.9936118 17.694377 6.9472656 18.810547 C 5.9240927 19.36867 4.9475785 19.86634 4.2148438 20.183594 C 3.9792242 20.285641 3.8282856 20.330153 3.6542969 20.390625 C 3.7228182 20.236798 3.7671727 20.112172 3.875 19.910156 C 4.236251 19.232789 4.798658 18.329361 5.4179688 17.400391 C 6.6565899 15.54245 8.1801347 13.524949 8.8515625 12.853516 C 8.8910433 12.814034 8.9467699 12.738284 8.9882812 12.693359 L 10.150391 13.849609 A 0.50004998 0.50004998 0 1 0 10.851562 13.148438 L 9.6367188 11.925781 C 9.9223302 11.559857 10.239217 11.138838 10.599609 10.683594 C 10.930902 10.265125 11.300378 9.8222896 11.681641 9.3867188 L 13.648438 11.355469 A 0.50109929 0.50109929 0 1 0 14.357422 10.646484 L 12.357422 8.6464844 C 12.615727 8.3774056 12.877058 8.1144487 13.146484 7.8710938 C 14.078944 7.0288638 15.063346 6.4008643 15.966797 6.2402344 C 16.192659 6.2000769 16.414661 6.1826755 16.634766 6.1972656 z "
       id="path4677"
       transform="matrix(0.26458333,0,0,0.26458333,0,290.64997)" />
  </g>
</svg>
