<?xml version="1.0" encoding="UTF-8" standalone="no"?>
<!-- Created with Inkscape (http://www.inkscape.org/) -->

<svg
   xmlns:dc="http://purl.org/dc/elements/1.1/"
   xmlns:cc="http://creativecommons.org/ns#"
   xmlns:rdf="http://www.w3.org/1999/02/22-rdf-syntax-ns#"
   xmlns:svg="http://www.w3.org/2000/svg"
   xmlns="http://www.w3.org/2000/svg"
   xmlns:sodipodi="http://sodipodi.sourceforge.net/DTD/sodipodi-0.dtd"
   xmlns:inkscape="http://www.inkscape.org/namespaces/inkscape"
   width="24"
   height="24"
   viewBox="0 0 6.3499999 6.3500002"
   version="1.1"
   id="svg8"
   sodipodi:docname="chou.svg"
   inkscape:version="0.92.4 (5da689c313, 2019-01-14)">
  <defs
     id="defs2">
    <inkscape:path-effect
       effect="bspline"
       id="path-effect821"
       is_visible="true"
       weight="33.333333"
       steps="2"
       helper_size="0"
       apply_no_weight="true"
       apply_with_weight="true"
       only_selected="false" />
    <inkscape:path-effect
       effect="bspline"
       id="path-effect4522"
       is_visible="true"
       weight="33.333333"
       steps="2"
       helper_size="0"
       apply_no_weight="true"
       apply_with_weight="true"
       only_selected="false" />
  </defs>
  <sodipodi:namedview
     id="base"
     pagecolor="#ffffff"
     bordercolor="#666666"
     borderopacity="1.0"
     inkscape:pageopacity="0.0"
     inkscape:pageshadow="2"
     inkscape:zoom="32"
     inkscape:cx="11.461024"
     inkscape:cy="11.280238"
     inkscape:document-units="mm"
     inkscape:current-layer="layer1"
     showgrid="true"
     units="px"
     objecttolerance="20"
     inkscape:window-width="1920"
     inkscape:window-height="1017"
     inkscape:window-x="-8"
     inkscape:window-y="-8"
     inkscape:window-maximized="1">
    <inkscape:grid
       type="xygrid"
       id="grid815"
       originx="3.175"
       originy="3.175"
       spacingx="0.13229167"
       spacingy="0.13229167"
       color="#6900ff"
       opacity="0.1254902"
       empspacing="2"
       dotted="false" />
  </sodipodi:namedview>
  <metadata
     id="metadata5">
    <rdf:RDF>
      <cc:Work
         rdf:about="">
        <dc:format>image/svg+xml</dc:format>
        <dc:type
           rdf:resource="http://purl.org/dc/dcmitype/StillImage" />
        <dc:title></dc:title>
      </cc:Work>
    </rdf:RDF>
  </metadata>
  <g
     inkscape:label="Calque 1"
     inkscape:groupmode="layer"
     id="layer1"
     transform="translate(0,-290.64997)">
    <path
       style="color:#000000;font-style:normal;font-variant:normal;font-weight:normal;font-stretch:normal;font-size:medium;line-height:normal;font-family:sans-serif;font-variant-ligatures:normal;font-variant-position:normal;font-variant-caps:normal;font-variant-numeric:normal;font-variant-alternates:normal;font-feature-settings:normal;text-indent:0;text-align:start;text-decoration:none;text-decoration-line:none;text-decoration-style:solid;text-decoration-color:#000000;letter-spacing:normal;word-spacing:normal;text-transform:none;writing-mode:lr-tb;direction:ltr;text-orientation:mixed;dominant-baseline:auto;baseline-shift:baseline;text-anchor:start;white-space:normal;shape-padding:0;clip-rule:nonzero;display:inline;overflow:visible;visibility:visible;opacity:1;isolation:auto;mix-blend-mode:normal;color-interpolation:sRGB;color-interpolation-filters:linearRGB;solid-color:#000000;solid-opacity:1;vector-effect:none;fill:#000000;fill-opacity:1;fill-rule:evenodd;stroke:none;stroke-width:0.99999994px;stroke-linecap:butt;stroke-linejoin:round;stroke-miterlimit:4;stroke-dasharray:none;stroke-dashoffset:0;stroke-opacity:1;color-rendering:auto;image-rendering:auto;shape-rendering:auto;text-rendering:auto;enable-background:accumulate"
       d="M 12.041016 3.4941406 C 11.61445 3.5159266 11.166668 3.6653001 10.703125 3.9296875 C 10.22116 4.2046706 9.6907971 4.6522884 9.1191406 5.2011719 C 8.9417438 5.089055 8.7641984 5 8.4960938 5 C 7.8294293 5 7.1525955 5.2939289 6.5332031 5.7070312 C 6.0269201 6.0445413 5.5713409 6.4658716 5.25 6.9453125 C 5.1830064 6.9416282 5.1153778 6.9315818 5.0488281 6.9335938 C 4.4724933 6.9524914 3.9146858 7.2494705 3.5878906 7.78125 C 1.9663717 10.420078 1.9663386 14.081264 3.5722656 16.757812 C 4.3474857 18.049844 5.3737155 19.340105 6.5546875 20.324219 C 7.7356595 21.30837 9.0794263 22 10.496094 22 A 0.50004998 0.50004998 0 0 0 10.503906 22 C 11.286072 21.988819 11.96638 21.796993 12.546875 21.498047 A 0.50192028 0.50192028 0 0 0 12.748047 21.433594 C 13.897683 22.267078 15.432062 22.378598 16.904297 21.910156 C 18.397296 21.435107 19.851662 20.364089 20.912109 18.773438 C 22.033005 17.092077 22.005657 14.854543 21.613281 13.023438 C 21.417094 12.107923 21.127966 11.291995 20.802734 10.675781 C 20.64012 10.36775 20.470466 10.106413 20.277344 9.9003906 C 20.084221 9.6944064 19.858069 9.5019909 19.503906 9.5019531 C 19.403994 9.5019531 19.316599 9.5212787 19.234375 9.546875 C 19.06306 8.9592432 18.88298 8.3274216 18.662109 7.7089844 C 18.337433 6.7998946 17.990983 5.9368856 17.222656 5.5527344 C 16.808679 5.3456163 16.365817 5.3767808 15.908203 5.4648438 C 15.594102 5.5252891 15.259781 5.6279934 14.917969 5.7441406 L 14.925781 5.7382812 C 14.242343 4.6434655 13.560284 3.6843053 12.460938 3.515625 C 12.323519 3.4945541 12.183204 3.4868786 12.041016 3.4941406 z M 12.083984 4.4941406 C 12.162795 4.4902194 12.2347 4.4931346 12.304688 4.5039062 C 12.831221 4.5845888 13.360483 5.1568444 13.964844 6.09375 C 13.08563 6.4369989 12.174098 6.8114853 11.386719 7.0097656 C 11.05416 6.7074313 10.720606 6.4060164 10.423828 6.1582031 C 10.24481 6.0086858 10.105652 5.9172636 9.9433594 5.7929688 C 10.417433 5.3540054 10.851666 4.9990561 11.199219 4.8007812 C 11.565172 4.5921513 11.847553 4.5059044 12.083984 4.4941406 z M 8.4960938 6.0039062 C 8.3502607 6.0039062 8.5879325 6.0417392 8.8359375 6.203125 C 9.0839425 6.3664006 9.4112516 6.6168049 9.78125 6.9257812 C 10.521247 7.543734 11.437815 8.3889802 12.335938 9.2871094 C 13.23406 10.185239 14.118119 11.13212 14.800781 11.9375 C 15.299794 12.526245 15.624297 13.001211 15.822266 13.324219 C 15.125492 14.01511 14.348416 14.606037 13.484375 14.875 C 12.739893 13.806783 11.899261 12.644539 10.394531 10.697266 C 9.2982169 9.2785822 8.0239718 8.0936649 6.8203125 7.4433594 C 6.6539837 7.3535276 6.4890874 7.2740477 6.3242188 7.2050781 C 6.5363379 6.9686299 6.7965867 6.7339084 7.0859375 6.5410156 C 7.5915453 6.2038818 8.1627583 6.0039062 8.4960938 6.0039062 z M 16.537109 6.4042969 C 16.653625 6.4074622 16.736286 6.4237692 16.779297 6.4453125 C 17.010971 6.560966 17.416472 7.2001085 17.716797 8.0410156 C 17.966518 8.7402315 18.181095 9.5248222 18.396484 10.226562 C 18.320522 10.313267 18.244697 10.378599 18.166016 10.476562 C 17.766836 10.973495 17.31939 11.607417 16.800781 12.248047 C 16.71971 12.348196 16.625352 12.441689 16.541016 12.541016 C 16.289029 12.171673 15.961424 11.767868 15.560547 11.294922 C 14.852584 10.459684 13.957346 9.5002808 13.042969 8.5859375 C 12.769992 8.31296 12.501778 8.0606887 12.230469 7.8007812 C 13.110303 7.5227564 14.00709 7.1413606 14.800781 6.84375 C 15.290093 6.6604429 15.736911 6.5136086 16.091797 6.4453125 C 16.26924 6.4111078 16.420594 6.4011315 16.537109 6.4042969 z M 5.0859375 7.9375 C 5.3938254 7.9299409 5.8362718 8.0472038 6.3417969 8.3203125 C 7.352847 8.8665676 8.5748295 9.9715848 9.6035156 11.302734 C 11.724297 14.047276 12.585588 15.286598 13.582031 16.78125 C 13.935255 17.311102 13.953865 18.385317 13.449219 19.304688 C 13.216071 19.729448 12.884931 20.11517 12.451172 20.414062 C 9.8410002 19.135177 8.4076311 17.672737 7.5292969 16.048828 C 6.6210537 14.36966 6.3004218 12.484036 5.9941406 10.425781 A 0.50083744 0.50083744 0 0 0 5.5136719 9.9902344 A 0.50083744 0.50083744 0 0 0 5.0058594 10.572266 C 5.3135923 12.640234 5.6403338 14.66187 6.6503906 16.529297 C 7.5333724 18.161749 8.9398237 19.64879 11.236328 20.917969 C 11.004944 20.964731 10.761801 20.99957 10.496094 21.003906 C 9.4127606 21.003906 8.2662937 20.447475 7.1972656 19.556641 C 6.1282376 18.665768 5.1544675 17.450125 4.4296875 16.242188 C 3.0356133 13.918723 3.0356852 10.584751 4.4355469 8.3066406 C 4.6061359 8.0288453 4.7780496 7.9469488 5.0859375 7.9375 z M 19.503906 10.498047 C 19.55946 10.498047 19.535234 10.508665 19.488281 10.537109 C 19.506249 10.550516 19.517119 10.555902 19.546875 10.587891 C 19.646723 10.694473 19.781755 10.886301 19.916016 11.140625 C 20.184536 11.649387 20.461813 12.396025 20.640625 13.230469 C 20.998248 14.899395 20.965042 16.902064 20.085938 18.220703 C 19.146385 19.630051 17.858564 20.559035 16.601562 20.958984 C 15.468447 21.319516 14.386465 21.246883 13.564453 20.765625 C 13.869354 20.46763 14.126816 20.137663 14.320312 19.785156 C 14.371136 19.692565 14.413117 19.596754 14.457031 19.501953 A 0.50084304 0.50084304 0 0 0 14.748047 19.4375 C 16.338094 18.533475 17.393568 17.884451 18.136719 16.951172 C 18.87987 16.017855 19.24124 14.852372 19.496094 13.068359 A 0.50004998 0.50004998 0 0 0 18.964844 12.492188 A 0.50004998 0.50004998 0 0 0 18.505859 12.927734 C 18.260712 14.643791 17.946199 15.580382 17.355469 16.322266 C 16.843967 16.964647 16.045563 17.517659 14.826172 18.232422 C 14.915712 17.499531 14.793413 16.784825 14.416016 16.21875 C 14.30815 16.056944 14.181148 15.884878 14.074219 15.726562 C 15.541668 15.174444 16.682842 13.978529 17.576172 12.875 C 18.120063 12.203151 18.574961 11.559705 18.941406 11.103516 C 19.12463 10.875232 19.289671 10.697826 19.40625 10.595703 C 19.44511 10.561687 19.464805 10.551332 19.488281 10.537109 C 19.445959 10.505529 19.430785 10.498047 19.503906 10.498047 z "
       transform="matrix(0.26458333,0,0,0.26458333,0,290.64997)"
       id="path819" />
  </g>
</svg>
