<?xml version="1.0" encoding="UTF-8" standalone="no"?>
<!-- Created with Inkscape (http://www.inkscape.org/) -->

<svg
   xmlns:dc="http://purl.org/dc/elements/1.1/"
   xmlns:cc="http://creativecommons.org/ns#"
   xmlns:rdf="http://www.w3.org/1999/02/22-rdf-syntax-ns#"
   xmlns:svg="http://www.w3.org/2000/svg"
   xmlns="http://www.w3.org/2000/svg"
   xmlns:sodipodi="http://sodipodi.sourceforge.net/DTD/sodipodi-0.dtd"
   xmlns:inkscape="http://www.inkscape.org/namespaces/inkscape"
   width="24"
   height="24"
   viewBox="0 0 6.3499999 6.3500002"
   version="1.1"
   id="svg8"
   sodipodi:docname="chou-fleur.svg"
   inkscape:version="0.92.4 (5da689c313, 2019-01-14)">
  <defs
     id="defs2">
    <inkscape:path-effect
       effect="bspline"
       id="path-effect4522"
       is_visible="true"
       weight="33.333333"
       steps="2"
       helper_size="0"
       apply_no_weight="true"
       apply_with_weight="true"
       only_selected="false" />
  </defs>
  <sodipodi:namedview
     id="base"
     pagecolor="#ffffff"
     bordercolor="#666666"
     borderopacity="1.0"
     inkscape:pageopacity="0.0"
     inkscape:pageshadow="2"
     inkscape:zoom="22.627417"
     inkscape:cx="3.2028036"
     inkscape:cy="13.358547"
     inkscape:document-units="mm"
     inkscape:current-layer="layer1"
     showgrid="true"
     units="px"
     objecttolerance="20"
     inkscape:window-width="1920"
     inkscape:window-height="1017"
     inkscape:window-x="1592"
     inkscape:window-y="126"
     inkscape:window-maximized="1">
    <inkscape:grid
       type="xygrid"
       id="grid815"
       originx="3.175"
       originy="3.175"
       spacingx="0.13229167"
       spacingy="0.13229167"
       color="#6900ff"
       opacity="0.1254902"
       empspacing="2"
       dotted="false" />
  </sodipodi:namedview>
  <metadata
     id="metadata5">
    <rdf:RDF>
      <cc:Work
         rdf:about="">
        <dc:format>image/svg+xml</dc:format>
        <dc:type
           rdf:resource="http://purl.org/dc/dcmitype/StillImage" />
        <dc:title></dc:title>
      </cc:Work>
    </rdf:RDF>
  </metadata>
  <g
     inkscape:label="Calque 1"
     inkscape:groupmode="layer"
     id="layer1"
     transform="translate(0,-290.64997)">
    <path
       style="color:#000000;font-style:normal;font-variant:normal;font-weight:normal;font-stretch:normal;font-size:medium;line-height:normal;font-family:sans-serif;font-variant-ligatures:normal;font-variant-position:normal;font-variant-caps:normal;font-variant-numeric:normal;font-variant-alternates:normal;font-feature-settings:normal;text-indent:0;text-align:start;text-decoration:none;text-decoration-line:none;text-decoration-style:solid;text-decoration-color:#000000;letter-spacing:normal;word-spacing:normal;text-transform:none;writing-mode:lr-tb;direction:ltr;text-orientation:mixed;dominant-baseline:auto;baseline-shift:baseline;text-anchor:start;white-space:normal;shape-padding:0;clip-rule:nonzero;display:inline;overflow:visible;visibility:visible;opacity:1;isolation:auto;mix-blend-mode:normal;color-interpolation:sRGB;color-interpolation-filters:linearRGB;solid-color:#000000;solid-opacity:1;vector-effect:none;fill:#000000;fill-opacity:1;fill-rule:evenodd;stroke:none;stroke-width:0.99999994px;stroke-linecap:round;stroke-linejoin:round;stroke-miterlimit:4;stroke-dasharray:none;stroke-dashoffset:0;stroke-opacity:1;color-rendering:auto;image-rendering:auto;shape-rendering:auto;text-rendering:auto;enable-background:accumulate"
       d="M 11.433594 3.1230469 L 11.433594 3.125 C 10.519577 3.125 9.6270396 3.6931653 8.9765625 4.5332031 C 8.4141114 4.2811086 7.6678433 3.9891447 6.8574219 4.3574219 C 6.0262856 4.7353746 5.4537342 5.8771241 5.1523438 7.6484375 C 4.8955551 7.7270517 4.6251284 7.7846236 4.4296875 7.9667969 C 4.1409694 8.2355213 3.9132995 8.5848778 3.734375 8.9785156 C 3.4208519 9.6682794 3.380828 10.518109 3.5507812 11.326172 C 3.1858796 11.575243 2.8403168 11.855133 2.6582031 12.277344 C 2.4178256 12.834597 2.2923758 13.483789 2.3027344 14.115234 C 2.3130941 14.746642 2.4496869 15.36888 2.8203125 15.857422 C 2.8503713 15.897047 2.8939142 15.926036 2.9277344 15.962891 L 1.8671875 15.703125 L 2.5839844 16.78125 C 3.629079 18.348895 4.7658033 19.579932 6.2167969 20.460938 A 0.50004998 0.50004998 0 0 0 6.2792969 20.494141 A 0.50004998 0.50004998 0 0 0 6.2832031 20.496094 C 7.6595148 21.316686 9.3146123 21.829414 11.457031 22 L 12.814453 22.103516 L 12.710938 22 L 13 22 C 14.483333 22 16.47531 21.074391 18.277344 19.851562 C 19.922429 18.735279 21.185565 17.372429 21.666016 15.96875 C 21.680453 15.961191 21.680761 15.967363 21.695312 15.960938 L 21.679688 15.953125 C 21.722846 15.824999 21.964352 15.728869 21.990234 15.599609 L 22.175781 14.669922 L 21.537109 14.939453 C 21.730041 14.28705 21.682786 13.488514 21.488281 12.564453 C 21.88425 11.827218 22.302856 10.984224 22.175781 10.121094 C 22.107625 9.6581772 21.839376 9.1961787 21.378906 8.9121094 C 21.039988 8.7031015 20.517634 8.6611545 19.998047 8.609375 C 20.384953 7.8883545 20.80025 7.1143478 20.425781 6.4902344 C 19.977567 5.7432108 18.919305 5.5109705 17.746094 5.6191406 C 17.583328 4.8368162 17.235521 4.0571989 16.476562 3.6777344 C 15.696511 3.2876871 14.650944 3.5057712 13.664062 4.0390625 C 13.451135 3.795283 13.242972 3.5471141 12.925781 3.4121094 C 12.488527 3.2261566 11.96901 3.1230469 11.433594 3.1230469 z M 11.433594 4.1289062 C 11.835677 4.1289062 12.238035 4.2073702 12.535156 4.3339844 C 12.832276 4.4605985 13.007772 4.6407294 13.050781 4.7265625 A 0.50004998 0.50004998 0 0 0 13.796875 4.9023438 C 14.668875 4.2483343 15.4344 4.274829 16.025391 4.5703125 C 16.616381 4.8658716 17 5.476133 17 6.0039062 A 0.50004998 0.50004998 0 0 0 17.597656 6.4902344 C 18.709371 6.2679982 19.32646 6.6014377 19.570312 7.0078125 C 19.814164 7.4142251 19.780591 8.0143206 19.148438 8.6464844 A 0.50004998 0.50004998 0 0 0 19.503906 9.5019531 C 20.197735 9.5019531 20.624449 9.6262238 20.853516 9.7675781 C 21.082581 9.9089325 21.152075 10.042344 21.185547 10.269531 C 21.25249 10.724208 20.947347 11.549239 20.558594 12.255859 A 0.50004998 0.50004998 0 0 0 20.513672 12.609375 C 20.754738 13.646591 20.720745 14.386912 20.537109 14.808594 C 20.35347 15.230276 20.066862 15.43236 19.443359 15.503906 A 0.50134042 0.50134042 0 0 0 19.056641 15.769531 C 18.646001 15.849494 18.2956 15.888683 17.990234 15.910156 C 17.264102 15.96118 16.581485 15.989667 15.716797 16.587891 C 14.847422 17.189213 14.402654 17.924841 14.025391 18.685547 C 13.64813 19.446252 13.315453 20.251251 12.601562 21.203125 L 12.306641 21.595703 L 11.855469 21.142578 C 11.483159 20.770295 11.200699 20.020617 10.873047 19.164062 C 10.545396 18.307546 10.147144 17.345869 9.3300781 16.625 C 8.4460013 15.844981 7.2714688 15.872448 6.171875 15.96875 C 5.7794293 16.003147 5.3979297 16.037356 5.0175781 16.068359 A 0.50004998 0.50004998 0 0 0 4.40625 15.511719 C 3.9650106 15.59638 3.7952957 15.487796 3.6171875 15.251953 C 3.4390792 15.017244 3.314637 14.58897 3.3066406 14.101562 C 3.2986431 13.614117 3.3980865 13.079586 3.5722656 12.675781 C 3.7464448 12.271977 3.9867941 12.031076 4.15625 11.974609 A 0.50004998 0.50004998 0 0 0 4.4726562 11.339844 C 4.2753574 10.747932 4.375426 9.9783415 4.6425781 9.390625 C 4.7761542 9.0965778 4.9508287 8.858149 5.1152344 8.7050781 C 5.27964 8.5520073 5.4166633 8.4980469 5.5 8.4980469 A 0.50004998 0.50004998 0 0 0 5.9941406 8.0625 C 6.2336455 6.1464685 6.8001471 5.4798486 7.2714844 5.265625 C 7.7428221 5.0513258 8.3369781 5.2307621 8.7773438 5.4492188 A 0.50004998 0.50004998 0 0 0 9.4492188 5.2207031 C 9.8523235 4.4144921 10.629427 4.1289062 11.433594 4.1289062 z M 10.746094 6.9863281 C 10.581273 6.9992258 10.418832 7.0455655 10.275391 7.1171875 C 9.8097702 7.3500064 9.5273601 7.9165832 9.2636719 8.5195312 C 8.7416964 8.5384289 8.1701627 8.5120098 7.6328125 8.71875 C 7.3313574 8.8355374 7.0159545 9.0854659 6.9023438 9.4570312 C 6.8284086 9.698921 6.9298111 9.9814023 6.9902344 10.253906 C 6.7410766 10.396016 6.4738042 10.530782 6.3183594 10.720703 C 6.0912324 10.99812 5.9848806 11.337786 5.9863281 11.650391 C 5.9887319 12.16845 6.2489634 12.568787 6.4667969 12.964844 C 6.2248693 13.335237 6.005635 13.678008 5.9492188 13.990234 C 5.8786965 14.380508 6.0374749 14.808231 6.3046875 15.023438 C 6.5719001 15.238493 6.8636285 15.308478 7.1386719 15.363281 C 7.4137157 15.418462 7.6809624 15.444817 7.8984375 15.488281 A 0.50091704 0.50091704 0 1 0 8.0976562 14.505859 C 7.8225596 14.450678 7.5556141 14.424324 7.3378906 14.380859 C 7.1201672 14.337395 6.9616115 14.264423 6.9316406 14.240234 C 6.901669 14.217557 6.9079808 14.29874 6.9316406 14.167969 C 6.9553005 14.037197 7.0859888 13.730133 7.4042969 13.289062 A 0.50004998 0.50004998 0 0 0 7.4414062 12.757812 C 7.1881325 12.294518 6.991307 11.873734 6.9902344 11.642578 C 6.9896981 11.526925 7.0055963 11.463185 7.09375 11.355469 C 7.1819188 11.247752 7.367753 11.096697 7.6992188 10.955078 A 0.50004998 0.50004998 0 0 0 7.9648438 10.314453 C 7.8309804 9.9724059 7.8393537 9.7982523 7.8535156 9.7519531 C 7.8676889 9.7054649 7.8684751 9.6971934 7.9941406 9.6484375 C 8.2454452 9.5513036 8.8957288 9.5457956 9.5371094 9.5019531 A 0.50004998 0.50004998 0 0 0 9.9726562 9.1542969 C 10.196306 8.4833173 10.550329 8.0979042 10.726562 8.0097656 C 10.814678 7.9655452 10.829471 7.9769427 10.859375 7.9882812 C 10.889271 7.9996198 10.963047 8.0492393 11.050781 8.2246094 A 0.50014629 0.50014629 0 0 0 11.943359 7.7734375 C 11.781093 7.4487761 11.548221 7.1850312 11.234375 7.0566406 L 11.234375 7.0585938 C 11.077453 6.9943418 10.910914 6.9734305 10.746094 6.9863281 z M 12.316406 9.3886719 C 12.039421 9.3614061 11.766112 9.4302777 11.53125 9.5527344 C 10.904951 9.8796635 10.425386 10.530598 10.054688 11.28125 A 0.50004998 0.50004998 0 1 0 10.947266 11.724609 C 11.256333 11.098795 11.698121 10.598711 11.988281 10.447266 C 12.133362 10.371675 12.203435 10.368262 12.261719 10.388672 C 12.319999 10.40757 12.43093 10.479003 12.556641 10.726562 A 0.50004998 0.50004998 0 0 0 13.308594 10.896484 C 13.580765 10.684075 13.979481 10.492124 14.158203 10.490234 C 14.247562 10.489289 14.26916 10.4956 14.320312 10.550781 C 14.371461 10.605206 14.460267 10.756474 14.505859 11.074219 A 0.50004998 0.50004998 0 0 0 15.007812 11.501953 C 15.421516 11.494394 15.907296 11.531456 16.070312 11.619141 C 16.151822 11.663361 16.152205 11.664327 16.166016 11.730469 C 16.179811 11.79661 16.178602 11.981008 16.041016 12.298828 A 0.50004998 0.50004998 0 0 0 16.402344 12.986328 C 16.761792 13.060029 17.154078 13.388383 17.244141 13.591797 C 17.28917 13.693466 17.284382 13.721846 17.259766 13.767578 C 17.235123 13.812932 17.144634 13.927564 16.845703 14.027344 A 0.50004998 0.50004998 0 1 0 17.15625 14.972656 C 17.60732 14.822231 17.95893 14.583075 18.144531 14.240234 C 18.330133 13.897431 18.296926 13.502336 18.160156 13.193359 C 17.959531 12.740194 17.473049 12.536793 17.015625 12.328125 C 17.092803 12.053353 17.199582 11.775937 17.148438 11.53125 C 17.073641 11.173329 16.819786 10.88785 16.550781 10.742188 C 16.132474 10.515794 15.721073 10.547758 15.339844 10.550781 C 15.262174 10.303222 15.209136 10.031584 15.050781 9.8632812 C 14.805823 9.6028718 14.454046 9.4830777 14.150391 9.4863281 C 13.711411 9.4901077 13.408067 9.735522 13.095703 9.9375 C 12.936766 9.7568386 12.809575 9.5248093 12.59375 9.4492188 L 12.59375 9.4511719 C 12.502349 9.4191404 12.408735 9.3977605 12.316406 9.3886719 z M 12.083984 13.828125 C 11.702456 13.778235 11.284606 13.847314 10.814453 14.035156 A 0.50034852 0.50034852 0 1 0 11.183594 14.964844 C 11.545998 14.821222 11.795667 14.795241 11.958984 14.816406 C 12.122302 14.839083 12.219645 14.897892 12.335938 15.009766 C 12.568526 15.233136 12.781114 15.720624 13.058594 16.234375 A 0.50004998 0.50004998 0 1 0 13.9375 15.761719 C 13.702931 15.327413 13.502417 14.739682 13.029297 14.285156 C 12.792736 14.058007 12.465511 13.878015 12.083984 13.828125 z M 20.130859 16.369141 C 19.595902 17.192043 19.007634 18.076581 17.894531 18.884766 C 17.851252 18.797474 17.796172 18.714085 17.730469 18.648438 C 17.487615 18.405414 17.220703 18.300986 16.720703 18.050781 A 0.50004998 0.50004998 0 0 0 16.431641 17.998047 A 0.50004998 0.50004998 0 0 0 16.277344 18.943359 C 16.757999 19.183737 16.968108 19.324411 16.992188 19.341797 C 16.993377 19.36032 16.996273 19.406949 16.998047 19.451172 C 15.970709 20.016357 14.995961 20.30587 14.121094 20.53125 C 14.377002 20.057184 14.738593 19.50633 14.925781 19.128906 C 15.282138 18.410342 15.589009 17.889715 16.285156 17.408203 C 16.98599 16.923441 17.299153 16.959504 18.056641 16.90625 C 18.48471 16.876273 19.398707 16.556368 20.111328 16.373047 C 20.117519 16.371029 20.124694 16.371201 20.130859 16.369141 z M 7.0019531 16.925781 C 7.7005947 16.918656 8.2652177 17.025199 8.6660156 17.378906 C 9.2674235 17.909514 9.6256296 18.688942 9.9433594 19.519531 C 10.107221 19.947903 10.372666 20.311406 10.564453 20.722656 C 9.2618127 20.526346 8.1793252 20.170812 7.234375 19.673828 C 7.2738446 19.601125 7.3599564 19.411345 7.3886719 19.378906 C 7.4706763 19.286308 7.6321957 19.186589 8.1855469 18.964844 A 0.50004998 0.50004998 0 0 0 7.9433594 17.998047 A 0.50004998 0.50004998 0 0 0 7.8183594 18.037109 C 7.2416061 18.268416 6.8971879 18.420683 6.6367188 18.714844 C 6.5152194 18.852006 6.435459 18.989898 6.3574219 19.144531 C 5.5250428 18.565981 4.8010785 17.851763 4.140625 16.980469 C 4.8633236 16.980318 5.6044341 17.022671 6.2597656 16.964844 C 6.5212126 16.941978 6.7690726 16.928156 7.0019531 16.925781 z "
       transform="matrix(0.26458333,0,0,0.26458333,0,290.64997)"
       id="path5215" />
  </g>
</svg>
