<?xml version="1.0" encoding="UTF-8" standalone="no"?>
<!-- Created with Inkscape (http://www.inkscape.org/) -->

<svg
   xmlns:dc="http://purl.org/dc/elements/1.1/"
   xmlns:cc="http://creativecommons.org/ns#"
   xmlns:rdf="http://www.w3.org/1999/02/22-rdf-syntax-ns#"
   xmlns:svg="http://www.w3.org/2000/svg"
   xmlns="http://www.w3.org/2000/svg"
   xmlns:sodipodi="http://sodipodi.sourceforge.net/DTD/sodipodi-0.dtd"
   xmlns:inkscape="http://www.inkscape.org/namespaces/inkscape"
   width="24"
   height="24"
   viewBox="0 0 6.3499999 6.3500002"
   version="1.1"
   id="svg8"
   sodipodi:docname="chou.svg"
   inkscape:version="0.92.4 (5da689c313, 2019-01-14)">
  <defs
     id="defs2">
    <inkscape:path-effect
       effect="bspline"
       id="path-effect4522"
       is_visible="true"
       weight="33.333333"
       steps="2"
       helper_size="0"
       apply_no_weight="true"
       apply_with_weight="true"
       only_selected="false" />
  </defs>
  <sodipodi:namedview
     id="base"
     pagecolor="#ffffff"
     bordercolor="#666666"
     borderopacity="1.0"
     inkscape:pageopacity="0.0"
     inkscape:pageshadow="2"
     inkscape:zoom="22.627417"
     inkscape:cx="0.98213444"
     inkscape:cy="9.7319755"
     inkscape:document-units="mm"
     inkscape:current-layer="layer1"
     showgrid="true"
     units="px"
     objecttolerance="20"
     inkscape:window-width="1920"
     inkscape:window-height="1017"
     inkscape:window-x="1592"
     inkscape:window-y="126"
     inkscape:window-maximized="1">
    <inkscape:grid
       type="xygrid"
       id="grid815"
       originx="3.175"
       originy="3.175"
       spacingx="0.13229167"
       spacingy="0.13229167"
       color="#6900ff"
       opacity="0.1254902"
       empspacing="2"
       dotted="false" />
  </sodipodi:namedview>
  <metadata
     id="metadata5">
    <rdf:RDF>
      <cc:Work
         rdf:about="">
        <dc:format>image/svg+xml</dc:format>
        <dc:type
           rdf:resource="http://purl.org/dc/dcmitype/StillImage" />
        <dc:title></dc:title>
      </cc:Work>
    </rdf:RDF>
  </metadata>
  <g
     inkscape:label="Calque 1"
     inkscape:groupmode="layer"
     id="layer1"
     transform="translate(0,-290.64997)">
    <path
       style="color:#000000;font-style:normal;font-variant:normal;font-weight:normal;font-stretch:normal;font-size:medium;line-height:normal;font-family:sans-serif;font-variant-ligatures:normal;font-variant-position:normal;font-variant-caps:normal;font-variant-numeric:normal;font-variant-alternates:normal;font-feature-settings:normal;text-indent:0;text-align:start;text-decoration:none;text-decoration-line:none;text-decoration-style:solid;text-decoration-color:#000000;letter-spacing:normal;word-spacing:normal;text-transform:none;writing-mode:lr-tb;direction:ltr;text-orientation:mixed;dominant-baseline:auto;baseline-shift:baseline;text-anchor:start;white-space:normal;shape-padding:0;clip-rule:nonzero;display:inline;overflow:visible;visibility:visible;opacity:1;isolation:auto;mix-blend-mode:normal;color-interpolation:sRGB;color-interpolation-filters:linearRGB;solid-color:#000000;solid-opacity:1;vector-effect:none;fill:#000000;fill-opacity:1;fill-rule:evenodd;stroke:none;stroke-width:0.99999994px;stroke-linecap:round;stroke-linejoin:round;stroke-miterlimit:4;stroke-dasharray:none;stroke-dashoffset:0;stroke-opacity:1;color-rendering:auto;image-rendering:auto;shape-rendering:auto;text-rendering:auto;enable-background:accumulate"
       d="M 8.984375 1.9980469 A 0.50004998 0.50004998 0 0 0 8.9316406 2.0019531 A 0.50004998 0.50004998 0 0 0 8.5625 2.2539062 C 7.584127 3.96607 6.7514006 4.9126501 5.9570312 5.7070312 C 5.1626619 6.5013746 4.3875625 7.1551376 3.6015625 8.203125 C 1.9335568 10.427112 1.96912 14.132752 4.1113281 16.810547 C 4.8948057 17.78986 5.9532279 18.34513 6.9980469 18.914062 A 0.50004998 0.50004998 0 0 0 6.9902344 18.992188 L 6.5839844 18.722656 L 5.359375 20.560547 L 5.6464844 20.855469 C 7.3299986 22.538946 9.5812115 22.147488 10.578125 21.992188 L 10.880859 21.947266 L 11.392578 20.400391 C 11.915712 20.4607 12.449312 20.501953 13 20.501953 C 14.869048 20.501953 16.822339 19.842417 18.402344 18.789062 C 19.917343 17.779082 21.103091 16.388386 21.447266 14.785156 A 0.50004998 0.50004998 0 0 0 21.515625 14.388672 C 21.958461 11.352764 20.779048 9.5400471 20.492188 7.4355469 C 20.33553 6.2862303 20.219017 5.5412673 20.197266 4.9394531 C 20.175533 4.337639 20.240051 3.8716401 20.476562 3.1621094 A 0.50004998 0.50004998 0 0 0 20.226562 2.5566406 C 19.447678 2.1671981 18.623394 2.5301781 18.09375 2.9921875 C 17.828926 3.2234946 17.61207 3.489675 17.488281 3.796875 C 17.465968 3.8522632 17.451496 3.9156795 17.4375 3.9785156 C 16.593389 3.5004873 15.539441 3.2016941 14.453125 3.0585938 C 13.094766 2.8795899 11.709368 2.9371829 10.642578 3.3808594 C 10.5369 3.2919684 10.424389 3.2163455 10.320312 3.1757812 C 10.083506 3.0835608 9.8900996 3.0680381 9.765625 3.0351562 C 9.64115 3.0011405 9.6159225 2.9805255 9.5898438 2.9472656 C 9.563765 2.9132499 9.5 2.8042764 9.5 2.4960938 A 0.50004998 0.50004998 0 0 0 8.984375 1.9980469 z M 19.414062 3.5527344 C 19.310341 4.029295 19.176423 4.5079389 19.193359 4.9765625 C 19.21872 5.6783074 19.34901 6.4320066 19.503906 7.5683594 C 19.808679 9.8042828 20.793904 11.339711 20.572266 13.798828 C 20.24862 13.625058 20.126242 13.428273 20.019531 13.177734 C 19.865523 12.816034 19.817819 12.254155 19.400391 11.701172 A 0.50004998 0.50004998 0 0 0 18.964844 11.496094 A 0.50004998 0.50004998 0 0 0 18.601562 12.300781 C 18.81974 12.589915 18.863747 13.021109 19.097656 13.570312 C 19.29253 14.027866 19.703922 14.491138 20.414062 14.802734 C 20.078991 15.976718 19.130272 17.107167 17.849609 17.960938 C 17.466811 18.216145 17.054115 18.440012 16.626953 18.638672 C 16.806845 18.039941 16.967584 17.34207 17.015625 16.574219 C 17.078051 15.576423 16.979717 14.520373 16.410156 13.708984 A 0.50004998 0.50004998 0 0 0 15.929688 13.496094 A 0.50004998 0.50004998 0 0 0 15.589844 14.285156 C 15.942814 14.787985 16.074298 15.640249 16.019531 16.515625 C 15.964766 17.391001 15.737341 18.284263 15.53125 18.826172 A 0.50111293 0.50111293 0 0 0 15.503906 19.083984 C 14.672799 19.349506 13.815476 19.498047 13 19.498047 C 12.897779 19.498047 12.801942 19.486645 12.701172 19.484375 C 11.866264 18.606981 11.799288 17.979871 11.951172 17.296875 C 12.094826 17.151001 12.239687 16.999029 12.386719 16.818359 C 13.097572 15.944835 13.349288 14.701262 13.273438 13.443359 C 13.271556 13.413123 13.244455 13.386461 13.242188 13.355469 C 13.565371 13.389484 14.772425 13.613466 15.878906 12.322266 C 16.436573 11.671582 16.766748 11.212021 16.941406 10.742188 C 17.116066 10.272354 17.086539 9.8164633 16.986328 9.3847656 C 16.985468 9.3810617 16.991145 9.2664722 17.089844 9.0820312 C 17.188557 8.8975903 17.355821 8.674313 17.525391 8.4394531 C 17.694963 8.2047445 17.870798 7.9630398 17.990234 7.6855469 C 18.049951 7.5468382 18.098803 7.3961966 18.09375 7.2070312 C 18.088685 7.0180549 18.005273 6.7923864 17.857422 6.6445312 C 17.725274 6.5122478 17.628906 6.2416496 17.628906 6.0625 C 17.628906 5.9729252 17.649041 5.9191048 17.642578 5.9296875 C 17.993798 5.8881127 18.336474 5.774576 18.542969 5.4648438 C 18.66236 5.2856941 18.731772 5.0429856 18.699219 4.7988281 C 18.669759 4.5777932 18.551512 4.3751655 18.394531 4.2011719 C 18.387924 4.1976919 18.38216 4.1732745 18.351562 4.1425781 C 18.368981 4.1599988 18.378109 4.1829703 18.394531 4.2011719 C 18.398825 4.2034335 18.4017 4.206212 18.417969 4.1660156 C 18.45926 4.0635904 18.582756 3.8905217 18.75 3.7441406 C 18.966635 3.5547863 19.189057 3.5807029 19.414062 3.5527344 z M 8.8144531 3.5742188 C 9.0216733 3.8289589 9.2990431 3.9488007 9.5078125 4.0039062 C 9.7207927 4.0602212 9.8863812 4.0849348 9.9589844 4.1132812 C 10.031585 4.1397379 10.005678 4.1126765 10.03125 4.1796875 C 10.06073 4.2567899 10.059332 4.2261323 10.03125 4.2832031 C 10.003168 4.340274 9.9122638 4.4562408 9.7890625 4.6074219 C 9.6658612 4.7589809 9.5041422 4.953167 9.4257812 5.2421875 C 9.3474203 5.5313214 9.3857775 5.8906881 9.5527344 6.2246094 C 9.7460421 6.6112172 10.103176 6.8329338 10.423828 6.9414062 C 10.744479 7.0498787 11.057325 7.0860753 11.332031 7.1484375 C 11.848397 7.2652249 12.182927 7.4380675 12.453125 8.1074219 C 12.439859 8.12254 12.442348 8.1256336 12.423828 8.1445312 C 12.300623 8.2760588 12.077511 8.4636086 11.847656 8.6621094 C 11.617801 8.8605346 11.381721 9.0716529 11.205078 9.3632812 C 11.116758 9.509171 11.037158 9.6778243 11.029297 9.8867188 C 11.021435 10.095727 11.09771 10.327843 11.228516 10.5 C 11.839473 11.304208 12.210423 12.426476 12.275391 13.503906 C 12.340357 14.581298 12.092081 15.592816 11.611328 16.183594 C 10.162834 17.9636 8.1796475 18.243687 7.7949219 18.310547 C 7.1567525 18.000184 6.542428 17.650662 5.9785156 17.224609 A 0.50004998 0.50004998 0 0 0 5.9785156 16.869141 C 5.7111124 15.897483 5.5792101 15.056874 5.5449219 14.296875 C 5.9705117 14.1052 6.3532394 14.022682 6.7265625 13.988281 L 7.5820312 15.275391 A 0.50058833 0.50058833 0 1 0 8.4160156 14.720703 L 7.9199219 13.976562 C 8.1075365 13.985251 8.2925394 13.996165 8.4960938 13.998047 A 0.50004998 0.50004998 0 1 0 8.5039062 13.001953 C 7.658785 12.992717 6.6984373 12.837981 5.5625 13.21875 C 5.6175788 12.623775 5.7415943 12.077433 5.9199219 11.554688 C 6.0964791 11.037132 6.3470567 10.538626 6.625 10.039062 C 7.1488844 10.152738 7.7493746 10.115251 8.3710938 9.9589844 C 9.109418 9.7734096 9.8622872 9.4244844 10.378906 8.8300781 A 0.50004998 0.50004998 0 0 0 9.9589844 7.9960938 A 0.50004998 0.50004998 0 0 0 9.6269531 8.1738281 C 9.3102401 8.5381746 8.7219623 8.8369612 8.1269531 8.9863281 C 7.7946851 9.0696961 7.4753384 9.093454 7.1972656 9.0898438 C 7.5689179 8.512222 7.9610453 7.9331935 8.4082031 7.2871094 A 0.50004998 0.50004998 0 0 0 7.9511719 6.4980469 A 0.50004998 0.50004998 0 0 0 7.5878906 6.71875 C 6.5094693 8.2769358 5.5240521 9.6256825 4.9746094 11.236328 C 4.706911 12.021046 4.5545906 12.86429 4.5429688 13.802734 A 0.50047057 0.50047057 0 0 0 4.5507812 14.21875 C 4.5684045 14.774929 4.6358271 15.365936 4.7578125 15.998047 C 3.0465833 13.689067 3.1036692 10.531667 4.4003906 8.8027344 C 5.1143906 7.8507092 5.8353851 7.2485955 6.6660156 6.4179688 C 7.3098691 5.7740884 8.0586296 4.7249971 8.8144531 3.5761719 L 8.8144531 3.5742188 z M 13.287109 3.9726562 C 13.627602 3.9775625 13.974898 4.0013789 14.320312 4.046875 C 15.46198 4.197093 16.550677 4.5804137 17.246094 5.0507812 C 17.054186 5.1208991 16.884869 5.2569386 16.792969 5.40625 C 16.661487 5.6197933 16.623047 5.8395835 16.623047 6.0625 C 16.623047 6.4649063 16.800794 6.8784558 17.095703 7.2285156 C 17.095063 7.2058385 17.091238 7.2359612 17.066406 7.2949219 C 17.016732 7.4101975 16.878608 7.6202676 16.712891 7.8496094 C 16.547173 8.0790267 16.36076 8.3295388 16.210938 8.609375 C 16.061117 8.88906 15.921422 9.2242923 16.011719 9.6132812 C 16.093818 9.967045 16.103062 10.129725 16.003906 10.396484 C 15.904739 10.663319 15.646533 11.054262 15.117188 11.671875 C 14.192172 12.751157 13.095703 12.505859 13.095703 12.505859 A 0.50004998 0.50004998 0 0 0 12.941406 12.5 C 12.755998 11.590003 12.581255 10.653995 12.033203 9.9238281 C 12.032775 9.9313872 12.028684 9.9217661 12.054688 9.8789062 C 12.113818 9.7813944 12.295496 9.5956688 12.505859 9.4140625 C 12.716224 9.2322672 12.95025 9.0481191 13.154297 8.8300781 C 13.256321 8.7212277 13.353799 8.6062326 13.427734 8.4472656 C 13.501666 8.2885255 13.54861 8.0527434 13.472656 7.8339844 C 13.086973 6.7229922 12.213056 6.323384 11.552734 6.1738281 C 11.222574 6.0989935 10.933478 6.0588339 10.748047 5.9960938 C 10.562616 5.9333536 10.502005 5.8868233 10.445312 5.7734375 C 10.362269 5.6075162 10.379088 5.5648834 10.394531 5.5078125 C 10.40999 5.4507416 10.46261 5.3598553 10.564453 5.234375 C 10.666296 5.1092726 10.810154 4.9619137 10.925781 4.7265625 C 10.980404 4.6153281 11.01519 4.4744054 11.029297 4.3261719 C 11.608936 4.0905932 12.408515 3.9599962 13.287109 3.9726562 z M 10.927734 18.115234 C 10.980986 18.526028 11.124446 18.954188 11.378906 19.386719 C 10.473104 19.273169 9.6195011 19.077247 8.8144531 18.802734 C 9.4045918 18.662925 10.125251 18.586977 10.927734 18.115234 z M 7.6992188 19.423828 C 8.5466839 19.792515 9.4462165 20.06549 10.390625 20.248047 L 10.158203 20.943359 C 9.238336 21.083958 7.9333225 21.066249 6.7773438 20.234375 L 7.2929688 19.460938 A 0.50004998 0.50004998 0 0 0 7.5664062 19.498047 C 7.5664062 19.498047 7.6948345 19.424206 7.6992188 19.423828 z "
       transform="matrix(0.26458333,0,0,0.26458333,0,290.64997)"
       id="path5174" />
  </g>
</svg>
