<?xml version="1.0" encoding="UTF-8" standalone="no"?>
<!-- Created with Inkscape (http://www.inkscape.org/) -->

<svg
   xmlns:dc="http://purl.org/dc/elements/1.1/"
   xmlns:cc="http://creativecommons.org/ns#"
   xmlns:rdf="http://www.w3.org/1999/02/22-rdf-syntax-ns#"
   xmlns:svg="http://www.w3.org/2000/svg"
   xmlns="http://www.w3.org/2000/svg"
   xmlns:sodipodi="http://sodipodi.sourceforge.net/DTD/sodipodi-0.dtd"
   xmlns:inkscape="http://www.inkscape.org/namespaces/inkscape"
   width="24"
   height="24"
   viewBox="0 0 6.3499999 6.3500002"
   version="1.1"
   id="svg8"
   sodipodi:docname="chou_wire.svg"
   inkscape:version="0.92.4 (5da689c313, 2019-01-14)">
  <defs
     id="defs2">
    <inkscape:path-effect
       effect="bspline"
       id="path-effect4522"
       is_visible="true"
       weight="33.333333"
       steps="2"
       helper_size="0"
       apply_no_weight="true"
       apply_with_weight="true"
       only_selected="false" />
  </defs>
  <sodipodi:namedview
     id="base"
     pagecolor="#ffffff"
     bordercolor="#666666"
     borderopacity="1.0"
     inkscape:pageopacity="0.0"
     inkscape:pageshadow="2"
     inkscape:zoom="22.627417"
     inkscape:cx="0.98213444"
     inkscape:cy="9.7319755"
     inkscape:document-units="mm"
     inkscape:current-layer="layer1"
     showgrid="true"
     units="px"
     objecttolerance="20"
     inkscape:window-width="1920"
     inkscape:window-height="1017"
     inkscape:window-x="1592"
     inkscape:window-y="126"
     inkscape:window-maximized="1">
    <inkscape:grid
       type="xygrid"
       id="grid815"
       originx="3.175"
       originy="3.175"
       spacingx="0.13229167"
       spacingy="0.13229167"
       color="#6900ff"
       opacity="0.1254902"
       empspacing="2"
       dotted="false" />
  </sodipodi:namedview>
  <metadata
     id="metadata5">
    <rdf:RDF>
      <cc:Work
         rdf:about="">
        <dc:format>image/svg+xml</dc:format>
        <dc:type
           rdf:resource="http://purl.org/dc/dcmitype/StillImage" />
        <dc:title></dc:title>
      </cc:Work>
    </rdf:RDF>
  </metadata>
  <g
     inkscape:label="Calque 1"
     inkscape:groupmode="layer"
     id="layer1"
     transform="translate(0,-290.64997)">
    <path
       style="fill:none;fill-rule:evenodd;stroke:#000000;stroke-width:0.26458332px;stroke-linecap:round;stroke-linejoin:round;stroke-opacity:1"
       d="m 1.984375,295.67705 c 0,0 0.7323532,-0.0983 1.190625,-0.66146 0.3152793,-0.38743 0.2645833,-1.19062 -0.098336,-1.66832 -0.1513883,-0.19927 0.4174908,-0.42344 0.3629192,-0.58063 -0.1749071,-0.50382 -0.6614583,-0.26459 -0.79375,-0.52917 -0.1322916,-0.26458 0.2117626,-0.32116 0.1322917,-0.52917 -0.079471,-0.20801 -0.3968749,10e-6 -0.396875,-0.39687 -0.5291666,0.92604 -0.9260416,1.05833 -1.3229166,1.5875 -0.39687503,0.52916 -0.39687511,1.45521 0.1322917,2.11667 0.5291667,0.66145 1.3229165,0.92604 2.2489582,0.92604 0.9260417,0 1.9843751,-0.66146 2.1166668,-1.45521 0.1322916,-0.79375 -0.1821515,-1.24734 -0.2645835,-1.85209 -0.082432,-0.60475 -0.1322915,-0.79375 0,-1.19062 -0.2760907,-0.13805 -0.6614585,0.26457 -0.5291667,0.39687 0.1322918,0.1323 1e-7,0.26459 -0.1322916,0.26459 -0.1322917,0 -0.1322916,0.26458 0,0.39687 0.1322916,0.13229 -0.3128191,0.45366 -0.2645832,0.66146 0.048236,0.2078 0.023022,0.32589 -0.2645833,0.66146 -0.2876057,0.33557 -0.6614584,0.26458 -0.6614584,0.26458"
       id="path5174"
       inkscape:connector-curvature="0"
       sodipodi:nodetypes="cssszzczzzzzczzzzzc" />
    <path
       style="fill:none;fill-rule:evenodd;stroke:#000000;stroke-width:0.26458332px;stroke-linecap:butt;stroke-linejoin:miter;stroke-opacity:1"
       d="M 1.8520833,295.67705 1.5875,296.07393 c 0.396875,0.39687 0.9241013,0.3061 1.190625,0.26458 l 0.1322917,-0.39687"
       id="path5176"
       inkscape:connector-curvature="0"
       sodipodi:nodetypes="cccc" />
    <path
       style="fill:none;fill-rule:evenodd;stroke:#000000;stroke-width:0.26458332px;stroke-linecap:butt;stroke-linejoin:miter;stroke-opacity:1"
       d="m 3.0427083,295.14789 c -0.063832,0.24029 -0.041672,0.49433 0.2645833,0.79375"
       id="path5178"
       inkscape:connector-curvature="0"
       sodipodi:nodetypes="cc" />
    <path
       style="fill:none;fill-rule:evenodd;stroke:#000000;stroke-width:0.26458332px;stroke-linecap:round;stroke-linejoin:miter;stroke-opacity:1"
       d="m 1.4552083,295.14789 c -0.3449509,-1.25344 0.089041,-1.81878 0.6614583,-2.64584"
       id="path5180"
       inkscape:connector-curvature="0"
       sodipodi:nodetypes="cc" />
    <path
       style="fill:none;fill-rule:evenodd;stroke:#000000;stroke-width:0.26458332px;stroke-linecap:round;stroke-linejoin:miter;stroke-opacity:1"
       d="M 5.5562499,294.48643 C 5.076635,294.35022 5.1952541,294.04774 5.0270833,293.82497"
       id="path5182"
       inkscape:connector-curvature="0"
       sodipodi:nodetypes="cc" />
    <path
       style="fill:none;fill-rule:evenodd;stroke:#000000;stroke-width:0.26458332px;stroke-linecap:round;stroke-linejoin:miter;stroke-opacity:1"
       d="m 4.2333334,295.67705 c 0.1200564,-0.31568 0.2440846,-0.9752 0,-1.32291"
       id="path5184"
       inkscape:connector-curvature="0"
       sodipodi:nodetypes="cc" />
    <path
       style="fill:none;fill-rule:evenodd;stroke:#000000;stroke-width:0.26458332px;stroke-linecap:round;stroke-linejoin:miter;stroke-opacity:1"
       d="m 1.3229166,294.35414 c 0.3617637,-0.19699 0.633611,-0.135 0.9260417,-0.1323"
       id="path5186"
       inkscape:connector-curvature="0"
       sodipodi:nodetypes="cc" />
    <path
       style="fill:none;fill-rule:evenodd;stroke:#000000;stroke-width:0.26458332px;stroke-linecap:round;stroke-linejoin:miter;stroke-opacity:1"
       d="m 1.7197916,293.16351 c 0.2204861,0.0788 0.7055556,-0.0109 0.9260417,-0.26458"
       id="path5188"
       inkscape:connector-curvature="0"
       sodipodi:nodetypes="cc" />
    <path
       style="fill:none;fill-rule:evenodd;stroke:#000000;stroke-width:0.26458332px;stroke-linecap:round;stroke-linejoin:miter;stroke-opacity:1"
       d="m 1.8520833,294.22185 0.2645833,0.39687"
       id="path5190"
       inkscape:connector-curvature="0"
       sodipodi:nodetypes="cc" />
    <path
       style="fill:none;fill-rule:evenodd;stroke:#000000;stroke-width:0.26458332px;stroke-linecap:butt;stroke-linejoin:miter;stroke-opacity:1"
       d="m 2.778125,291.7083 c 0.4948031,-0.27298 1.5875001,-0.13229 1.984375,0.26459"
       id="path5192"
       inkscape:connector-curvature="0"
       sodipodi:nodetypes="cc" />
  </g>
</svg>
