<?xml version="1.0" encoding="UTF-8" standalone="no"?>
<!-- Created with Inkscape (http://www.inkscape.org/) -->

<svg
   xmlns:dc="http://purl.org/dc/elements/1.1/"
   xmlns:cc="http://creativecommons.org/ns#"
   xmlns:rdf="http://www.w3.org/1999/02/22-rdf-syntax-ns#"
   xmlns:svg="http://www.w3.org/2000/svg"
   xmlns="http://www.w3.org/2000/svg"
   xmlns:sodipodi="http://sodipodi.sourceforge.net/DTD/sodipodi-0.dtd"
   xmlns:inkscape="http://www.inkscape.org/namespaces/inkscape"
   width="24"
   height="24"
   viewBox="0 0 6.3499999 6.3500002"
   version="1.1"
   id="svg8"
   sodipodi:docname="chou.svg"
   inkscape:version="0.92.4 (5da689c313, 2019-01-14)">
  <defs
     id="defs2">
    <inkscape:path-effect
       effect="bspline"
       id="path-effect821"
       is_visible="true"
       weight="33.333333"
       steps="2"
       helper_size="0"
       apply_no_weight="true"
       apply_with_weight="true"
       only_selected="false" />
    <inkscape:path-effect
       effect="bspline"
       id="path-effect4522"
       is_visible="true"
       weight="33.333333"
       steps="2"
       helper_size="0"
       apply_no_weight="true"
       apply_with_weight="true"
       only_selected="false" />
  </defs>
  <sodipodi:namedview
     id="base"
     pagecolor="#ffffff"
     bordercolor="#666666"
     borderopacity="1.0"
     inkscape:pageopacity="0.0"
     inkscape:pageshadow="2"
     inkscape:zoom="32"
     inkscape:cx="11.461024"
     inkscape:cy="15.761771"
     inkscape:document-units="mm"
     inkscape:current-layer="layer1"
     showgrid="true"
     units="px"
     objecttolerance="20"
     inkscape:window-width="1920"
     inkscape:window-height="1017"
     inkscape:window-x="-8"
     inkscape:window-y="-8"
     inkscape:window-maximized="1">
    <inkscape:grid
       type="xygrid"
       id="grid815"
       originx="3.175"
       originy="3.175"
       spacingx="0.13229167"
       spacingy="0.13229167"
       color="#6900ff"
       opacity="0.1254902"
       empspacing="2"
       dotted="false" />
  </sodipodi:namedview>
  <metadata
     id="metadata5">
    <rdf:RDF>
      <cc:Work
         rdf:about="">
        <dc:format>image/svg+xml</dc:format>
        <dc:type
           rdf:resource="http://purl.org/dc/dcmitype/StillImage" />
        <dc:title></dc:title>
      </cc:Work>
    </rdf:RDF>
  </metadata>
  <g
     inkscape:label="Calque 1"
     inkscape:groupmode="layer"
     id="layer1"
     transform="translate(0,-290.64997)">
    <path
       style="color:#000000;font-style:normal;font-variant:normal;font-weight:normal;font-stretch:normal;font-size:medium;line-height:normal;font-family:sans-serif;font-variant-ligatures:normal;font-variant-position:normal;font-variant-caps:normal;font-variant-numeric:normal;font-variant-alternates:normal;font-feature-settings:normal;text-indent:0;text-align:start;text-decoration:none;text-decoration-line:none;text-decoration-style:solid;text-decoration-color:#000000;letter-spacing:normal;word-spacing:normal;text-transform:none;writing-mode:lr-tb;direction:ltr;text-orientation:mixed;dominant-baseline:auto;baseline-shift:baseline;text-anchor:start;white-space:normal;shape-padding:0;clip-rule:nonzero;display:inline;overflow:visible;visibility:visible;opacity:1;isolation:auto;mix-blend-mode:normal;color-interpolation:sRGB;color-interpolation-filters:linearRGB;solid-color:#000000;solid-opacity:1;vector-effect:none;fill:#000000;fill-opacity:1;fill-rule:nonzero;stroke:none;stroke-width:0.75826269;stroke-linecap:round;stroke-linejoin:miter;stroke-miterlimit:4;stroke-dasharray:none;stroke-dashoffset:0;stroke-opacity:1;color-rendering:auto;image-rendering:auto;shape-rendering:auto;text-rendering:auto;enable-background:accumulate"
       d="M 15.183594 1.7109375 C 13.968244 1.7589328 12.704346 2.2655752 11.517578 3.3164062 C 10.292166 2.3430765 8.9826673 1.925668 7.7363281 1.9882812 C 6.0097352 2.0752104 4.4547918 3.0378431 3.4101562 4.453125 C 1.8491241 6.5680824 1.4294098 9.7441568 3.1621094 12.626953 A 0.50083744 0.50083744 0 0 0 3.09375 12.705078 C 1.7608197 14.571182 1.6986848 16.447511 2.4355469 17.947266 C 3.172409 19.446982 4.6231349 20.58317 6.2382812 21.275391 C 7.853428 21.967573 9.6464311 22.224413 11.146484 21.851562 C 11.454182 21.775043 11.744945 21.658922 12.021484 21.519531 C 15.580613 22.491957 18.705659 21.872456 20.476562 20.101562 C 22.19127 18.386864 22.455466 15.613627 20.667969 12.646484 C 21.416209 11.86234 21.849726 10.905829 21.982422 9.9003906 C 22.205765 8.208145 21.665352 6.4032964 20.669922 4.9101562 C 19.67449 3.4170161 18.204394 2.2198108 16.498047 1.8320312 C 16.07146 1.7350769 15.630915 1.6932723 15.183594 1.7109375 z M 15.216797 2.7011719 C 15.576866 2.690128 15.930493 2.7278091 16.277344 2.8066406 C 17.664746 3.1218532 18.956369 4.1454863 19.835938 5.4648438 C 20.715506 6.7842012 21.169234 8.381701 20.986328 9.7675781 C 20.876008 10.603446 20.551719 11.366411 19.935547 11.994141 A 0.50083744 0.50083744 0 0 0 19.507812 12.369141 C 19.34137 12.496035 19.161797 12.617555 18.962891 12.728516 C 18.987875 12.488227 19.001953 12.244837 19.001953 11.998047 C 19.001953 11.125008 18.833703 10.292488 18.541016 9.5214844 A 0.50121044 0.50121044 0 0 0 18.380859 9.1269531 C 17.665029 7.541338 16.379234 6.2671156 14.78125 5.5742188 A 0.50083744 0.50083744 0 0 0 14.599609 5.5019531 C 14.099703 5.3016608 13.570389 5.1624416 13.021484 5.0820312 A 0.50083744 0.50083744 0 0 0 12.888672 4.6894531 C 12.685662 4.4356953 12.476915 4.2024159 12.265625 3.9863281 C 13.2726 3.1141319 14.265427 2.7303519 15.216797 2.7011719 z M 7.78125 2.984375 C 8.8244222 2.9319115 9.9439368 3.2700673 11.042969 4.203125 A 0.50109929 0.50109929 0 0 0 11.042969 4.2050781 A 0.50109929 0.50109929 0 0 0 11.332031 4.4746094 C 11.502993 4.6370105 11.672677 4.8146281 11.841797 5.0078125 C 10.986113 5.0274541 10.166275 5.1991259 9.4121094 5.5 A 0.50083744 0.50083744 0 0 0 9.2285156 5.5742188 C 6.7429673 6.6495031 4.9980469 9.121713 4.9980469 11.998047 C 4.9980469 12.557293 5.0708414 13.097393 5.1953125 13.619141 C 2.2978995 10.680307 2.6118264 7.2225898 4.2148438 5.0507812 C 5.1077084 3.8410679 6.3984675 3.0538805 7.78125 2.984375 z M 12.003906 5.7597656 C 12.582952 5.7597656 13.140338 5.8434924 13.671875 5.9902344 C 13.132527 6.3908928 12.692526 6.7904052 12.363281 7.2851562 C 12.172708 7.1857631 11.968897 7.125 11.751953 7.125 C 11.335013 7.125 10.953548 7.3393855 10.644531 7.6484375 A 0.50083744 0.50083744 0 1 0 11.353516 8.3496094 C 11.544499 8.1587432 11.668891 8.1289062 11.751953 8.1289062 C 11.791875 8.1289062 11.840292 8.1375238 11.900391 8.1660156 C 11.758614 8.5153156 11.632751 8.9084473 11.515625 9.3769531 A 0.50083744 0.50083744 0 1 0 12.482422 9.6210938 C 12.605777 9.1276777 12.718978 8.7430258 12.84375 8.4257812 A 0.50083744 0.50083744 0 0 0 13.03125 8.0175781 C 13.13753 7.8196758 13.262175 7.6532735 13.402344 7.4960938 A 0.50264243 0.50264243 0 0 0 13.501953 7.5019531 C 13.376556 7.5019531 13.478132 7.4994908 13.589844 7.6054688 C 13.701567 7.7116735 13.835434 7.8837661 13.9375 8.0625 C 14.039566 8.2412717 14.111056 8.4282234 14.128906 8.5488281 C 14.146746 8.6693951 14.121967 8.6691615 14.144531 8.6464844 A 0.50109929 0.50109929 0 1 0 14.851562 9.3535156 C 15.124112 9.0810117 15.161835 8.7036855 15.117188 8.4023438 C 15.07254 8.1011154 14.956528 7.8194445 14.808594 7.5605469 C 14.660659 7.3016492 14.483983 7.0716121 14.283203 6.8808594 C 14.259534 6.8583587 14.231122 6.8405993 14.207031 6.8183594 C 14.387115 6.6898794 14.54809 6.5701511 14.779297 6.4160156 C 15.951433 6.9988186 16.912791 7.9352197 17.521484 9.0917969 C 15.719321 9.4936211 13.716968 9.6576222 11.761719 11.542969 C 10.776626 10.560498 9.5393511 9.3154625 9.9921875 6.09375 C 10.623589 5.8797838 11.299479 5.7597656 12.003906 5.7597656 z M 8.9570312 6.5527344 C 8.7407894 9.3211647 9.7970235 10.88086 10.705078 11.867188 C 9.1595124 12.464935 7.7633349 13.622909 6.7695312 15.400391 C 6.6804648 15.263595 6.5939774 15.124416 6.515625 14.980469 A 0.50083744 0.50083744 0 0 0 6.3496094 14.638672 C 5.9741643 13.835683 5.7578125 12.943908 5.7578125 11.998047 C 5.7578125 9.6532473 7.0486421 7.6184578 8.9570312 6.5527344 z M 17.921875 10.033203 C 18.125873 10.65079 18.240234 11.310931 18.240234 11.998047 C 18.240234 12.236924 18.225192 12.471269 18.199219 12.703125 C 16.819926 11.868797 15.216537 11.390326 13.601562 11.369141 C 14.991717 10.510471 16.387904 10.394338 17.921875 10.033203 z M 13.193359 12.363281 C 14.862093 12.300615 16.579654 12.82702 17.984375 13.761719 C 17.384067 15.810144 15.767569 17.414227 13.712891 17.998047 C 13.549886 17.833694 13.392106 17.670555 13.246094 17.509766 C 13.483633 17.310388 13.759533 17.076479 14.041016 16.794922 C 14.512312 16.323501 15 15.752416 15 15.001953 A 0.50083744 0.50083744 0 0 0 14.439453 14.492188 A 0.50083744 0.50083744 0 0 0 13.996094 15.001953 C 13.996094 15.251402 13.735841 15.682019 13.332031 16.085938 C 13.106108 16.31192 12.863946 16.516404 12.634766 16.708984 C 12.631447 16.703121 12.626304 16.697268 12.623047 16.691406 C 12.359493 16.217 12.266841 15.77957 12.474609 15.15625 A 0.50083744 0.50083744 0 0 0 11.958984 14.492188 A 0.50083744 0.50083744 0 0 0 11.523438 14.839844 C 11.449213 15.062519 11.404787 15.279372 11.384766 15.492188 C 11.327519 15.490733 11.223944 15.490486 11.220703 15.488281 C 11.215147 15.485484 11.101563 15.398264 10.851562 15.148438 A 0.50083744 0.50083744 0 0 0 10.445312 14.994141 A 0.50083744 0.50083744 0 0 0 10.142578 15.849609 C 10.392579 16.099436 10.5329 16.260583 10.777344 16.382812 C 11.016567 16.502284 11.242531 16.500116 11.486328 16.5 C 11.552497 16.739248 11.635825 16.970657 11.751953 17.179688 C 11.827108 17.314966 11.913754 17.441078 12.001953 17.566406 A 0.50109929 0.50109929 0 0 0 12.306641 17.958984 C 12.381272 18.047631 12.457188 18.131853 12.535156 18.216797 C 12.359598 18.231592 12.183365 18.242188 12.003906 18.242188 C 10.198104 18.242188 8.5771356 17.473042 7.4375 16.25 A 0.50083744 0.50083744 0 0 0 7.4375 16.248047 A 0.50083744 0.50083744 0 0 0 7.4492188 16.226562 C 8.6335239 13.85797 10.465747 12.724731 12.445312 12.433594 C 12.692758 12.397216 12.942264 12.372711 13.193359 12.363281 z M 19.896484 13.310547 C 21.433647 15.930563 21.130062 18.034013 19.769531 19.394531 C 18.455587 20.708464 16.028022 21.339169 13.080078 20.736328 C 13.080078 20.736328 13.082031 20.734375 13.082031 20.734375 C 13.554303 20.217631 13.869749 19.539023 13.96875 18.716797 C 16.253213 18.046014 18.053118 16.240574 18.71875 13.953125 C 18.724867 13.950636 18.730229 13.947816 18.736328 13.945312 A 0.50286803 0.50286803 0 0 0 18.740234 13.943359 C 19.171097 13.76618 19.553502 13.551291 19.896484 13.310547 z M 3.7695312 13.5 C 4.2850606 14.162748 4.9188227 14.803618 5.6992188 15.400391 A 0.50083744 0.50083744 0 0 0 5.9492188 15.507812 C 7.1640802 17.59382 9.4215326 19.001953 12.003906 19.001953 C 12.3194 19.001953 12.627149 18.974229 12.931641 18.933594 C 12.698405 20.049984 11.964905 20.612842 10.902344 20.876953 C 9.6992717 21.175914 8.0840722 20.973623 6.6367188 20.353516 C 5.1893653 19.73322 3.9213411 18.707308 3.3300781 17.503906 C 2.7647606 16.353312 2.7505461 15.04085 3.7695312 13.5 z "
       transform="matrix(0.26458333,0,0,0.26458333,0,290.64997)"
       id="path1462" />
  </g>
</svg>
