<?xml version="1.0" encoding="UTF-8" standalone="no"?>
<!-- Created with Inkscape (http://www.inkscape.org/) -->

<svg
   xmlns:dc="http://purl.org/dc/elements/1.1/"
   xmlns:cc="http://creativecommons.org/ns#"
   xmlns:rdf="http://www.w3.org/1999/02/22-rdf-syntax-ns#"
   xmlns:svg="http://www.w3.org/2000/svg"
   xmlns="http://www.w3.org/2000/svg"
   xmlns:sodipodi="http://sodipodi.sourceforge.net/DTD/sodipodi-0.dtd"
   xmlns:inkscape="http://www.inkscape.org/namespaces/inkscape"
   width="24"
   height="24"
   viewBox="0 0 6.3499999 6.3500002"
   version="1.1"
   id="svg8"
   sodipodi:docname="chou-fleur_wire.svg"
   inkscape:version="0.92.4 (5da689c313, 2019-01-14)">
  <defs
     id="defs2">
    <inkscape:path-effect
       effect="bspline"
       id="path-effect4522"
       is_visible="true"
       weight="33.333333"
       steps="2"
       helper_size="0"
       apply_no_weight="true"
       apply_with_weight="true"
       only_selected="false" />
  </defs>
  <sodipodi:namedview
     id="base"
     pagecolor="#ffffff"
     bordercolor="#666666"
     borderopacity="1.0"
     inkscape:pageopacity="0.0"
     inkscape:pageshadow="2"
     inkscape:zoom="22.627417"
     inkscape:cx="3.2028036"
     inkscape:cy="13.358547"
     inkscape:document-units="mm"
     inkscape:current-layer="layer1"
     showgrid="true"
     units="px"
     objecttolerance="20"
     inkscape:window-width="1920"
     inkscape:window-height="1017"
     inkscape:window-x="1592"
     inkscape:window-y="126"
     inkscape:window-maximized="1">
    <inkscape:grid
       type="xygrid"
       id="grid815"
       originx="3.175"
       originy="3.175"
       spacingx="0.13229167"
       spacingy="0.13229167"
       color="#6900ff"
       opacity="0.1254902"
       empspacing="2"
       dotted="false" />
  </sodipodi:namedview>
  <metadata
     id="metadata5">
    <rdf:RDF>
      <cc:Work
         rdf:about="">
        <dc:format>image/svg+xml</dc:format>
        <dc:type
           rdf:resource="http://purl.org/dc/dcmitype/StillImage" />
        <dc:title></dc:title>
      </cc:Work>
    </rdf:RDF>
  </metadata>
  <g
     inkscape:label="Calque 1"
     inkscape:groupmode="layer"
     id="layer1"
     transform="translate(0,-290.64997)">
    <path
       style="fill:none;fill-rule:evenodd;stroke:#000000;stroke-width:0.26458332px;stroke-linecap:round;stroke-linejoin:round;stroke-opacity:1"
       d="m 1.1906249,294.8833 c -0.62260765,0.11932 -0.52916663,-1.05833 -0.1322916,-1.19062 -0.13229169,-0.39688 0.1322916,-0.92604 0.396875,-0.92604 0.1322917,-1.05834 0.6614583,-0.92605 0.9260417,-0.79375 0.2645833,-0.52917 1.0583333,-0.39688 1.190625,-0.1323 0.5291667,-0.39687 1.0583334,0 1.0583334,0.39688 0.6614583,-0.13229 0.9260417,0.39687 0.5291666,0.79375 0.7937501,0 0.6119875,0.53504 0.3968749,0.92604 0.1343973,0.57826 -0.00383,0.88094 -0.396875,0.92604"
       id="path5215"
       inkscape:connector-curvature="0"
       sodipodi:nodetypes="ccccccccc" />
    <path
       style="fill:none;fill-rule:evenodd;stroke:#000000;stroke-width:0.26458332px;stroke-linecap:butt;stroke-linejoin:miter;stroke-opacity:1"
       d="m 0.79374994,295.0156 c 0.52916666,0.79375 1.10178306,1.23157 2.24895836,1.32291 -0.2645833,-0.26458 -0.2861539,-0.85949 -0.6614584,-1.19062 -0.3753045,-0.33113 -1.0583333,0 -1.58749996,-0.13229 z"
       id="path5217"
       inkscape:connector-curvature="0"
       sodipodi:nodetypes="cczc" />
    <path
       style="fill:none;fill-rule:evenodd;stroke:#000000;stroke-width:0.26458332px;stroke-linecap:butt;stroke-linejoin:miter;stroke-opacity:1"
       d="m 3.4395833,296.33851 c 0.6614584,0 2.1166669,-0.92604 2.2489584,-1.5875 -0.9260416,0.39688 -1.0409975,0.11038 -1.4552083,0.39688 -0.4142109,0.2865 -0.3968751,0.66146 -0.7937501,1.19062 z"
       id="path5219"
       inkscape:connector-curvature="0"
       sodipodi:nodetypes="cczc" />
    <path
       style="fill:none;fill-rule:evenodd;stroke:#000000;stroke-width:0.26458332px;stroke-linecap:round;stroke-linejoin:round;stroke-opacity:1"
       d="m 2.1166666,294.61872 c -0.2606521,-0.0522 -0.6251101,-0.0296 -0.2645833,-0.52917 -0.1336754,-0.24453 -0.2701725,-0.48943 0.1322916,-0.66146 -0.1652208,-0.42205 0.2096587,-0.37507 0.5291667,-0.39687 0.1322917,-0.39688 0.3968751,-0.52917 0.5291667,-0.26458"
       id="path5221"
       inkscape:connector-curvature="0"
       sodipodi:nodetypes="ccccc" />
    <path
       style="fill:none;fill-rule:evenodd;stroke:#000000;stroke-width:0.26458332px;stroke-linecap:round;stroke-linejoin:round;stroke-opacity:1"
       d="m 4.4979166,294.48643 c 0.3968751,-0.13229 0.1443279,-0.47242 -0.1322916,-0.52917 0.1714883,-0.39596 -0.1735592,-0.40089 -0.396875,-0.39687 -0.058039,-0.40473 -0.3607564,-0.26363 -0.5291667,-0.1323 -0.1731428,-0.34117 -0.4816038,-0.0996 -0.6614583,0.26459"
       id="path5223"
       inkscape:connector-curvature="0"
       sodipodi:nodetypes="ccccc" />
    <path
       style="fill:none;fill-rule:evenodd;stroke:#000000;stroke-width:0.26458332px;stroke-linecap:round;stroke-linejoin:round;stroke-opacity:1"
       d="m 2.9104166,294.48643 c 0.4405606,-0.17463 0.5259787,0.14603 0.6614584,0.39687"
       id="path5225"
       inkscape:connector-curvature="0"
       sodipodi:nodetypes="cc" />
    <path
       style="fill:none;fill-rule:evenodd;stroke:#000000;stroke-width:0.26458332px;stroke-linecap:round;stroke-linejoin:round;stroke-opacity:1"
       d="m 4.365625,295.54476 c 0.2645834,0.13229 0.2645834,0.13229 0.2645834,0.26459"
       id="path5225-7"
       inkscape:connector-curvature="0"
       sodipodi:nodetypes="cc" />
    <path
       style="fill:none;fill-rule:evenodd;stroke:#000000;stroke-width:0.26458332px;stroke-linecap:round;stroke-linejoin:round;stroke-opacity:1"
       d="m 2.1166666,295.54476 c -0.2990071,0.11984 -0.2645833,0.13229 -0.396875,0.39688"
       id="path5225-7-7"
       inkscape:connector-curvature="0"
       sodipodi:nodetypes="cc" />
  </g>
</svg>
