<?xml version="1.0" encoding="UTF-8" standalone="no"?>
<!-- Created with Inkscape (http://www.inkscape.org/) -->

<svg
   xmlns:dc="http://purl.org/dc/elements/1.1/"
   xmlns:cc="http://creativecommons.org/ns#"
   xmlns:rdf="http://www.w3.org/1999/02/22-rdf-syntax-ns#"
   xmlns:svg="http://www.w3.org/2000/svg"
   xmlns="http://www.w3.org/2000/svg"
   xmlns:sodipodi="http://sodipodi.sourceforge.net/DTD/sodipodi-0.dtd"
   xmlns:inkscape="http://www.inkscape.org/namespaces/inkscape"
   width="24"
   height="24"
   viewBox="0 0 6.3499999 6.3500002"
   version="1.1"
   id="svg8"
   sodipodi:docname="courgette.svg"
   inkscape:version="0.92.4 (5da689c313, 2019-01-14)">
  <defs
     id="defs2">
    <inkscape:path-effect
       effect="bspline"
       id="path-effect4522"
       is_visible="true"
       weight="33.333333"
       steps="2"
       helper_size="0"
       apply_no_weight="true"
       apply_with_weight="true"
       only_selected="false" />
  </defs>
  <sodipodi:namedview
     id="base"
     pagecolor="#ffffff"
     bordercolor="#666666"
     borderopacity="1.0"
     inkscape:pageopacity="0.0"
     inkscape:pageshadow="2"
     inkscape:zoom="32"
     inkscape:cx="3.320399"
     inkscape:cy="12.222535"
     inkscape:document-units="mm"
     inkscape:current-layer="layer1"
     showgrid="true"
     units="px"
     objecttolerance="20"
     inkscape:window-width="1920"
     inkscape:window-height="1017"
     inkscape:window-x="1592"
     inkscape:window-y="126"
     inkscape:window-maximized="1">
    <inkscape:grid
       type="xygrid"
       id="grid815"
       originx="3.175"
       originy="3.175"
       spacingx="0.13229167"
       spacingy="0.13229167"
       color="#6900ff"
       opacity="0.1254902"
       empspacing="2"
       dotted="false" />
  </sodipodi:namedview>
  <metadata
     id="metadata5">
    <rdf:RDF>
      <cc:Work
         rdf:about="">
        <dc:format>image/svg+xml</dc:format>
        <dc:type
           rdf:resource="http://purl.org/dc/dcmitype/StillImage" />
        <dc:title></dc:title>
      </cc:Work>
    </rdf:RDF>
  </metadata>
  <g
     inkscape:label="Calque 1"
     inkscape:groupmode="layer"
     id="layer1"
     transform="translate(0,-290.64997)">
    <path
       style="color:#000000;font-style:normal;font-variant:normal;font-weight:normal;font-stretch:normal;font-size:medium;line-height:normal;font-family:sans-serif;font-variant-ligatures:normal;font-variant-position:normal;font-variant-caps:normal;font-variant-numeric:normal;font-variant-alternates:normal;font-feature-settings:normal;text-indent:0;text-align:start;text-decoration:none;text-decoration-line:none;text-decoration-style:solid;text-decoration-color:#000000;letter-spacing:normal;word-spacing:normal;text-transform:none;writing-mode:lr-tb;direction:ltr;text-orientation:mixed;dominant-baseline:auto;baseline-shift:baseline;text-anchor:start;white-space:normal;shape-padding:0;clip-rule:nonzero;display:inline;overflow:visible;visibility:visible;opacity:1;isolation:auto;mix-blend-mode:normal;color-interpolation:sRGB;color-interpolation-filters:linearRGB;solid-color:#000000;solid-opacity:1;vector-effect:none;fill:#000000;fill-opacity:1;fill-rule:evenodd;stroke:none;stroke-width:0.99999994px;stroke-linecap:butt;stroke-linejoin:round;stroke-miterlimit:4;stroke-dasharray:none;stroke-dashoffset:0;stroke-opacity:1;color-rendering:auto;image-rendering:auto;shape-rendering:auto;text-rendering:auto;enable-background:accumulate"
       d="M 19.96875 4.4980469 A 0.50004998 0.50004998 0 0 0 19.642578 4.6445312 L 18.248047 6.0390625 C 17.899648 5.961289 17.538798 5.9596537 17.185547 6.046875 C 16.425539 6.2343396 15.681644 6.7160116 14.875 7.3613281 C 13.261711 8.6519234 11.397352 10.643318 9.1679688 12.625 C 6.9274198 14.616622 4.9302206 16.235665 3.6386719 17.591797 C 2.9928975 18.269844 2.513577 18.874691 2.28125 19.503906 C 2.0489232 20.133122 2.1575414 20.856759 2.6503906 21.349609 C 3.188092 21.887285 3.9790861 21.935446 4.7539062 21.734375 C 5.5287264 21.533304 6.3670832 21.095875 7.2421875 20.537109 C 8.992396 19.419616 10.882906 17.783766 12.349609 16.359375 C 13.762757 14.986953 16.021165 13.231713 17.695312 11.546875 C 18.532386 10.704456 19.230211 9.8845606 19.613281 9.0664062 C 19.804816 8.6573102 19.920361 8.2368276 19.894531 7.8125 C 19.875738 7.5035781 19.768981 7.2002062 19.587891 6.9316406 L 20.447266 5.2207031 A 0.50004998 0.50004998 0 0 0 20.019531 4.4980469 A 0.50004998 0.50004998 0 0 0 19.96875 4.4980469 z M 17.769531 6.9589844 C 18.092257 6.9438899 18.348824 7.0558778 18.646484 7.3535156 C 18.820739 7.5277518 18.878557 7.6805566 18.890625 7.8789062 C 18.902682 8.0773314 18.849467 8.3302624 18.705078 8.6386719 C 18.416296 9.2554152 17.786736 10.03236 16.986328 10.837891 C 15.385513 12.448914 13.135439 14.200412 11.648438 15.644531 C 10.214992 17.036645 8.3528797 18.643911 6.703125 19.697266 C 5.8782476 20.223943 5.1040631 20.611862 4.5039062 20.767578 C 3.9037498 20.923295 3.5638611 20.860469 3.3515625 20.648438 C 3.0944118 20.39143 3.076077 20.237981 3.21875 19.851562 C 3.361423 19.465181 3.7590555 18.913728 4.3632812 18.279297 C 5.5717323 17.010434 7.5725805 15.379497 9.8320312 13.371094 C 12.102648 11.35275 13.990242 9.3538667 15.501953 8.1445312 C 16.257809 7.5398446 16.916257 7.1385097 17.421875 7.0136719 C 17.54828 6.9824908 17.661956 6.9640159 17.769531 6.9589844 z M 16.617188 8.1816406 C 14.183655 11.101893 9.6759472 14.619008 5.6464844 18.648438 L 6.3554688 19.357422 C 10.326006 15.386915 14.818298 11.902014 17.384766 8.8222656 L 16.617188 8.1816406 z "
       transform="matrix(0.26458333,0,0,0.26458333,0,290.64997)"
       id="path4675" />
  </g>
</svg>
