<?xml version="1.0" encoding="UTF-8" standalone="no"?>
<!-- Created with Inkscape (http://www.inkscape.org/) -->

<svg
   xmlns:dc="http://purl.org/dc/elements/1.1/"
   xmlns:cc="http://creativecommons.org/ns#"
   xmlns:rdf="http://www.w3.org/1999/02/22-rdf-syntax-ns#"
   xmlns:svg="http://www.w3.org/2000/svg"
   xmlns="http://www.w3.org/2000/svg"
   xmlns:sodipodi="http://sodipodi.sourceforge.net/DTD/sodipodi-0.dtd"
   xmlns:inkscape="http://www.inkscape.org/namespaces/inkscape"
   width="24"
   height="24"
   viewBox="0 0 6.3499999 6.3500002"
   version="1.1"
   id="svg8"
   sodipodi:docname="courgette.svg"
   inkscape:version="0.92.4 (5da689c313, 2019-01-14)">
  <defs
     id="defs2">
    <inkscape:path-effect
       effect="bspline"
       id="path-effect4522"
       is_visible="true"
       weight="33.333333"
       steps="2"
       helper_size="0"
       apply_no_weight="true"
       apply_with_weight="true"
       only_selected="false" />
  </defs>
  <sodipodi:namedview
     id="base"
     pagecolor="#ffffff"
     bordercolor="#666666"
     borderopacity="1.0"
     inkscape:pageopacity="0.0"
     inkscape:pageshadow="2"
     inkscape:zoom="16"
     inkscape:cx="26.018568"
     inkscape:cy="12.331643"
     inkscape:document-units="mm"
     inkscape:current-layer="layer1"
     showgrid="true"
     units="px"
     objecttolerance="20"
     inkscape:window-width="1920"
     inkscape:window-height="1017"
     inkscape:window-x="1592"
     inkscape:window-y="126"
     inkscape:window-maximized="1">
    <inkscape:grid
       type="xygrid"
       id="grid815"
       originx="3.175"
       originy="3.175"
       spacingx="0.13229167"
       spacingy="0.13229167"
       color="#6900ff"
       opacity="0.1254902"
       empspacing="2"
       dotted="false" />
  </sodipodi:namedview>
  <metadata
     id="metadata5">
    <rdf:RDF>
      <cc:Work
         rdf:about="">
        <dc:format>image/svg+xml</dc:format>
        <dc:type
           rdf:resource="http://purl.org/dc/dcmitype/StillImage" />
        <dc:title></dc:title>
      </cc:Work>
    </rdf:RDF>
  </metadata>
  <g
     inkscape:label="Calque 1"
     inkscape:groupmode="layer"
     id="layer1"
     transform="translate(0,-290.64997)">
    <path
       style="color:#000000;font-style:normal;font-variant:normal;font-weight:normal;font-stretch:normal;font-size:medium;line-height:normal;font-family:sans-serif;font-variant-ligatures:normal;font-variant-position:normal;font-variant-caps:normal;font-variant-numeric:normal;font-variant-alternates:normal;font-feature-settings:normal;text-indent:0;text-align:start;text-decoration:none;text-decoration-line:none;text-decoration-style:solid;text-decoration-color:#000000;letter-spacing:normal;word-spacing:normal;text-transform:none;writing-mode:lr-tb;direction:ltr;text-orientation:mixed;dominant-baseline:auto;baseline-shift:baseline;text-anchor:start;white-space:normal;shape-padding:0;clip-rule:nonzero;display:inline;overflow:visible;visibility:visible;opacity:1;isolation:auto;mix-blend-mode:normal;color-interpolation:sRGB;color-interpolation-filters:linearRGB;solid-color:#000000;solid-opacity:1;vector-effect:none;fill:#000000;fill-opacity:1;fill-rule:evenodd;stroke:none;stroke-width:0.99999994px;stroke-linecap:round;stroke-linejoin:miter;stroke-miterlimit:4;stroke-dasharray:none;stroke-dashoffset:0;stroke-opacity:1;color-rendering:auto;image-rendering:auto;shape-rendering:auto;text-rendering:auto;enable-background:accumulate"
       d="M 19.384766 2.4511719 L 19.384766 2.453125 C 19.165319 2.4191093 18.994442 2.4779631 18.808594 2.5546875 C 18.436896 2.7073804 18.048029 2.9722481 17.761719 3.2792969 C 17.524151 3.5340769 17.356748 3.796657 17.273438 4.0585938 A 0.50004998 0.50004998 0 0 0 17 4.0019531 C 16.333332 4.0019531 15.717489 4.3173853 15.111328 4.7636719 C 14.505167 5.2098451 13.898552 5.8041579 13.265625 6.46875 C 11.999771 7.7978965 10.635317 9.4074363 9.1835938 10.617188 C 7.7927405 11.776255 5.2820264 12.783781 3.5585938 14.175781 C 2.6968775 14.871781 1.998321 15.701624 1.8300781 16.757812 C 1.6618355 17.814001 2.0553642 18.993507 3.1074219 20.308594 C 4.1862101 21.657054 5.5040424 22.177838 6.7832031 22.058594 C 8.0623634 21.939539 9.2773275 21.255759 10.394531 20.390625 C 11.511735 19.525491 12.533858 18.465698 13.390625 17.519531 C 14.247392 16.573364 14.952872 15.725851 15.339844 15.363281 C 16.273392 14.488661 17.771069 12.737621 19.007812 10.978516 C 19.626184 10.098944 20.176781 9.2263774 20.550781 8.4472656 C 20.924781 7.668116 21.192773 7.0021559 20.972656 6.3417969 A 0.50004998 0.50004998 0 0 0 20.734375 6.0292969 C 20.951694 5.8300814 21.119738 5.5669901 21.177734 5.2421875 C 21.184915 5.2021245 21.232876 5.0561705 21.289062 4.9023438 C 21.345249 4.748139 21.409966 4.5757074 21.4375 4.3847656 C 21.451257 4.2891436 21.455388 4.1840129 21.429688 4.0683594 C 21.403987 3.9530838 21.337327 3.8236352 21.222656 3.7363281 C 21.107985 3.649021 20.981647 3.611705 20.847656 3.6054688 C 20.878774 3.5019568 20.920567 3.398661 20.927734 3.2929688 C 20.939602 3.1179766 20.905282 2.9111602 20.75 2.7558594 C 20.594692 2.6005208 20.348117 2.56257 20.173828 2.5996094 C 20.035316 2.6296464 19.917913 2.6940136 19.800781 2.7675781 C 19.781281 2.719156 19.760461 2.6710108 19.724609 2.6289062 C 19.631924 2.5204338 19.494489 2.4678018 19.384766 2.4511719 z M 19.193359 3.1679688 A 0.35003501 0.35003501 0 0 0 19.236328 3.2285156 C 19.104864 3.3608575 18.975613 3.5036169 18.853516 3.65625 C 18.602492 3.9701227 18.387421 4.3061673 18.242188 4.6308594 C 18.157598 4.6154314 18.087651 4.5929808 18.041016 4.5703125 C 17.953928 4.5279818 17.936966 4.4998666 17.923828 4.4609375 C 17.89756 4.3834572 17.930708 4.1231672 18.269531 3.7597656 C 18.468546 3.5462223 18.824584 3.2997664 19.074219 3.1972656 C 19.145542 3.1670294 19.154396 3.1755278 19.193359 3.1679688 z M 20.197266 3.3457031 C 20.184491 3.4031519 20.179688 3.4535818 20.144531 3.5371094 C 20.038704 3.788448 19.833612 4.1157055 19.599609 4.4082031 C 19.365606 4.7006252 19.102536 4.9612286 18.898438 5.1015625 C 18.861671 5.1263208 18.842809 5.1330479 18.818359 5.1445312 A 0.35064567 0.35064567 0 0 0 18.849609 4.9804688 C 18.852309 4.973407 18.850331 4.9704568 18.853516 4.9628906 C 18.959342 4.711552 19.166388 4.3842945 19.400391 4.0917969 C 19.634393 3.7992614 19.897463 3.5367804 20.101562 3.3964844 C 20.146463 3.3662482 20.161859 3.3634669 20.197266 3.3457031 z M 20.736328 4.3046875 C 20.721059 4.3912387 20.683186 4.5202504 20.632812 4.6582031 C 20.579257 4.8052267 20.514044 4.9489352 20.484375 5.1152344 C 20.441058 5.35788 20.183962 5.6177533 20.005859 5.6777344 C 19.916806 5.7079706 19.883011 5.6876267 19.886719 5.6914062 C 19.890426 5.6939763 19.849609 5.6806614 19.849609 5.5 A 0.35063981 0.35063981 0 0 0 19.763672 5.2695312 C 19.894793 5.1374577 20.022737 4.9959876 20.144531 4.84375 C 20.271383 4.6851379 20.390729 4.5193446 20.498047 4.3535156 A 0.35003501 0.35003501 0 0 0 20.587891 4.3417969 C 20.745467 4.3024898 20.730243 4.308467 20.736328 4.3046875 z M 17.375 4.875 C 17.469151 5.0123792 17.588052 5.1321724 17.738281 5.2050781 C 17.844463 5.2566816 17.959738 5.2924326 18.082031 5.3164062 C 18.091516 5.4643567 18.131733 5.6200082 18.255859 5.7441406 C 18.411168 5.8994792 18.64993 5.93743 18.824219 5.9003906 C 18.960935 5.8707431 19.077705 5.8085373 19.193359 5.7363281 C 19.23643 5.9533917 19.318535 6.1503188 19.488281 6.2675781 C 19.646508 6.3768801 19.823058 6.389413 19.994141 6.3730469 A 0.50004998 0.50004998 0 0 0 20.027344 6.6601562 C 20.05724 6.7497311 19.98483 7.3150006 19.650391 8.0117188 C 19.315952 8.7084369 18.787834 9.5512319 18.189453 10.402344 C 16.992691 12.104605 15.492588 13.852907 14.660156 14.632812 C 14.164138 15.097543 13.492388 15.919971 12.652344 16.847656 C 11.8123 17.775379 10.818299 18.796535 9.78125 19.599609 C 8.7442013 20.402646 7.6636552 20.971489 6.6875 21.0625 C 5.7113452 21.153587 4.8118368 20.841 3.890625 19.689453 C 2.9426826 18.504496 2.7073053 17.62348 2.8203125 16.914062 C 2.9333196 16.204645 3.4222631 15.565697 4.1855469 14.949219 C 5.7121143 13.716223 8.209213 12.725704 9.8183594 11.384766 C 11.366636 10.094548 12.754135 8.4501457 13.988281 7.1542969 C 14.605354 6.5063725 15.182332 5.9502806 15.701172 5.5683594 C 16.220011 5.1864381 16.666668 5 17 5 A 0.50004998 0.50004998 0 0 0 17.375 4.875 z M 16.513672 5.4941406 A 0.50004998 0.50004998 0 0 0 16.203125 5.5976562 C 14.053592 7.2097759 12.212314 10.356949 10.171875 12.123047 A 0.50004998 0.50004998 0 1 0 10.830078 12.875 C 13.077237 10.92998 14.950315 7.7901863 16.800781 6.4023438 A 0.50004998 0.50004998 0 0 0 16.513672 5.4941406 z M 18.978516 6.9902344 A 0.50004998 0.50004998 0 0 0 18.964844 6.9921875 A 0.50004998 0.50004998 0 0 0 18.572266 7.2441406 C 17.812177 8.5109249 17.656917 8.9324808 17.509766 9.1777344 C 17.362613 9.4230257 17.14453 9.6464592 16.144531 10.646484 A 0.50109929 0.50109929 0 1 0 16.853516 11.355469 C 17.853517 10.355444 18.137385 10.073126 18.365234 9.6933594 C 18.593083 9.3136302 18.689777 8.9929499 19.429688 7.7597656 A 0.50004998 0.50004998 0 0 0 18.978516 6.9902344 z M 13.498047 13.492188 A 0.50004998 0.50004998 0 0 0 13.443359 13.496094 A 0.50004998 0.50004998 0 0 0 13.146484 13.642578 C 11.087563 15.701514 9.0796744 18.629052 6.8144531 19.535156 A 0.50033087 0.50033087 0 1 0 7.1816406 20.464844 C 9.9164191 19.370935 11.914391 16.292652 13.855469 14.351562 A 0.50004998 0.50004998 0 0 0 13.498047 13.492188 z M 8.9902344 13.496094 A 0.50004998 0.50004998 0 0 0 8.7246094 13.583984 C 7.2672784 14.555512 5.1958157 15.551954 4.0820312 17.222656 A 0.50058833 0.50058833 0 1 0 4.9160156 17.777344 C 5.8022313 16.447971 7.7366279 15.446416 9.2792969 14.417969 A 0.50004998 0.50004998 0 0 0 8.9902344 13.496094 z M 4.4960938 18.490234 A 0.50004998 0.50004998 0 0 0 4.4433594 18.492188 L 4.4433594 18.494141 A 0.50004998 0.50004998 0 0 0 4.0019531 19.001953 C 4.0019531 19.418646 4.1929143 19.776928 4.4589844 20.042969 C 4.7250518 20.309047 5.0833354 20.501953 5.5 20.501953 A 0.50197795 0.50197795 0 0 0 5.5 19.498047 C 5.4166652 19.498047 5.2769023 19.443213 5.1679688 19.333984 C 5.059039 19.225134 4.9980469 19.085481 4.9980469 19.001953 A 0.50004998 0.50004998 0 0 0 4.4960938 18.490234 z "
       transform="matrix(0.26458333,0,0,0.26458333,0,290.64997)"
       id="path4679" />
  </g>
</svg>
