<?xml version="1.0" encoding="UTF-8" standalone="no"?>
<!-- Created with Inkscape (http://www.inkscape.org/) -->

<svg
   xmlns:dc="http://purl.org/dc/elements/1.1/"
   xmlns:cc="http://creativecommons.org/ns#"
   xmlns:rdf="http://www.w3.org/1999/02/22-rdf-syntax-ns#"
   xmlns:svg="http://www.w3.org/2000/svg"
   xmlns="http://www.w3.org/2000/svg"
   xmlns:sodipodi="http://sodipodi.sourceforge.net/DTD/sodipodi-0.dtd"
   xmlns:inkscape="http://www.inkscape.org/namespaces/inkscape"
   width="24"
   height="24"
   viewBox="0 0 6.3499999 6.3500002"
   version="1.1"
   id="svg8"
   sodipodi:docname="fenouil_wire.svg"
   inkscape:version="0.92.4 (5da689c313, 2019-01-14)">
  <defs
     id="defs2">
    <inkscape:path-effect
       effect="bspline"
       id="path-effect4522"
       is_visible="true"
       weight="33.333333"
       steps="2"
       helper_size="0"
       apply_no_weight="true"
       apply_with_weight="true"
       only_selected="false" />
  </defs>
  <sodipodi:namedview
     id="base"
     pagecolor="#ffffff"
     bordercolor="#666666"
     borderopacity="1.0"
     inkscape:pageopacity="0.0"
     inkscape:pageshadow="2"
     inkscape:zoom="32"
     inkscape:cx="6.634857"
     inkscape:cy="13.043265"
     inkscape:document-units="mm"
     inkscape:current-layer="layer1"
     showgrid="true"
     units="px"
     objecttolerance="20"
     inkscape:window-width="1920"
     inkscape:window-height="1017"
     inkscape:window-x="1592"
     inkscape:window-y="126"
     inkscape:window-maximized="1">
    <inkscape:grid
       type="xygrid"
       id="grid815"
       originx="3.175"
       originy="3.175"
       spacingx="0.13229167"
       spacingy="0.13229167"
       color="#6900ff"
       opacity="0.1254902"
       empspacing="2"
       dotted="false" />
  </sodipodi:namedview>
  <metadata
     id="metadata5">
    <rdf:RDF>
      <cc:Work
         rdf:about="">
        <dc:format>image/svg+xml</dc:format>
        <dc:type
           rdf:resource="http://purl.org/dc/dcmitype/StillImage" />
        <dc:title />
      </cc:Work>
    </rdf:RDF>
  </metadata>
  <g
     inkscape:label="Calque 1"
     inkscape:groupmode="layer"
     id="layer1"
     transform="translate(0,-290.64997)">
    <path
       style="fill:none;fill-rule:evenodd;stroke:#000000;stroke-width:0.26458332px;stroke-linecap:butt;stroke-linejoin:miter;stroke-opacity:1"
       d="m 0.66145827,291.57601 c 0,0 -0.15092524,2.4999 0.13229167,3.30729 0.28321686,0.80739 0.52916666,1.19063 0.79375006,1.32292 0.2645833,0.13229 1.190625,0.26458 1.4552083,0 0.2645834,-0.26458 -0.229274,-0.82103 -0.5291667,-1.19063 -0.2998927,-0.3696 -0.875091,-0.24157 -1.190625,-0.79375 -0.315534,-0.55218 -0.1322917,-2.38125 -0.1322917,-2.38125 z"
       id="path3865"
       inkscape:connector-curvature="0"
       sodipodi:nodetypes="czzzzzcc" />
    <path
       style="fill:none;fill-rule:evenodd;stroke:#000000;stroke-width:0.26458332px;stroke-linecap:butt;stroke-linejoin:miter;stroke-opacity:1"
       d="m 2.5135416,295.01559 c 0,0 0.5291667,-0.52916 1.0583334,-0.66145 0.5291667,-0.13229 1.0583334,-0.13229 1.190625,-0.52917 0.1322917,-0.39688 0.3968751,-1.98438 0.3968751,-1.98438 l 0.5291666,-0.26458 c 0,0 -0.3191855,2.05049 -0.3968751,2.77813 -0.07769,0.72764 0.1920341,1.12651 -0.2645833,1.5875 -0.4566174,0.46099 -2.2489583,0.39687 -2.2489583,0.39687"
       id="path3867"
       inkscape:connector-curvature="0"
       sodipodi:nodetypes="czzcczzc" />
    <path
       style="fill:none;fill-rule:evenodd;stroke:#000000;stroke-width:0.26458332px;stroke-linecap:butt;stroke-linejoin:miter;stroke-opacity:1"
       d="m 1.3229166,294.22185 c -0.1322916,-0.13229 0.4118807,-0.47028 0.396875,-1.05834 -0.015006,-0.58806 0,-1.85208 0,-1.85208 h 0.5291667 c 0,0 -0.012377,1.06726 0.1322917,1.5875 0.144669,0.52023 1.3229167,1.05833 1.190625,1.45521"
       id="path3869"
       inkscape:connector-curvature="0"
       sodipodi:nodetypes="czcczc" />
    <path
       style="fill:none;fill-rule:evenodd;stroke:#000000;stroke-width:0.26458332px;stroke-linecap:butt;stroke-linejoin:miter;stroke-opacity:1"
       d="m 4.4979167,294.08955 c 0.1322916,-0.13229 -0.015006,-1.39632 0,-1.98438 0.015006,-0.58806 -0.1322917,-0.79374 -0.1322917,-0.79374 H 3.8364584 c 0,0 0.1446687,0.80267 0,1.32291 -0.144669,0.52023 -1.3229168,0.26458 -1.1906251,0.66146"
       id="path3869-6"
       inkscape:connector-curvature="0"
       sodipodi:nodetypes="czcczc" />
  </g>
</svg>
