<?xml version="1.0" encoding="UTF-8" standalone="no"?>
<!-- Created with Inkscape (http://www.inkscape.org/) -->

<svg
   xmlns:dc="http://purl.org/dc/elements/1.1/"
   xmlns:cc="http://creativecommons.org/ns#"
   xmlns:rdf="http://www.w3.org/1999/02/22-rdf-syntax-ns#"
   xmlns:svg="http://www.w3.org/2000/svg"
   xmlns="http://www.w3.org/2000/svg"
   xmlns:sodipodi="http://sodipodi.sourceforge.net/DTD/sodipodi-0.dtd"
   xmlns:inkscape="http://www.inkscape.org/namespaces/inkscape"
   width="24"
   height="24"
   viewBox="0 0 6.3499999 6.3500002"
   version="1.1"
   id="svg8"
   sodipodi:docname="fenouil.svg"
   inkscape:version="0.92.4 (5da689c313, 2019-01-14)">
  <defs
     id="defs2">
    <inkscape:path-effect
       effect="bspline"
       id="path-effect4522"
       is_visible="true"
       weight="33.333333"
       steps="2"
       helper_size="0"
       apply_no_weight="true"
       apply_with_weight="true"
       only_selected="false" />
  </defs>
  <sodipodi:namedview
     id="base"
     pagecolor="#ffffff"
     bordercolor="#666666"
     borderopacity="1.0"
     inkscape:pageopacity="0.0"
     inkscape:pageshadow="2"
     inkscape:zoom="32"
     inkscape:cx="6.634857"
     inkscape:cy="13.043265"
     inkscape:document-units="mm"
     inkscape:current-layer="layer1"
     showgrid="true"
     units="px"
     objecttolerance="20"
     inkscape:window-width="1920"
     inkscape:window-height="1017"
     inkscape:window-x="1592"
     inkscape:window-y="126"
     inkscape:window-maximized="1">
    <inkscape:grid
       type="xygrid"
       id="grid815"
       originx="3.175"
       originy="3.175"
       spacingx="0.13229167"
       spacingy="0.13229167"
       color="#6900ff"
       opacity="0.1254902"
       empspacing="2"
       dotted="false" />
  </sodipodi:namedview>
  <metadata
     id="metadata5">
    <rdf:RDF>
      <cc:Work
         rdf:about="">
        <dc:format>image/svg+xml</dc:format>
        <dc:type
           rdf:resource="http://purl.org/dc/dcmitype/StillImage" />
        <dc:title></dc:title>
      </cc:Work>
    </rdf:RDF>
  </metadata>
  <g
     inkscape:label="Calque 1"
     inkscape:groupmode="layer"
     id="layer1"
     transform="translate(0,-290.64997)">
    <path
       style="color:#000000;font-style:normal;font-variant:normal;font-weight:normal;font-stretch:normal;font-size:medium;line-height:normal;font-family:sans-serif;font-variant-ligatures:normal;font-variant-position:normal;font-variant-caps:normal;font-variant-numeric:normal;font-variant-alternates:normal;font-feature-settings:normal;text-indent:0;text-align:start;text-decoration:none;text-decoration-line:none;text-decoration-style:solid;text-decoration-color:#000000;letter-spacing:normal;word-spacing:normal;text-transform:none;writing-mode:lr-tb;direction:ltr;text-orientation:mixed;dominant-baseline:auto;baseline-shift:baseline;text-anchor:start;white-space:normal;shape-padding:0;clip-rule:nonzero;display:inline;overflow:visible;visibility:visible;opacity:1;isolation:auto;mix-blend-mode:normal;color-interpolation:sRGB;color-interpolation-filters:linearRGB;solid-color:#000000;solid-opacity:1;vector-effect:none;fill:#000000;fill-opacity:1;fill-rule:evenodd;stroke:none;stroke-width:0.99999994px;stroke-linecap:butt;stroke-linejoin:miter;stroke-miterlimit:4;stroke-dasharray:none;stroke-dashoffset:0;stroke-opacity:1;color-rendering:auto;image-rendering:auto;shape-rendering:auto;text-rendering:auto;enable-background:accumulate"
       d="M 6.0097656 2.0019531 L 6.0019531 2.4960938 C 6.0019531 2.4960938 5.9445534 7.2603798 6.0019531 9.5097656 C 6.0263311 10.464512 5.5951378 11.231408 5.1679688 11.865234 C 5.1292455 11.922657 5.1025371 11.968728 5.0644531 12.023438 C 5.0098783 11.746394 4.9508062 11.474989 4.9160156 11.15625 C 4.8166707 10.24614 4.7928084 9.2064172 4.8046875 8.2246094 C 4.8284607 6.2609936 4.9980469 4.5488281 4.9980469 4.5488281 L 5.0351562 4.2089844 L 2.0449219 2.7109375 L 2 3.4707031 C 2 3.4707031 1.8545589 5.8416003 1.8457031 8.6015625 C 1.8368477 11.361525 1.9276413 14.463931 2.5253906 16.167969 C 3.6093863 19.258224 4.5446722 20.828002 5.7792969 21.445312 C 6.4283672 21.769974 7.5443105 21.993019 8.7246094 22.058594 C 9.3242153 22.091811 9.9325673 22.096271 10.482422 21.998047 L 10.482422 22 C 10.482422 22 12.200686 22.064549 14.144531 21.904297 C 15.116454 21.824171 16.146302 21.686095 17.066406 21.453125 C 17.98651 21.220306 18.804849 20.909409 19.355469 20.353516 C 20.303747 19.396161 20.539702 18.380821 20.537109 17.378906 C 20.534516 16.376991 20.360709 15.361371 20.5 14.056641 C 20.788809 11.351671 21.990234 3.5742188 21.990234 3.5742188 L 22.146484 2.6230469 L 19.044922 4.1640625 L 19.007812 4.4160156 C 19.007812 4.4160156 18.758799 5.9153507 18.447266 7.5976562 C 18.194958 8.9600974 17.910594 10.308735 17.6875 11.181641 C 17.683111 10.756972 17.686199 10.359035 17.664062 9.8710938 C 17.594024 8.3265142 17.474895 6.576047 17.501953 5.515625 C 17.531396 4.3611305 17.398999 3.5530004 17.251953 3.0273438 C 17.104903 2.5017249 16.904297 2.2089466 16.904297 2.2089844 L 16.757812 2.0019531 L 13.900391 2.0019531 L 14.011719 2.5859375 C 14.011719 2.5859375 14.505752 5.6136635 14.017578 7.3691406 C 13.930653 7.6817076 13.704809 7.8724376 13.294922 8.0488281 C 12.885036 8.2253321 12.3279 8.3365477 11.773438 8.4316406 C 11.218975 8.5265068 10.676622 8.5975672 10.216797 8.7929688 C 10.089116 8.8471216 9.9657062 8.9200952 9.8515625 9.0117188 C 9.6705043 8.776507 9.5314654 8.5556391 9.4785156 8.3652344 C 9.2297585 7.4706958 9.0989364 5.9792769 9.0429688 4.7402344 C 8.9870015 3.5011541 8.9980469 2.5039062 8.9980469 2.5039062 L 9.0058594 2.0019531 L 6.0097656 2.0019531 z M 6.9980469 2.9980469 L 8.0097656 2.9980469 C 8.0087365 3.3189288 8.0020876 3.7941641 8.046875 4.7851562 C 8.1042142 6.0545106 8.2215117 7.5591743 8.5195312 8.6308594 C 8.8748749 9.9086798 10.211981 10.868763 11.324219 11.804688 C 11.880337 12.272631 12.38578 12.726911 12.697266 13.105469 C 12.887672 13.336875 12.978118 13.505453 13.015625 13.636719 C 11.497446 14.128498 10.136183 15.230996 9.5117188 15.798828 C 8.8800407 15.257057 8.1160617 15.038513 7.4492188 14.787109 C 6.6477642 14.484919 5.9670402 14.168732 5.4453125 13.267578 C 5.4531234 13.246844 5.4494743 13.254888 5.4707031 13.214844 C 5.5600549 13.049678 5.7709484 12.768547 6.0019531 12.425781 C 6.4639626 11.740251 7.0303981 10.756086 6.9980469 9.4882812 C 6.9459839 7.4479411 6.9914327 3.5935114 6.9980469 2.9980469 z M 14.992188 2.9980469 L 16.173828 2.9980469 C 16.207957 3.0653225 16.221442 3.0520883 16.291016 3.3007812 C 16.408147 3.7194773 16.525305 4.4182336 16.498047 5.4863281 C 16.468378 6.6484573 16.598826 8.3892499 16.667969 9.9140625 C 16.702551 10.676469 16.723129 11.390472 16.705078 11.916016 C 16.696045 12.178693 16.672128 12.392026 16.646484 12.535156 C 16.620859 12.6784 16.551822 12.740973 16.646484 12.646484 L 16.697266 12.697266 C 16.541268 12.769357 16.367107 12.836561 16.166016 12.898438 C 15.568124 13.082349 14.789665 13.216814 13.976562 13.390625 C 13.886809 13.060201 13.701214 12.748481 13.472656 12.470703 C 13.072701 11.984618 12.529831 11.518686 11.966797 11.044922 C 11.463418 10.621337 10.960891 10.181441 10.53125 9.7597656 C 10.555144 9.7430459 10.545114 9.7417991 10.607422 9.7148438 C 10.859036 9.6078831 11.37867 9.5166778 11.943359 9.4199219 C 12.50805 9.323166 13.13011 9.213122 13.693359 8.9707031 C 14.256608 8.7284354 14.79791 8.3033385 14.984375 7.6328125 C 15.521365 5.7017763 15.091143 3.5642201 14.992188 2.9980469 z M 2.9746094 4.2988281 L 3.9785156 4.8007812 C 3.9516432 5.0823561 3.8229066 6.3824399 3.8007812 8.2109375 C 3.7885734 9.2182194 3.8137172 10.292586 3.9199219 11.265625 C 4.014508 12.132185 4.1736152 12.902966 4.4648438 13.517578 C 4.4789336 13.568538 4.5057355 13.608302 4.5292969 13.65625 C 4.5443801 13.684671 4.5545325 13.718479 4.5703125 13.746094 C 5.2397904 14.917672 6.2321783 15.399797 7.09375 15.724609 C 7.955322 16.049271 8.6589948 16.263298 9.109375 16.818359 C 9.6833582 17.525774 10.418026 18.386661 10.865234 19.150391 C 11.088839 19.532236 11.234634 19.892009 11.271484 20.146484 C 11.308335 20.400847 11.279535 20.51536 11.146484 20.648438 C 10.88219 20.912626 9.8470453 21.121914 8.7773438 21.0625 C 7.7076426 21.003161 6.5735858 20.728369 6.2226562 20.552734 C 5.4572804 20.170057 4.5256063 18.848826 3.46875 15.835938 C 2.996073 14.48846 2.8408587 11.336531 2.8496094 8.609375 C 2.8570361 6.29449 2.9435616 4.8636407 2.9746094 4.2988281 z M 20.875 4.3710938 C 20.692547 5.5481898 19.775372 11.402787 19.503906 13.945312 C 19.349581 15.390717 19.536795 16.503908 19.539062 17.378906 C 19.541327 18.253867 19.424005 18.859561 18.646484 19.644531 C 18.334205 19.959744 17.659658 20.27475 16.824219 20.486328 C 15.988779 20.697982 14.999853 20.829034 14.0625 20.90625 C 13.338837 20.965775 12.681636 20.990163 12.103516 21.001953 C 12.264826 20.689494 12.30985 20.33239 12.261719 20 C 12.19442 19.535231 11.990183 19.092003 11.730469 18.648438 C 11.293476 17.902162 10.704153 17.179855 10.189453 16.550781 C 10.829068 15.990784 12.284984 14.817906 13.619141 14.484375 C 14.581097 14.243997 15.582996 14.119732 16.460938 13.849609 C 17.338879 13.579373 18.163318 13.099898 18.476562 12.160156 C 18.758183 11.315281 19.116221 9.473987 19.429688 7.78125 C 19.718534 6.2214768 19.91011 5.0460792 19.945312 4.8359375 L 20.875 4.3710938 z "
       transform="matrix(0.26458333,0,0,0.26458333,0,290.64997)"
       id="path3865" />
  </g>
</svg>
