<?xml version="1.0" encoding="UTF-8" standalone="no"?>
<!-- Created with Inkscape (http://www.inkscape.org/) -->

<svg
   xmlns:dc="http://purl.org/dc/elements/1.1/"
   xmlns:cc="http://creativecommons.org/ns#"
   xmlns:rdf="http://www.w3.org/1999/02/22-rdf-syntax-ns#"
   xmlns:svg="http://www.w3.org/2000/svg"
   xmlns="http://www.w3.org/2000/svg"
   xmlns:sodipodi="http://sodipodi.sourceforge.net/DTD/sodipodi-0.dtd"
   xmlns:inkscape="http://www.inkscape.org/namespaces/inkscape"
   width="24"
   height="24"
   viewBox="0 0 6.3499999 6.3500002"
   version="1.1"
   id="svg8"
   sodipodi:docname="haricot.svg"
   inkscape:version="0.92.4 (5da689c313, 2019-01-14)">
  <defs
     id="defs2">
    <inkscape:path-effect
       effect="bspline"
       id="path-effect821"
       is_visible="true"
       weight="33.333333"
       steps="2"
       helper_size="0"
       apply_no_weight="true"
       apply_with_weight="true"
       only_selected="false" />
    <inkscape:path-effect
       effect="bspline"
       id="path-effect4522"
       is_visible="true"
       weight="33.333333"
       steps="2"
       helper_size="0"
       apply_no_weight="true"
       apply_with_weight="true"
       only_selected="false" />
  </defs>
  <sodipodi:namedview
     id="base"
     pagecolor="#ffffff"
     bordercolor="#666666"
     borderopacity="1.0"
     inkscape:pageopacity="0.0"
     inkscape:pageshadow="2"
     inkscape:zoom="32"
     inkscape:cx="11.461024"
     inkscape:cy="16.164537"
     inkscape:document-units="mm"
     inkscape:current-layer="layer1"
     showgrid="true"
     units="px"
     objecttolerance="20"
     inkscape:window-width="1920"
     inkscape:window-height="1017"
     inkscape:window-x="-8"
     inkscape:window-y="-8"
     inkscape:window-maximized="1"
     showguides="true"
     inkscape:guide-bbox="true">
    <inkscape:grid
       type="xygrid"
       id="grid815"
       originx="3.175"
       originy="3.175"
       spacingx="0.13229167"
       spacingy="0.13229167"
       color="#6900ff"
       opacity="0.1254902"
       empspacing="2"
       dotted="false" />
    <sodipodi:guide
       position="7.7390624,-0.11575521"
       orientation="0,1"
       id="guide1678"
       inkscape:locked="false" />
  </sodipodi:namedview>
  <metadata
     id="metadata5">
    <rdf:RDF>
      <cc:Work
         rdf:about="">
        <dc:format>image/svg+xml</dc:format>
        <dc:type
           rdf:resource="http://purl.org/dc/dcmitype/StillImage" />
        <dc:title></dc:title>
      </cc:Work>
    </rdf:RDF>
  </metadata>
  <g
     inkscape:label="Calque 1"
     inkscape:groupmode="layer"
     id="layer1"
     transform="translate(0,-290.64997)">
    <path
       style="color:#000000;font-style:normal;font-variant:normal;font-weight:normal;font-stretch:normal;font-size:medium;line-height:normal;font-family:sans-serif;font-variant-ligatures:normal;font-variant-position:normal;font-variant-caps:normal;font-variant-numeric:normal;font-variant-alternates:normal;font-feature-settings:normal;text-indent:0;text-align:start;text-decoration:none;text-decoration-line:none;text-decoration-style:solid;text-decoration-color:#000000;letter-spacing:normal;word-spacing:normal;text-transform:none;writing-mode:lr-tb;direction:ltr;text-orientation:mixed;dominant-baseline:auto;baseline-shift:baseline;text-anchor:start;white-space:normal;shape-padding:0;clip-rule:nonzero;display:inline;overflow:visible;visibility:visible;opacity:1;isolation:auto;mix-blend-mode:normal;color-interpolation:sRGB;color-interpolation-filters:linearRGB;solid-color:#000000;solid-opacity:1;vector-effect:none;fill:#000000;fill-opacity:1;fill-rule:nonzero;stroke:none;stroke-width:0.99999994px;stroke-linecap:butt;stroke-linejoin:miter;stroke-miterlimit:4;stroke-dasharray:none;stroke-dashoffset:0;stroke-opacity:1;color-rendering:auto;image-rendering:auto;shape-rendering:auto;text-rendering:auto;enable-background:accumulate"
       d="M 21.488281 1.9941406 A 0.50004998 0.50004998 0 0 0 21.148438 2.1503906 L 19.210938 4.0800781 C 17.798893 4.6929325 16.661374 6.1837815 15.472656 7.8183594 C 14.255524 9.4920098 13.012257 11.342899 11.65625 12.638672 C 10.330386 13.905645 7.9648161 15.166766 5.9121094 16.537109 C 4.885756 17.2223 3.9292406 17.939819 3.2109375 18.744141 C 2.4926345 19.548424 2 20.464308 2 21.498047 L 2 22 L 2.5019531 22 C 6.0971902 22 11.270071 20.948202 15.871094 15.835938 C 18.131565 13.324328 19.430117 11.663064 20.035156 9.9824219 C 20.615046 8.3716047 20.496752 6.7935185 20.041016 4.6601562 L 21.849609 2.8515625 A 0.50004998 0.50004998 0 0 0 21.488281 1.9941406 z M 19.023438 5.6347656 C 19.282902 7.1574617 19.503833 8.4926191 19.089844 9.6425781 C 18.569884 11.086925 17.364528 12.675697 15.125 15.164062 C 12.456996 18.128517 9.6788913 19.578472 7.1386719 20.275391 C 7.478173 20.209485 7.8276169 20.065858 8.1660156 19.853516 C 8.6214003 19.567783 8.9770545 19.206062 9.1855469 18.8125 C 9.3940067 18.418938 9.465521 17.952208 9.2246094 17.568359 C 8.9836985 17.184473 8.5329432 17.043955 8.0878906 17.060547 C 7.6428055 17.075665 7.1585101 17.235828 6.703125 17.521484 C 6.2477082 17.807217 5.9018517 18.170891 5.6933594 18.564453 C 5.4848655 18.958053 5.4075266 19.428651 5.6484375 19.8125 C 5.8893484 20.196387 6.3459309 20.331083 6.7910156 20.314453 C 6.9016514 20.310695 7.0134513 20.298806 7.1269531 20.277344 C 5.7612758 20.650872 4.4623339 20.817964 3.2929688 20.863281 C 3.4327353 20.377196 3.5256554 19.891227 3.9570312 19.408203 C 4.5773141 18.713639 5.4722815 18.035043 6.4667969 17.371094 C 8.4558277 16.04327 10.83461 14.803508 12.341797 13.363281 C 13.818841 11.951854 15.077739 10.051881 16.277344 8.4023438 C 17.242973 7.0745201 18.149206 6.2496192 19.023438 5.6347656 z M 17.902344 7.4550781 C 17.689094 7.476338 17.476152 7.5527554 17.283203 7.6640625 C 16.897305 7.8866767 16.542814 8.251537 16.273438 8.7167969 C 16.004063 9.1820945 15.867904 9.6659108 15.867188 10.111328 C 15.866471 10.556708 16.017944 11.009254 16.410156 11.236328 C 16.80237 11.463478 17.268399 11.369099 17.654297 11.146484 C 18.040195 10.924248 18.392733 10.564869 18.662109 10.099609 C 18.931484 9.6343117 19.071549 9.1445983 19.072266 8.6992188 C 19.072982 8.2538014 18.917605 7.8091053 18.525391 7.5820312 C 18.329284 7.4684564 18.115594 7.4338183 17.902344 7.4550781 z M 17.962891 8.2050781 C 18.04317 8.1947789 18.105546 8.207666 18.148438 8.2324219 C 18.234169 8.2819337 18.314903 8.4183743 18.314453 8.6972656 C 18.314002 8.9761948 18.21426 9.355424 18.003906 9.71875 C 17.793557 10.081963 17.517104 10.352912 17.275391 10.492188 C 17.033678 10.631652 16.876746 10.627637 16.791016 10.578125 C 16.705251 10.528613 16.622597 10.394088 16.623047 10.115234 C 16.623498 9.8363052 16.719338 9.4609822 16.929688 9.0976562 C 17.140037 8.7344437 17.420396 8.4596259 17.662109 8.3203125 C 17.782965 8.2505802 17.882611 8.2153773 17.962891 8.2050781 z M 15.638672 11.167969 C 15.424707 11.155874 15.203969 11.19936 14.996094 11.279297 C 14.580343 11.439171 14.172345 11.74432 13.833984 12.162109 C 13.495622 12.579936 13.280808 13.042523 13.210938 13.482422 C 13.141065 13.922283 13.22593 14.386634 13.578125 14.671875 C 13.93032 14.957229 14.402608 14.941124 14.818359 14.78125 C 15.23411 14.621376 15.640155 14.316264 15.978516 13.898438 C 16.316874 13.480611 16.531692 13.019977 16.601562 12.580078 C 16.671435 12.140217 16.586578 11.675828 16.234375 11.390625 C 16.058277 11.247948 15.852636 11.180063 15.638672 11.167969 z M 15.582031 11.923828 C 15.664101 11.924726 15.723213 11.945192 15.761719 11.976562 C 15.838145 12.039453 15.893176 12.190653 15.849609 12.464844 C 15.805842 12.740371 15.65289 13.093673 15.388672 13.419922 C 15.124453 13.746095 14.805334 13.97609 14.544922 14.076172 C 14.284509 14.176329 14.127764 14.148741 14.050781 14.087891 C 13.97377 14.025528 13.915217 13.879232 13.958984 13.603516 C 14.002751 13.327988 14.159608 12.968827 14.423828 12.642578 C 14.688047 12.316405 15.00326 12.092269 15.263672 11.992188 C 15.393878 11.942109 15.499962 11.92293 15.582031 11.923828 z M 12.365234 14.439453 C 12.254855 14.439845 12.142369 14.450726 12.033203 14.472656 C 11.596541 14.560341 11.147826 14.799248 10.744141 15.154297 C 10.340484 15.509572 10.052802 15.919926 9.9101562 16.341797 C 9.7674829 16.763743 9.7729081 17.245667 10.072266 17.585938 C 10.371619 17.926095 10.844588 17.986312 11.28125 17.898438 C 11.717884 17.810752 12.160796 17.577743 12.564453 17.222656 C 12.968138 16.867381 13.261623 16.453159 13.404297 16.03125 C 13.54697 15.609341 13.541541 15.137108 13.242188 14.796875 C 13.017672 14.541757 12.696371 14.438279 12.365234 14.439453 z M 12.507812 15.207031 C 12.588418 15.224228 12.643052 15.257505 12.675781 15.294922 C 12.741216 15.369379 12.776856 15.522694 12.6875 15.787109 C 12.59816 16.051298 12.381613 16.378908 12.066406 16.65625 C 11.751201 16.933667 11.402389 17.101296 11.128906 17.15625 C 10.855397 17.211053 10.708012 17.158328 10.642578 17.083984 C 10.57712 17.009528 10.537582 16.850278 10.626953 16.585938 C 10.716294 16.321749 10.926982 15.998007 11.242188 15.720703 C 11.557393 15.443286 11.912064 15.269798 12.185547 15.214844 C 12.322302 15.187253 12.427207 15.189834 12.507812 15.207031 z M 8.1132812 17.8125 C 8.3920668 17.801161 8.5332588 17.884844 8.5859375 17.96875 C 8.6385977 18.052656 8.6481759 18.208615 8.5175781 18.455078 C 8.3869841 18.701503 8.1212253 18.9917 7.765625 19.214844 C 7.4100244 19.438214 7.0405058 19.548011 6.7617188 19.558594 C 6.4829332 19.569932 6.3436743 19.492109 6.2910156 19.408203 C 6.2383366 19.324298 6.2268241 19.160752 6.3574219 18.914062 C 6.4880159 18.667637 6.7518212 18.389197 7.1074219 18.166016 C 7.4630225 17.942646 7.8344942 17.823083 8.1132812 17.8125 z "
       transform="matrix(0.26458333,0,0,0.26458333,0,290.64997)"
       id="path1612" />
  </g>
</svg>
