<?xml version="1.0" encoding="UTF-8" standalone="no"?>
<!-- Created with Inkscape (http://www.inkscape.org/) -->

<svg
   xmlns:dc="http://purl.org/dc/elements/1.1/"
   xmlns:cc="http://creativecommons.org/ns#"
   xmlns:rdf="http://www.w3.org/1999/02/22-rdf-syntax-ns#"
   xmlns:svg="http://www.w3.org/2000/svg"
   xmlns="http://www.w3.org/2000/svg"
   xmlns:sodipodi="http://sodipodi.sourceforge.net/DTD/sodipodi-0.dtd"
   xmlns:inkscape="http://www.inkscape.org/namespaces/inkscape"
   width="24"
   height="24"
   viewBox="0 0 6.3499999 6.3500002"
   version="1.1"
   id="svg8"
   sodipodi:docname="haricot.svg"
   inkscape:version="0.92.4 (5da689c313, 2019-01-14)">
  <defs
     id="defs2">
    <inkscape:path-effect
       effect="bspline"
       id="path-effect4522"
       is_visible="true"
       weight="33.333333"
       steps="2"
       helper_size="0"
       apply_no_weight="true"
       apply_with_weight="true"
       only_selected="false" />
  </defs>
  <sodipodi:namedview
     id="base"
     pagecolor="#ffffff"
     bordercolor="#666666"
     borderopacity="1.0"
     inkscape:pageopacity="0.0"
     inkscape:pageshadow="2"
     inkscape:zoom="22.627417"
     inkscape:cx="-2.0914339"
     inkscape:cy="13.852999"
     inkscape:document-units="mm"
     inkscape:current-layer="layer1"
     showgrid="true"
     units="px"
     objecttolerance="20"
     inkscape:window-width="1920"
     inkscape:window-height="1017"
     inkscape:window-x="1592"
     inkscape:window-y="126"
     inkscape:window-maximized="1">
    <inkscape:grid
       type="xygrid"
       id="grid815"
       originx="3.175"
       originy="3.175"
       spacingx="0.13229167"
       spacingy="0.13229167"
       color="#6900ff"
       opacity="0.1254902"
       empspacing="2"
       dotted="false" />
  </sodipodi:namedview>
  <metadata
     id="metadata5">
    <rdf:RDF>
      <cc:Work
         rdf:about="">
        <dc:format>image/svg+xml</dc:format>
        <dc:type
           rdf:resource="http://purl.org/dc/dcmitype/StillImage" />
        <dc:title></dc:title>
      </cc:Work>
    </rdf:RDF>
  </metadata>
  <g
     inkscape:label="Calque 1"
     inkscape:groupmode="layer"
     id="layer1"
     transform="translate(0,-290.64997)">
    <path
       style="color:#000000;font-style:normal;font-variant:normal;font-weight:normal;font-stretch:normal;font-size:medium;line-height:normal;font-family:sans-serif;font-variant-ligatures:normal;font-variant-position:normal;font-variant-caps:normal;font-variant-numeric:normal;font-variant-alternates:normal;font-feature-settings:normal;text-indent:0;text-align:start;text-decoration:none;text-decoration-line:none;text-decoration-style:solid;text-decoration-color:#000000;letter-spacing:normal;word-spacing:normal;text-transform:none;writing-mode:lr-tb;direction:ltr;text-orientation:mixed;dominant-baseline:auto;baseline-shift:baseline;text-anchor:start;white-space:normal;shape-padding:0;clip-rule:nonzero;display:inline;overflow:visible;visibility:visible;opacity:1;isolation:auto;mix-blend-mode:normal;color-interpolation:sRGB;color-interpolation-filters:linearRGB;solid-color:#000000;solid-opacity:1;vector-effect:none;fill:#000000;fill-opacity:1;fill-rule:evenodd;stroke:none;stroke-width:0.69999999;stroke-linecap:butt;stroke-linejoin:miter;stroke-miterlimit:4;stroke-dasharray:none;stroke-dashoffset:0;stroke-opacity:1;color-rendering:auto;image-rendering:auto;shape-rendering:auto;text-rendering:auto;enable-background:accumulate"
       d="M 21.820312 6.1210938 L 20.824219 6.6972656 C 19.888664 7.2394766 20.192688 7.2189001 19.023438 7.1464844 L 18.027344 7.0878906 L 18.699219 7.6992188 C 13.594608 7.9335145 8.4457799 9.1484375 2.5019531 9.1484375 L 1.4550781 9.1484375 L 2.2890625 9.7832031 C 2.3507969 9.8296913 2.4473021 9.7897639 2.5097656 9.8339844 L 2.5019531 9.8496094 C 2.5213912 9.8496094 2.5352687 9.8417969 2.5546875 9.8417969 C 4.3747328 11.095466 6.4626681 11.278566 8.9902344 11.347656 L 9.0058594 11.347656 L 9.0214844 11.347656 C 11.724421 11.187404 13.344345 10.821537 14.859375 10.298828 C 16.132559 9.8595602 17.35439 9.3177414 19.089844 8.6953125 L 18.855469 9.5878906 L 18.498047 9.40625 L 18.912109 10.306641 C 19.032083 10.57185 19.030921 10.600848 19.058594 10.689453 C 12.36669 11.200222 9.8497538 12.136586 3.5292969 11.650391 L 2.1933594 11.546875 L 3.3066406 12.292969 C 3.3475026 12.319425 3.4346759 12.303621 3.4765625 12.330078 L 3.46875 12.353516 C 3.4988993 12.355821 3.5129876 12.341924 3.5429688 12.345703 C 5.1519261 13.331404 7.4294657 13.690403 9.9804688 13.851562 L 10.001953 13.851562 L 10.017578 13.851562 C 12.711615 13.691688 13.96318 13.455317 15.111328 13.054688 C 16.050481 12.726952 16.940979 12.29706 18.5 11.728516 L 18.226562 12.078125 L 19.421875 11.605469 C 19.694757 11.497374 19.943267 11.486754 20.285156 11.40625 C 20.627045 11.325746 21.02722 11.160661 21.488281 10.765625 L 22.367188 10.019531 L 21.222656 10.152344 C 20.148743 10.278958 20.429309 10.38769 19.384766 9.8574219 L 18.888672 9.6054688 L 19.746094 8.75 C 19.953688 8.5425039 20.181065 8.4266362 20.462891 8.2167969 C 20.744715 8.0070331 21.044068 7.6998339 21.310547 7.1542969 L 21.820312 6.1210938 z M 20.115234 7.5683594 C 20.091234 7.587257 20.06556 7.6381083 20.041016 7.65625 C 20.030479 7.6640926 20.015536 7.6763833 20.003906 7.6855469 L 19.998047 7.6484375 C 19.915376 7.6492447 19.832664 7.6567852 19.75 7.6582031 C 19.879358 7.632399 20.019903 7.5966374 20.115234 7.5683594 z M 17.494141 8.5644531 C 16.56034 8.9314453 15.42997 9.3590491 14.630859 9.6347656 C 13.168213 10.139408 11.634863 10.496161 8.9902344 10.654297 C 7.1855198 10.604785 5.968842 10.110992 4.6582031 9.6640625 C 9.2899397 9.4342672 13.482811 8.853587 17.494141 8.5644531 z M 19.738281 10.587891 C 19.887104 10.640048 20.102725 10.652851 20.234375 10.667969 C 20.202211 10.675528 20.155309 10.719003 20.123047 10.726562 C 20.034697 10.74924 19.90359 10.783773 19.804688 10.800781 C 19.798036 10.739931 19.756493 10.648741 19.738281 10.587891 z M 17.228516 11.488281 C 16.487686 11.789132 15.439952 12.19157 14.875 12.388672 C 13.798393 12.764357 12.640993 12.982679 10.009766 13.140625 C 8.3004013 13.031775 7.1416911 12.581305 5.8613281 12.203125 C 9.781411 12.273046 13.067325 11.914461 17.228516 11.488281 z M 21.820312 12.123047 L 20.824219 12.699219 C 19.888682 13.241468 20.19269 13.220815 19.023438 13.148438 L 18.027344 13.089844 L 18.679688 13.683594 C 13.561072 13.861492 9.6193201 15.148438 3.4980469 15.148438 L 2.2363281 15.148438 L 3.3222656 15.798828 C 3.3905915 15.839647 3.4311976 15.803309 3.4980469 15.84375 L 3.4980469 15.851562 L 3.5292969 15.851562 C 5.9455899 17.238762 7.4559129 17.190113 9.9804688 17.349609 L 10.001953 17.349609 L 10.017578 17.349609 C 12.72244 17.189357 13.994635 16.815412 15.140625 16.287109 C 16.197169 15.800076 17.17423 15.20058 19.138672 14.503906 L 18.837891 15.650391 L 19.746094 14.75 C 19.953681 14.542504 20.181072 14.428589 20.462891 14.21875 C 20.744711 14.008986 21.044087 13.701787 21.310547 13.15625 L 21.820312 12.123047 z M 20.115234 13.570312 C 20.091234 13.58921 20.06556 13.640061 20.041016 13.658203 C 19.968403 13.71225 19.866916 13.802997 19.783203 13.857422 C 19.752778 13.803753 19.678014 13.736634 19.636719 13.6875 C 19.791207 13.676161 19.990366 13.607352 20.115234 13.570312 z M 17.361328 14.550781 C 16.543106 14.929225 15.446604 15.373351 14.845703 15.650391 C 13.765374 16.148381 12.630508 16.482225 10.001953 16.640625 C 8.1888314 16.527239 6.9869845 16.08738 5.6464844 15.650391 C 9.9995568 15.403587 13.615881 14.825251 17.361328 14.550781 z "
       transform="matrix(0.26458333,0,0,0.26458333,0,290.64997)"
       id="path5274" />
  </g>
</svg>
