<?xml version="1.0" encoding="UTF-8" standalone="no"?>
<!-- Created with Inkscape (http://www.inkscape.org/) -->

<svg
   xmlns:dc="http://purl.org/dc/elements/1.1/"
   xmlns:cc="http://creativecommons.org/ns#"
   xmlns:rdf="http://www.w3.org/1999/02/22-rdf-syntax-ns#"
   xmlns:svg="http://www.w3.org/2000/svg"
   xmlns="http://www.w3.org/2000/svg"
   xmlns:sodipodi="http://sodipodi.sourceforge.net/DTD/sodipodi-0.dtd"
   xmlns:inkscape="http://www.inkscape.org/namespaces/inkscape"
   width="24"
   height="24"
   viewBox="0 0 6.3499999 6.3500002"
   version="1.1"
   id="svg8"
   sodipodi:docname="melon.svg"
   inkscape:version="0.92.4 (5da689c313, 2019-01-14)">
  <defs
     id="defs2">
    <inkscape:path-effect
       effect="bspline"
       id="path-effect821"
       is_visible="true"
       weight="33.333333"
       steps="2"
       helper_size="0"
       apply_no_weight="true"
       apply_with_weight="true"
       only_selected="false" />
    <inkscape:path-effect
       effect="bspline"
       id="path-effect4522"
       is_visible="true"
       weight="33.333333"
       steps="2"
       helper_size="0"
       apply_no_weight="true"
       apply_with_weight="true"
       only_selected="false" />
  </defs>
  <sodipodi:namedview
     id="base"
     pagecolor="#ffffff"
     bordercolor="#666666"
     borderopacity="1.0"
     inkscape:pageopacity="0.0"
     inkscape:pageshadow="2"
     inkscape:zoom="32"
     inkscape:cx="6.8814308"
     inkscape:cy="10.394571"
     inkscape:document-units="mm"
     inkscape:current-layer="layer1"
     showgrid="true"
     units="px"
     objecttolerance="20"
     inkscape:window-width="1920"
     inkscape:window-height="1017"
     inkscape:window-x="-8"
     inkscape:window-y="-8"
     inkscape:window-maximized="1"
     showguides="true"
     inkscape:guide-bbox="true">
    <inkscape:grid
       type="xygrid"
       id="grid815"
       originx="3.175"
       originy="3.175"
       spacingx="0.13229167"
       spacingy="0.13229167"
       color="#6900ff"
       opacity="0.1254902"
       empspacing="2"
       dotted="false" />
    <sodipodi:guide
       position="7.7390624,-0.11575521"
       orientation="0,1"
       id="guide1678"
       inkscape:locked="false" />
  </sodipodi:namedview>
  <metadata
     id="metadata5">
    <rdf:RDF>
      <cc:Work
         rdf:about="">
        <dc:format>image/svg+xml</dc:format>
        <dc:type
           rdf:resource="http://purl.org/dc/dcmitype/StillImage" />
        <dc:title></dc:title>
      </cc:Work>
    </rdf:RDF>
  </metadata>
  <g
     inkscape:label="Calque 1"
     inkscape:groupmode="layer"
     id="layer1"
     transform="translate(0,-290.64997)">
    <path
       style="color:#000000;font-style:normal;font-variant:normal;font-weight:normal;font-stretch:normal;font-size:medium;line-height:normal;font-family:sans-serif;font-variant-ligatures:normal;font-variant-position:normal;font-variant-caps:normal;font-variant-numeric:normal;font-variant-alternates:normal;font-feature-settings:normal;text-indent:0;text-align:start;text-decoration:none;text-decoration-line:none;text-decoration-style:solid;text-decoration-color:#000000;letter-spacing:normal;word-spacing:normal;text-transform:none;writing-mode:lr-tb;direction:ltr;text-orientation:mixed;dominant-baseline:auto;baseline-shift:baseline;text-anchor:start;white-space:normal;shape-padding:0;clip-rule:nonzero;display:inline;overflow:visible;visibility:visible;opacity:1;isolation:auto;mix-blend-mode:normal;color-interpolation:sRGB;color-interpolation-filters:linearRGB;solid-color:#000000;solid-opacity:1;vector-effect:none;fill:#000000;fill-opacity:1;fill-rule:nonzero;stroke:none;stroke-width:0.99999994;stroke-linecap:round;stroke-linejoin:miter;stroke-miterlimit:4;stroke-dasharray:none;stroke-dashoffset:0;stroke-opacity:1;color-rendering:auto;image-rendering:auto;shape-rendering:auto;text-rendering:auto;enable-background:accumulate"
       d="M 13.472656 1.9941406 A 0.50004998 0.50004998 0 0 0 13.294922 2.046875 C 12.827381 2.2566388 12.240747 2.4703103 11.767578 2.9921875 C 11.359339 3.4424389 11.162664 4.2009282 11.095703 5.1425781 C 6.3526672 5.237407 2.5097656 8.9530398 2.5097656 13.546875 C 2.5097656 18.026387 6.1646307 21.670572 10.744141 21.9375 A 0.50004998 0.50004998 0 0 0 11.251953 21.960938 C 11.261181 21.960965 11.270063 21.962891 11.279297 21.962891 C 16.107223 21.962891 20.056641 18.200381 20.056641 13.546875 C 20.056641 9.1352712 16.505864 5.5314366 12.023438 5.1679688 C 12.072137 4.3686928 12.263857 3.9354734 12.511719 3.6621094 C 12.794065 3.3506763 13.208561 3.1797332 13.708984 2.9550781 A 0.50004998 0.50004998 0 0 0 13.472656 1.9941406 z M 9.8886719 6.2597656 C 7.2892617 8.6950577 5.9995323 11.156235 6.0019531 13.628906 C 6.0043625 16.08986 7.2616285 18.463997 9.5 20.757812 C 6.055315 19.990947 3.5058594 17.053455 3.5058594 13.546875 C 3.5058593 9.9094687 6.2483959 6.8844887 9.8886719 6.2597656 z M 11.230469 6.3925781 C 12.924691 12.433403 12.901086 14.098692 10.767578 20.597656 C 8.2933304 18.245177 7.0002921 15.922346 6.9980469 13.628906 C 6.9957822 11.31558 8.3010647 8.9125402 11.230469 6.3925781 z M 13.369141 6.4140625 C 16.654919 7.2843387 19.052734 10.146712 19.052734 13.546875 C 19.052734 17.13013 16.393314 20.124964 12.833984 20.810547 C 16.258721 18.190226 17.678411 15.613643 17.480469 13.082031 C 17.293964 10.696697 15.714585 8.5076723 13.369141 6.4140625 z M 12.396484 6.8828125 C 14.80972 8.9767954 16.321775 11.084488 16.484375 13.164062 C 16.654072 15.334442 15.404244 17.666264 11.927734 20.234375 C 13.769118 14.465915 13.830451 12.210454 12.396484 6.8828125 z "
       transform="matrix(0.26458333,0,0,0.26458333,0,290.64997)"
       id="path1743" />
  </g>
</svg>
