<?xml version="1.0" encoding="UTF-8" standalone="no"?>
<!-- Created with Inkscape (http://www.inkscape.org/) -->

<svg
   xmlns:dc="http://purl.org/dc/elements/1.1/"
   xmlns:cc="http://creativecommons.org/ns#"
   xmlns:rdf="http://www.w3.org/1999/02/22-rdf-syntax-ns#"
   xmlns:svg="http://www.w3.org/2000/svg"
   xmlns="http://www.w3.org/2000/svg"
   xmlns:sodipodi="http://sodipodi.sourceforge.net/DTD/sodipodi-0.dtd"
   xmlns:inkscape="http://www.inkscape.org/namespaces/inkscape"
   width="24"
   height="24"
   viewBox="0 0 6.3499999 6.3500002"
   version="1.1"
   id="svg8"
   sodipodi:docname="navet.svg"
   inkscape:version="0.92.4 (5da689c313, 2019-01-14)">
  <defs
     id="defs2">
    <inkscape:path-effect
       effect="bspline"
       id="path-effect4522"
       is_visible="true"
       weight="33.333333"
       steps="2"
       helper_size="0"
       apply_no_weight="true"
       apply_with_weight="true"
       only_selected="false" />
  </defs>
  <sodipodi:namedview
     id="base"
     pagecolor="#ffffff"
     bordercolor="#666666"
     borderopacity="1.0"
     inkscape:pageopacity="0.0"
     inkscape:pageshadow="2"
     inkscape:zoom="32"
     inkscape:cx="9.242373"
     inkscape:cy="12.100096"
     inkscape:document-units="mm"
     inkscape:current-layer="layer1"
     showgrid="true"
     units="px"
     objecttolerance="20"
     inkscape:window-width="1920"
     inkscape:window-height="1017"
     inkscape:window-x="1592"
     inkscape:window-y="126"
     inkscape:window-maximized="1">
    <inkscape:grid
       type="xygrid"
       id="grid815"
       originx="3.175"
       originy="3.175"
       spacingx="0.13229167"
       spacingy="0.13229167"
       color="#6900ff"
       opacity="0.1254902"
       empspacing="2"
       dotted="false" />
  </sodipodi:namedview>
  <metadata
     id="metadata5">
    <rdf:RDF>
      <cc:Work
         rdf:about="">
        <dc:format>image/svg+xml</dc:format>
        <dc:type
           rdf:resource="http://purl.org/dc/dcmitype/StillImage" />
        <dc:title></dc:title>
      </cc:Work>
    </rdf:RDF>
  </metadata>
  <g
     inkscape:label="Calque 1"
     inkscape:groupmode="layer"
     id="layer1"
     transform="translate(0,-290.64997)">
    <path
       style="color:#000000;font-style:normal;font-variant:normal;font-weight:normal;font-stretch:normal;font-size:medium;line-height:normal;font-family:sans-serif;font-variant-ligatures:normal;font-variant-position:normal;font-variant-caps:normal;font-variant-numeric:normal;font-variant-alternates:normal;font-feature-settings:normal;text-indent:0;text-align:start;text-decoration:none;text-decoration-line:none;text-decoration-style:solid;text-decoration-color:#000000;letter-spacing:normal;word-spacing:normal;text-transform:none;writing-mode:lr-tb;direction:ltr;text-orientation:mixed;dominant-baseline:auto;baseline-shift:baseline;text-anchor:start;white-space:normal;shape-padding:0;clip-rule:nonzero;display:inline;overflow:visible;visibility:visible;opacity:1;isolation:auto;mix-blend-mode:normal;color-interpolation:sRGB;color-interpolation-filters:linearRGB;solid-color:#000000;solid-opacity:1;vector-effect:none;fill:#000000;fill-opacity:1;fill-rule:evenodd;stroke:none;stroke-width:0.99999994px;stroke-linecap:butt;stroke-linejoin:miter;stroke-miterlimit:4;stroke-dasharray:none;stroke-dashoffset:0;stroke-opacity:1;color-rendering:auto;image-rendering:auto;shape-rendering:auto;text-rendering:auto;enable-background:accumulate"
       d="M 20.011719 3.4902344 A 0.50004998 0.50004998 0 0 0 19.953125 3.4941406 A 0.50004998 0.50004998 0 0 0 19.525391 3.8398438 L 18.777344 6.0957031 C 17.726329 5.1910435 16.380017 4.6126999 14.925781 4.3710938 C 13.183427 4.0815819 11.299862 4.2701355 9.6191406 4.9335938 C 7.9384195 5.5970142 6.4461525 6.7609538 5.5507812 8.4472656 C 4.65541 10.13354 4.3680996 12.323294 5.0117188 14.964844 C 5.7352318 17.93423 5.0407021 19.062359 4.3105469 19.652344 C 3.945471 19.947525 3.5419383 20.102857 3.21875 20.220703 C 3.0571559 20.279664 2.9279209 20.308804 2.7539062 20.419922 C 2.6668989 20.475481 2.5211415 20.578851 2.4726562 20.818359 C 2.424171 21.057603 2.5602149 21.25943 2.6503906 21.349609 C 2.7921274 21.491342 2.9995861 21.544795 3.1445312 21.541016 C 3.2894765 21.537274 3.3915734 21.501378 3.4980469 21.460938 C 3.7109942 21.380056 3.9214645 21.262826 4.1640625 21.121094 C 4.6492586 20.837251 5.2596715 20.451384 5.9941406 20.109375 C 7.4630793 19.425394 9.3650284 18.914132 11.603516 19.748047 C 13.597408 20.490875 15.414472 20.361443 16.882812 19.636719 C 18.351153 18.912032 19.46632 17.624954 20.189453 16.117188 C 21.547961 13.28467 21.575227 9.6179281 19.746094 7.1347656 L 21.753906 5.9296875 A 0.50004998 0.50004998 0 0 0 21.466797 5 A 0.50004998 0.50004998 0 0 0 21.244141 5.0722656 L 19.900391 5.8789062 L 20.476562 4.1582031 A 0.50004998 0.50004998 0 0 0 20.011719 3.4902344 z M 13.550781 5.265625 C 13.953098 5.2789472 14.352963 5.3182487 14.742188 5.3828125 C 16.24127 5.6313681 17.596447 6.2574889 18.515625 7.2226562 A 0.50004998 0.50004998 0 0 0 18.755859 7.4941406 C 20.472508 9.585898 20.547727 13.057297 19.289062 15.681641 C 18.699593 16.91068 17.82931 17.932599 16.75 18.5625 A 0.50220918 0.50220918 0 0 0 16.564453 18.5 C 14.790897 18.278142 11.927821 16.585301 9.9355469 14.351562 C 8.9394101 13.234674 8.1507014 11.991565 7.765625 10.763672 C 7.3805486 9.535779 7.3902711 8.3425047 7.9511719 7.2207031 A 0.50004998 0.50004998 0 0 0 8.0039062 7.0117188 C 8.5906063 6.5307559 9.258805 6.1481492 9.9804688 5.8632812 C 10.48331 5.6647908 11.012583 5.5333946 11.548828 5.4335938 C 11.625869 5.8066079 11.793214 6.1775746 12.009766 6.5566406 C 12.311595 7.084943 12.716712 7.6223462 13.162109 8.1152344 C 13.607507 8.6080848 14.091328 9.0522439 14.564453 9.390625 C 15.037578 9.7288927 15.481742 9.9898464 15.988281 10.003906 A 0.50210009 0.50210009 0 1 0 16.011719 9 C 15.905344 8.997052 15.543571 8.8625222 15.148438 8.5800781 C 14.753304 8.2973695 14.312248 7.8904397 13.908203 7.4433594 C 13.504158 6.9962791 13.135494 6.5082197 12.880859 6.0625 C 12.711325 5.7657412 12.619727 5.5105026 12.5625 5.296875 C 12.892794 5.2728692 13.222446 5.2547526 13.550781 5.265625 z M 6.5195312 8.7734375 C 6.4702946 9.5417943 6.5789349 10.315429 6.8144531 11.066406 C 7.2575014 12.479156 8.1250432 13.827822 9.1914062 15.023438 C 10.92227 16.964097 13.146346 18.502557 15.115234 19.167969 C 14.184872 19.334532 13.139358 19.250371 11.958984 18.810547 C 9.4603274 17.879687 7.2787812 18.473915 5.6835938 19.201172 C 6.200189 18.218533 6.5201921 16.919546 5.9863281 14.728516 C 5.388258 12.273901 5.6677251 10.361861 6.4375 8.9121094 C 6.4629722 8.8641364 6.4929619 8.8204431 6.5195312 8.7734375 z "
       transform="matrix(0.26458333,0,0,0.26458333,0,290.64997)"
       id="path4677" />
  </g>
</svg>
