<?xml version="1.0" encoding="UTF-8" standalone="no"?>
<!-- Created with Inkscape (http://www.inkscape.org/) -->

<svg
   xmlns:dc="http://purl.org/dc/elements/1.1/"
   xmlns:cc="http://creativecommons.org/ns#"
   xmlns:rdf="http://www.w3.org/1999/02/22-rdf-syntax-ns#"
   xmlns:svg="http://www.w3.org/2000/svg"
   xmlns="http://www.w3.org/2000/svg"
   xmlns:sodipodi="http://sodipodi.sourceforge.net/DTD/sodipodi-0.dtd"
   xmlns:inkscape="http://www.inkscape.org/namespaces/inkscape"
   width="24"
   height="24"
   viewBox="0 0 6.3499999 6.3500002"
   version="1.1"
   id="svg8"
   sodipodi:docname="oignon.svg"
   inkscape:version="0.92.4 (5da689c313, 2019-01-14)">
  <defs
     id="defs2">
    <inkscape:path-effect
       effect="bspline"
       id="path-effect4522"
       is_visible="true"
       weight="33.333333"
       steps="2"
       helper_size="0"
       apply_no_weight="true"
       apply_with_weight="true"
       only_selected="false" />
  </defs>
  <sodipodi:namedview
     id="base"
     pagecolor="#ffffff"
     bordercolor="#666666"
     borderopacity="1.0"
     inkscape:pageopacity="0.0"
     inkscape:pageshadow="2"
     inkscape:zoom="32"
     inkscape:cx="12.381017"
     inkscape:cy="11.998419"
     inkscape:document-units="mm"
     inkscape:current-layer="layer1"
     showgrid="true"
     units="px"
     objecttolerance="20"
     inkscape:window-width="1920"
     inkscape:window-height="1017"
     inkscape:window-x="1592"
     inkscape:window-y="126"
     inkscape:window-maximized="1">
    <inkscape:grid
       type="xygrid"
       id="grid815"
       originx="3.175"
       originy="3.175"
       spacingx="0.13229167"
       spacingy="0.13229167"
       color="#6900ff"
       opacity="0.1254902"
       empspacing="2"
       dotted="false" />
  </sodipodi:namedview>
  <metadata
     id="metadata5">
    <rdf:RDF>
      <cc:Work
         rdf:about="">
        <dc:format>image/svg+xml</dc:format>
        <dc:type
           rdf:resource="http://purl.org/dc/dcmitype/StillImage" />
        <dc:title></dc:title>
      </cc:Work>
    </rdf:RDF>
  </metadata>
  <g
     inkscape:label="Calque 1"
     inkscape:groupmode="layer"
     id="layer1"
     transform="translate(0,-290.64997)">
    <path
       style="color:#000000;font-style:normal;font-variant:normal;font-weight:normal;font-stretch:normal;font-size:medium;line-height:normal;font-family:sans-serif;font-variant-ligatures:normal;font-variant-position:normal;font-variant-caps:normal;font-variant-numeric:normal;font-variant-alternates:normal;font-feature-settings:normal;text-indent:0;text-align:start;text-decoration:none;text-decoration-line:none;text-decoration-style:solid;text-decoration-color:#000000;letter-spacing:normal;word-spacing:normal;text-transform:none;writing-mode:lr-tb;direction:ltr;text-orientation:mixed;dominant-baseline:auto;baseline-shift:baseline;text-anchor:start;white-space:normal;shape-padding:0;clip-rule:nonzero;display:inline;overflow:visible;visibility:visible;opacity:1;isolation:auto;mix-blend-mode:normal;color-interpolation:sRGB;color-interpolation-filters:linearRGB;solid-color:#000000;solid-opacity:1;vector-effect:none;fill:#000000;fill-opacity:1;fill-rule:evenodd;stroke:none;stroke-width:0.99999994px;stroke-linecap:round;stroke-linejoin:round;stroke-miterlimit:4;stroke-dasharray:none;stroke-dashoffset:0;stroke-opacity:1;color-rendering:auto;image-rendering:auto;shape-rendering:auto;text-rendering:auto;enable-background:accumulate"
       d="M 11.501953 2.4960938 C 11.501953 4.468289 9.7693624 6.2754425 7.890625 8.2167969 C 6.011888 10.158151 4.0019527 12.251931 4.0019531 15.001953 C 4.0019531 17.639572 5.1319066 19.464533 6.703125 20.552734 C 7.9070436 21.38655 9.3430635 21.802314 10.744141 21.941406 A 0.50083744 0.50083744 0 0 0 11.236328 21.964844 C 11.495175 21.9786 11.757512 22.004006 12.009766 22 C 12.256687 21.996276 12.514126 21.968042 12.767578 21.949219 A 0.50371313 0.50371313 0 0 0 13.291016 21.912109 C 14.676785 21.747912 16.098239 21.333395 17.294922 20.515625 C 18.865439 19.442428 19.998047 17.639572 19.998047 15.001953 C 19.998047 12.251931 17.986159 10.158151 16.107422 8.2167969 C 14.228684 6.2754425 12.498047 4.468289 12.498047 2.4960938 L 11.501953 2.4960938 z M 12.003906 3.8769531 C 12.582982 5.7282035 13.895909 7.3675676 15.390625 8.9121094 C 17.261888 10.845753 19.001953 12.751963 19.001953 15.001953 C 19.001953 17.364347 18.070945 18.776092 16.734375 19.689453 C 15.920309 20.245731 14.937316 20.583639 13.929688 20.783203 C 14.139872 20.362033 14.382491 19.872053 14.646484 19.283203 C 15.259652 17.915505 15.902632 16.296965 15.996094 15.039062 C 16.092351 13.743554 15.565618 12.00157 15.037109 10.505859 C 14.508601 9.0101491 13.958984 7.796875 13.958984 7.796875 A 0.50083744 0.50083744 0 0 0 13.427734 7.4941406 A 0.50083744 0.50083744 0 0 0 13.042969 8.203125 C 13.042969 8.203125 13.579177 9.3871568 14.091797 10.837891 C 14.604416 12.288624 15.068255 14.046192 15 14.964844 C 14.928949 15.921102 14.326173 17.548222 13.730469 18.876953 C 13.267404 19.909857 12.897245 20.61787 12.71875 20.953125 C 12.476771 20.972442 12.232832 21.000139 11.996094 21.003906 C 11.765058 21.007713 11.525565 20.98381 11.289062 20.970703 C 11.11689 20.647898 10.738292 19.926919 10.267578 18.876953 C 9.6718736 17.548222 9.0690971 15.921102 8.9980469 14.964844 C 8.9297924 14.046192 9.4014429 12.288624 9.9140625 10.837891 C 10.426682 9.3871568 10.955078 8.203125 10.955078 8.203125 A 0.50083744 0.50083744 0 0 0 10.460938 7.4941406 A 0.50083744 0.50083744 0 0 0 10.046875 7.796875 C 10.046875 7.796875 9.4972583 9.0101491 8.96875 10.505859 C 8.4402417 12.00157 7.9056969 13.743554 8.0019531 15.039062 C 8.0954133 16.296965 8.7403481 17.915505 9.3535156 19.283203 C 9.6247389 19.888179 9.8770676 20.398109 10.091797 20.824219 C 9.0801866 20.637604 8.090817 20.299988 7.2714844 19.732422 C 5.935616 18.807231 4.9980469 17.364347 4.9980469 15.001953 C 4.9980469 12.751963 6.7361585 10.845753 8.6074219 8.9121094 C 10.102781 7.3669251 11.425451 5.729224 12.003906 3.8769531 z "
       transform="matrix(0.26458333,0,0,0.26458333,0,290.64997)"
       id="path5254" />
  </g>
</svg>
