<?xml version="1.0" encoding="UTF-8" standalone="no"?>
<!-- Created with Inkscape (http://www.inkscape.org/) -->

<svg
   xmlns:dc="http://purl.org/dc/elements/1.1/"
   xmlns:cc="http://creativecommons.org/ns#"
   xmlns:rdf="http://www.w3.org/1999/02/22-rdf-syntax-ns#"
   xmlns:svg="http://www.w3.org/2000/svg"
   xmlns="http://www.w3.org/2000/svg"
   xmlns:sodipodi="http://sodipodi.sourceforge.net/DTD/sodipodi-0.dtd"
   xmlns:inkscape="http://www.inkscape.org/namespaces/inkscape"
   width="24"
   height="24"
   viewBox="0 0 6.3499999 6.3500002"
   version="1.1"
   id="svg8"
   sodipodi:docname="panais.svg"
   inkscape:version="0.92.4 (5da689c313, 2019-01-14)">
  <defs
     id="defs2">
    <inkscape:path-effect
       effect="bspline"
       id="path-effect4522"
       is_visible="true"
       weight="33.333333"
       steps="2"
       helper_size="0"
       apply_no_weight="true"
       apply_with_weight="true"
       only_selected="false" />
  </defs>
  <sodipodi:namedview
     id="base"
     pagecolor="#ffffff"
     bordercolor="#666666"
     borderopacity="1.0"
     inkscape:pageopacity="0.0"
     inkscape:pageshadow="2"
     inkscape:zoom="32"
     inkscape:cx="6.634857"
     inkscape:cy="13.043265"
     inkscape:document-units="mm"
     inkscape:current-layer="layer1"
     showgrid="true"
     units="px"
     objecttolerance="20"
     inkscape:window-width="1920"
     inkscape:window-height="1017"
     inkscape:window-x="1592"
     inkscape:window-y="126"
     inkscape:window-maximized="1">
    <inkscape:grid
       type="xygrid"
       id="grid815"
       originx="3.175"
       originy="3.175"
       spacingx="0.13229167"
       spacingy="0.13229167"
       color="#6900ff"
       opacity="0.1254902"
       empspacing="2"
       dotted="false" />
  </sodipodi:namedview>
  <metadata
     id="metadata5">
    <rdf:RDF>
      <cc:Work
         rdf:about="">
        <dc:format>image/svg+xml</dc:format>
        <dc:type
           rdf:resource="http://purl.org/dc/dcmitype/StillImage" />
        <dc:title></dc:title>
      </cc:Work>
    </rdf:RDF>
  </metadata>
  <g
     inkscape:label="Calque 1"
     inkscape:groupmode="layer"
     id="layer1"
     transform="translate(0,-290.64997)">
    <path
       style="color:#000000;font-style:normal;font-variant:normal;font-weight:normal;font-stretch:normal;font-size:medium;line-height:normal;font-family:sans-serif;font-variant-ligatures:normal;font-variant-position:normal;font-variant-caps:normal;font-variant-numeric:normal;font-variant-alternates:normal;font-feature-settings:normal;text-indent:0;text-align:start;text-decoration:none;text-decoration-line:none;text-decoration-style:solid;text-decoration-color:#000000;letter-spacing:normal;word-spacing:normal;text-transform:none;writing-mode:lr-tb;direction:ltr;text-orientation:mixed;dominant-baseline:auto;baseline-shift:baseline;text-anchor:start;white-space:normal;shape-padding:0;clip-rule:nonzero;display:inline;overflow:visible;visibility:visible;opacity:1;isolation:auto;mix-blend-mode:normal;color-interpolation:sRGB;color-interpolation-filters:linearRGB;solid-color:#000000;solid-opacity:1;vector-effect:none;fill:#000000;fill-opacity:1;fill-rule:evenodd;stroke:none;stroke-width:0.99999994px;stroke-linecap:butt;stroke-linejoin:miter;stroke-miterlimit:4;stroke-dasharray:none;stroke-dashoffset:0;stroke-opacity:1;color-rendering:auto;image-rendering:auto;shape-rendering:auto;text-rendering:auto;enable-background:accumulate"
       d="M 20.011719 3.4902344 A 0.50004998 0.50004998 0 0 0 19.953125 3.4941406 A 0.50004998 0.50004998 0 0 0 19.525391 3.8398438 L 18.794922 6.0449219 C 17.634921 4.8286619 16.611349 4.2032931 15.650391 4.1289062 C 14.527407 4.0419771 13.639414 4.7352492 13.013672 5.6269531 C 12.387929 6.5186949 11.946135 7.6441003 11.560547 8.6972656 C 11.174958 9.7504688 10.846136 10.742537 10.564453 11.259766 C 10.28411 11.774499 9.5975651 12.644939 8.7558594 13.599609 C 7.9141541 14.554242 6.9066534 15.612388 5.9570312 16.619141 C 5.0074091 17.625856 4.1147207 18.577975 3.4765625 19.320312 C 3.1574834 19.691462 2.9064479 20.001059 2.7304688 20.271484 C 2.6424791 20.406791 2.5676493 20.528745 2.5175781 20.677734 C 2.4925425 20.752191 2.4684107 20.834384 2.4726562 20.951172 C 2.4769007 21.067959 2.5322732 21.240181 2.6503906 21.357422 C 2.8746644 21.580036 3.1206294 21.537607 3.2695312 21.505859 C 3.4184329 21.475623 3.5494237 21.426587 3.6914062 21.357422 C 3.9753716 21.219469 4.3036242 21.011833 4.6953125 20.751953 C 5.4786888 20.232155 6.4822351 19.495921 7.5449219 18.714844 C 9.670295 17.152727 12.104099 15.396617 13.183594 14.964844 C 13.712546 14.75319 14.751174 14.553091 15.871094 14.308594 C 16.991013 14.064058 18.209627 13.766298 19.222656 13.259766 C 20.235686 12.753271 21.0958 11.974784 21.230469 10.830078 C 21.35203 9.7968226 20.869488 8.5950852 19.738281 7.140625 L 21.753906 5.9296875 A 0.50004998 0.50004998 0 0 0 21.466797 5 A 0.50004998 0.50004998 0 0 0 21.244141 5.0722656 L 19.900391 5.8789062 L 20.476562 4.1582031 A 0.50004998 0.50004998 0 0 0 20.011719 3.4902344 z M 15.576172 5.125 C 16.245587 5.1768053 17.23193 5.7344057 18.511719 7.2128906 A 0.50004998 0.50004998 0 0 0 18.738281 7.484375 C 19.954435 8.9671917 20.321239 10.024332 20.240234 10.712891 C 20.156151 11.427561 19.641268 11.93617 18.779297 12.367188 C 17.917326 12.798167 16.75508 13.094098 15.65625 13.333984 C 14.55742 13.573984 13.535501 13.746741 12.814453 14.035156 C 11.393948 14.60337 9.0779864 16.34838 6.953125 17.910156 C 6.0421307 18.579737 5.2460604 19.150897 4.546875 19.630859 C 5.1393348 18.960674 5.8585536 18.183465 6.6875 17.304688 C 7.6370417 16.298048 8.6413129 15.229768 9.5 14.255859 C 10.358687 13.281913 11.068874 12.4223 11.441406 11.738281 C 11.797636 11.084191 12.098085 10.149262 12.455078 9.1640625 L 13.648438 10.351562 A 0.50004998 0.50004998 0 1 0 14.349609 9.6503906 L 12.857422 8.1503906 C 13.15019 7.428311 13.463601 6.7309473 13.833984 6.203125 C 13.865063 6.1588361 13.896579 6.1276656 13.927734 6.0859375 L 16.189453 7.8925781 A 0.5014916 0.5014916 0 1 0 16.816406 7.109375 L 14.636719 5.3671875 C 14.922305 5.1818473 15.229629 5.0981624 15.576172 5.125 z "
       transform="matrix(0.26458333,0,0,0.26458333,0,290.64997)"
       id="path4677" />
  </g>
</svg>
