<?xml version="1.0" encoding="UTF-8" standalone="no"?>
<!-- Created with Inkscape (http://www.inkscape.org/) -->

<svg
   xmlns:dc="http://purl.org/dc/elements/1.1/"
   xmlns:cc="http://creativecommons.org/ns#"
   xmlns:rdf="http://www.w3.org/1999/02/22-rdf-syntax-ns#"
   xmlns:svg="http://www.w3.org/2000/svg"
   xmlns="http://www.w3.org/2000/svg"
   xmlns:sodipodi="http://sodipodi.sourceforge.net/DTD/sodipodi-0.dtd"
   xmlns:inkscape="http://www.inkscape.org/namespaces/inkscape"
   width="24"
   height="24"
   viewBox="0 0 6.3499999 6.3500002"
   version="1.1"
   id="svg8"
   sodipodi:docname="patate.svg"
   inkscape:version="0.92.4 (5da689c313, 2019-01-14)">
  <defs
     id="defs2">
    <inkscape:path-effect
       effect="bspline"
       id="path-effect821"
       is_visible="true"
       weight="33.333333"
       steps="2"
       helper_size="0"
       apply_no_weight="true"
       apply_with_weight="true"
       only_selected="false" />
    <inkscape:path-effect
       effect="bspline"
       id="path-effect4522"
       is_visible="true"
       weight="33.333333"
       steps="2"
       helper_size="0"
       apply_no_weight="true"
       apply_with_weight="true"
       only_selected="false" />
  </defs>
  <sodipodi:namedview
     id="base"
     pagecolor="#ffffff"
     bordercolor="#666666"
     borderopacity="1.0"
     inkscape:pageopacity="0.0"
     inkscape:pageshadow="2"
     inkscape:zoom="32"
     inkscape:cx="17.719704"
     inkscape:cy="10.66875"
     inkscape:document-units="mm"
     inkscape:current-layer="layer1"
     showgrid="true"
     units="px"
     objecttolerance="20"
     inkscape:window-width="1920"
     inkscape:window-height="1017"
     inkscape:window-x="-8"
     inkscape:window-y="-8"
     inkscape:window-maximized="1"
     showguides="true"
     inkscape:guide-bbox="true">
    <inkscape:grid
       type="xygrid"
       id="grid815"
       originx="3.175"
       originy="3.175"
       spacingx="0.13229167"
       spacingy="0.13229167"
       color="#6900ff"
       opacity="0.1254902"
       empspacing="2"
       dotted="false" />
    <sodipodi:guide
       position="7.7390624,-0.11575521"
       orientation="0,1"
       id="guide1678"
       inkscape:locked="false" />
  </sodipodi:namedview>
  <metadata
     id="metadata5">
    <rdf:RDF>
      <cc:Work
         rdf:about="">
        <dc:format>image/svg+xml</dc:format>
        <dc:type
           rdf:resource="http://purl.org/dc/dcmitype/StillImage" />
        <dc:title></dc:title>
      </cc:Work>
    </rdf:RDF>
  </metadata>
  <g
     inkscape:label="Calque 1"
     inkscape:groupmode="layer"
     id="layer1"
     transform="translate(0,-290.64997)">
    <path
       style="color:#000000;font-style:normal;font-variant:normal;font-weight:normal;font-stretch:normal;font-size:medium;line-height:normal;font-family:sans-serif;font-variant-ligatures:normal;font-variant-position:normal;font-variant-caps:normal;font-variant-numeric:normal;font-variant-alternates:normal;font-feature-settings:normal;text-indent:0;text-align:start;text-decoration:none;text-decoration-line:none;text-decoration-style:solid;text-decoration-color:#000000;letter-spacing:normal;word-spacing:normal;text-transform:none;writing-mode:lr-tb;direction:ltr;text-orientation:mixed;dominant-baseline:auto;baseline-shift:baseline;text-anchor:start;white-space:normal;shape-padding:0;clip-rule:nonzero;display:inline;overflow:visible;visibility:visible;opacity:1;isolation:auto;mix-blend-mode:normal;color-interpolation:sRGB;color-interpolation-filters:linearRGB;solid-color:#000000;solid-opacity:1;vector-effect:none;fill:#000000;fill-opacity:1;fill-rule:nonzero;stroke:none;stroke-width:0.99999994px;stroke-linecap:butt;stroke-linejoin:miter;stroke-miterlimit:4;stroke-dasharray:none;stroke-dashoffset:0;stroke-opacity:1;color-rendering:auto;image-rendering:auto;shape-rendering:auto;text-rendering:auto;enable-background:accumulate"
       d="M 17.726562 2.0878906 C 17.217176 2.0473741 16.710316 2.1179355 16.224609 2.2753906 C 15.253197 2.5906032 14.350329 3.2270366 13.478516 4.0019531 C 11.734888 5.5518618 10.105247 7.6877257 8.6445312 9.1484375 C 7.1696394 10.623323 5.1145681 12.355027 3.6679688 14.21875 C 2.9446691 15.15063 2.3629874 16.120443 2.1113281 17.142578 C 1.8596687 18.164676 1.9593492 19.247205 2.5683594 20.257812 C 3.1999168 21.3058 4.3152739 21.919857 5.6035156 22.177734 C 6.891757 22.435498 8.3822312 22.35925 9.921875 22.029297 C 13.001162 21.369467 16.277438 19.69154 18.373047 17.333984 C 20.45781 14.988599 21.619087 11.895955 21.814453 9.0957031 C 22.009821 6.2954512 21.236802 3.7011961 19.244141 2.5625 C 18.748201 2.279111 18.235949 2.1284072 17.726562 2.0878906 z M 17.644531 3.0761719 C 18.008037 3.1046601 18.370939 3.2170268 18.75 3.4335938 C 20.257339 4.2949481 20.99604 6.4545693 20.816406 9.0292969 C 20.636773 11.604062 19.544144 14.515251 17.628906 16.669922 C 15.724515 18.812347 12.584543 20.430321 9.7070312 21.046875 C 8.2682755 21.355284 6.897881 21.416037 5.7949219 21.195312 C 4.6919631 20.974588 3.8806262 20.494968 3.4257812 19.740234 C 2.948389 18.948045 2.8850474 18.194793 3.0859375 17.378906 C 3.2868277 16.562982 3.7856835 15.699471 4.4589844 14.832031 C 5.8055862 13.097115 7.8284071 11.382537 9.3535156 9.8574219 C 10.892799 8.3181337 12.513159 6.1981382 14.144531 4.7480469 C 14.960218 4.0229823 15.772194 3.4759613 16.535156 3.2285156 L 16.535156 3.2265625 C 16.916638 3.102783 17.281025 3.0476837 17.644531 3.0761719 z M 16.478516 4.9941406 A 0.49999952 0.49999046 0 0 0 15.978516 5.4941406 A 0.49999952 0.49999046 0 0 0 16.478516 5.9941406 A 0.49999952 0.49999046 0 0 0 16.978516 5.4941406 A 0.49999952 0.49999046 0 0 0 16.478516 4.9941406 z M 14.4375 7.0371094 A 0.49999952 0.49999046 0 0 0 13.972656 7.5371094 A 0.49999952 0.49999046 0 0 0 14.472656 8.0371094 A 0.49999952 0.49999046 0 0 0 14.972656 7.5371094 A 0.49999952 0.49999046 0 0 0 14.472656 7.0371094 A 0.49999952 0.49999046 0 0 0 14.4375 7.0371094 z M 18.400391 7.9589844 A 0.49999952 0.49999046 0 0 0 17.900391 8.4589844 A 0.49999952 0.49999046 0 0 0 18.400391 8.9589844 A 0.49999952 0.49999046 0 0 0 18.900391 8.4589844 A 0.49999952 0.49999046 0 0 0 18.400391 7.9589844 z M 13.425781 17.033203 A 0.49999952 0.49999046 0 0 0 12.960938 17.533203 A 0.49999952 0.49999046 0 0 0 13.460938 18.033203 A 0.49999952 0.49999046 0 0 0 13.960938 17.533203 A 0.49999952 0.49999046 0 0 0 13.460938 17.033203 A 0.49999952 0.49999046 0 0 0 13.425781 17.033203 z M 10.044922 17.480469 A 0.49999952 0.49999046 0 0 0 9.5449219 17.980469 A 0.49999952 0.49999046 0 0 0 10.044922 18.480469 A 0.49999952 0.49999046 0 0 0 10.544922 17.980469 A 0.49999952 0.49999046 0 0 0 10.044922 17.480469 z M 7.4941406 20.013672 A 0.49999952 0.49999046 0 0 0 6.9941406 20.513672 A 0.49999952 0.49999046 0 0 0 7.4941406 21.013672 A 0.49999952 0.49999046 0 0 0 7.9941406 20.513672 A 0.49999952 0.49999046 0 0 0 7.4941406 20.013672 z "
       transform="matrix(0.26458333,0,0,0.26458333,0,290.64997)"
       id="path1693" />
  </g>
</svg>
