<?xml version="1.0" encoding="UTF-8" standalone="no"?>
<!-- Created with Inkscape (http://www.inkscape.org/) -->

<svg
   xmlns:dc="http://purl.org/dc/elements/1.1/"
   xmlns:cc="http://creativecommons.org/ns#"
   xmlns:rdf="http://www.w3.org/1999/02/22-rdf-syntax-ns#"
   xmlns:svg="http://www.w3.org/2000/svg"
   xmlns="http://www.w3.org/2000/svg"
   xmlns:sodipodi="http://sodipodi.sourceforge.net/DTD/sodipodi-0.dtd"
   xmlns:inkscape="http://www.inkscape.org/namespaces/inkscape"
   width="24"
   height="24"
   viewBox="0 0 6.3499999 6.3500002"
   version="1.1"
   id="svg8"
   sodipodi:docname="poireau.svg"
   inkscape:version="0.92.4 (5da689c313, 2019-01-14)">
  <defs
     id="defs2">
    <inkscape:path-effect
       effect="bspline"
       id="path-effect4522"
       is_visible="true"
       weight="33.333333"
       steps="2"
       helper_size="0"
       apply_no_weight="true"
       apply_with_weight="true"
       only_selected="false" />
  </defs>
  <sodipodi:namedview
     id="base"
     pagecolor="#ffffff"
     bordercolor="#666666"
     borderopacity="1.0"
     inkscape:pageopacity="0.0"
     inkscape:pageshadow="2"
     inkscape:zoom="32"
     inkscape:cx="6.634857"
     inkscape:cy="10.543265"
     inkscape:document-units="mm"
     inkscape:current-layer="layer1"
     showgrid="true"
     units="px"
     objecttolerance="20"
     inkscape:window-width="1920"
     inkscape:window-height="1017"
     inkscape:window-x="1592"
     inkscape:window-y="126"
     inkscape:window-maximized="1">
    <inkscape:grid
       type="xygrid"
       id="grid815"
       originx="3.175"
       originy="3.175"
       spacingx="0.13229167"
       spacingy="0.13229167"
       color="#6900ff"
       opacity="0.1254902"
       empspacing="2"
       dotted="false" />
  </sodipodi:namedview>
  <metadata
     id="metadata5">
    <rdf:RDF>
      <cc:Work
         rdf:about="">
        <dc:format>image/svg+xml</dc:format>
        <dc:type
           rdf:resource="http://purl.org/dc/dcmitype/StillImage" />
        <dc:title></dc:title>
      </cc:Work>
    </rdf:RDF>
  </metadata>
  <g
     inkscape:label="Calque 1"
     inkscape:groupmode="layer"
     id="layer1"
     transform="translate(0,-290.64997)">
    <path
       style="color:#000000;font-style:normal;font-variant:normal;font-weight:normal;font-stretch:normal;font-size:medium;line-height:normal;font-family:sans-serif;font-variant-ligatures:normal;font-variant-position:normal;font-variant-caps:normal;font-variant-numeric:normal;font-variant-alternates:normal;font-feature-settings:normal;text-indent:0;text-align:start;text-decoration:none;text-decoration-line:none;text-decoration-style:solid;text-decoration-color:#000000;letter-spacing:normal;word-spacing:normal;text-transform:none;writing-mode:lr-tb;direction:ltr;text-orientation:mixed;dominant-baseline:auto;baseline-shift:baseline;text-anchor:start;white-space:normal;shape-padding:0;clip-rule:nonzero;display:inline;overflow:visible;visibility:visible;opacity:1;isolation:auto;mix-blend-mode:normal;color-interpolation:sRGB;color-interpolation-filters:linearRGB;solid-color:#000000;solid-opacity:1;vector-effect:none;fill:#000000;fill-opacity:1;fill-rule:evenodd;stroke:none;stroke-width:0.99999994px;stroke-linecap:butt;stroke-linejoin:round;stroke-miterlimit:4;stroke-dasharray:none;stroke-dashoffset:0;stroke-opacity:1;color-rendering:auto;image-rendering:auto;shape-rendering:auto;text-rendering:auto;enable-background:accumulate"
       d="M 18.482422 1.9980469 A 0.50004998 0.50004998 0 0 0 18.431641 2.0019531 A 0.50004998 0.50004998 0 0 0 18.173828 2.1191406 C 17.878409 2.3753926 17.684564 2.727626 17.398438 3.2207031 C 17.112312 3.7137803 16.784385 4.3270885 16.439453 4.9765625 C 15.749589 6.2754727 14.980017 7.7269154 14.394531 8.59375 C 9.6612724 15.60141 5.9639592 14.851159 3.2324219 16.582031 C 2.4987077 17.046951 2.1093895 17.742723 2.0527344 18.441406 C 1.9960793 19.140052 2.2377828 19.817017 2.6289062 20.382812 C 3.0200298 20.948608 3.5626608 21.413942 4.2070312 21.644531 C 4.8514021 21.875082 5.6201691 21.844614 6.2753906 21.416016 C 8.5144385 19.950943 8.0167534 18.541356 15.669922 13.478516 A 0.50004998 0.50004998 0 0 0 15.783203 13.414062 C 16.460539 12.951524 17.567027 12.211639 18.691406 11.525391 C 19.815785 10.839142 20.977279 10.204027 21.658203 9.9746094 A 0.50004998 0.50004998 0 0 0 21.998047 9.5019531 L 21.998047 7.5019531 A 0.50004998 0.50004998 0 0 0 21.503906 7 C 20.837235 7 20.174242 7.28896 19.525391 7.6132812 C 19.305202 7.7233275 19.142051 7.8168851 18.931641 7.9316406 C 19.166752 7.3344575 19.384638 6.7456452 19.554688 6.203125 C 19.831723 5.3192447 20.013094 4.577623 19.998047 3.9882812 A 0.50004998 0.50004998 0 0 0 19.894531 3.6933594 C 19.901183 3.7009184 19.825309 3.5885588 19.746094 3.4570312 C 19.666882 3.3255037 19.569203 3.1593938 19.466797 2.9921875 C 19.364391 2.8247544 19.260682 2.6536133 19.15625 2.5039062 C 19.051818 2.354237 18.975479 2.2357491 18.808594 2.1054688 A 0.50004998 0.50004998 0 0 0 18.482422 1.9980469 z M 18.513672 3.3535156 C 18.549577 3.4102085 18.580987 3.4562864 18.617188 3.515625 C 18.714609 3.6747431 18.808394 3.8362531 18.890625 3.9726562 C 18.925132 4.0301051 18.950264 4.067171 18.978516 4.1132812 C 18.970843 4.4621316 18.849775 5.1143256 18.601562 5.90625 C 18.339033 6.7438311 17.967141 7.7131689 17.554688 8.6523438 C 17.142234 9.5915186 16.690801 10.502063 16.269531 11.214844 C 15.848262 11.927625 15.407865 12.451984 15.257812 12.550781 C 14.747538 12.886816 14.36072 13.167994 13.916016 13.474609 C 13.821998 13.177685 13.659458 12.920717 13.443359 12.75 C 13.225364 12.577761 12.97766 12.447331 12.708984 12.308594 C 13.526913 11.455517 14.368289 10.427874 15.228516 9.1542969 C 15.875736 8.1960355 16.638107 6.7369527 17.326172 5.4414062 C 17.670203 4.7936708 17.991886 4.1910153 18.263672 3.7226562 C 18.383128 3.516672 18.415465 3.4975156 18.513672 3.3535156 z M 21.001953 8.1738281 L 21.001953 9.2070312 C 20.176733 9.5332045 19.198675 10.042457 18.173828 10.667969 C 17.921663 10.821872 17.694267 10.971793 17.449219 11.126953 C 17.739534 10.593776 18.027244 10.021094 18.304688 9.4101562 C 18.81828 9.1482352 19.400201 8.800887 19.974609 8.5136719 C 20.377989 8.3118451 20.682227 8.2573557 21.001953 8.1738281 z M 11.955078 13.048828 C 12.335716 13.253914 12.691665 13.430029 12.822266 13.533203 C 12.983447 13.660573 13.002362 13.666771 13 13.998047 A 0.50198273 0.50198273 0 0 0 13.007812 14.097656 C 7.435648 18.070693 7.4447365 19.45908 5.7285156 20.582031 C 5.3391181 20.836771 4.9544279 20.847062 4.546875 20.701172 C 4.1393221 20.555282 3.7298333 20.223209 3.4472656 19.814453 C 3.1646979 19.405697 3.0154053 18.935595 3.0488281 18.523438 C 3.0822505 18.11128 3.2599551 17.742266 3.765625 17.421875 C 5.4785793 16.33642 8.4486198 16.301549 11.955078 13.048828 z "
       transform="matrix(0.26458333,0,0,0.26458333,0,290.64997)"
       id="path4677" />
  </g>
</svg>
