<?xml version="1.0" encoding="UTF-8" standalone="no"?>
<!-- Created with Inkscape (http://www.inkscape.org/) -->

<svg
   xmlns:dc="http://purl.org/dc/elements/1.1/"
   xmlns:cc="http://creativecommons.org/ns#"
   xmlns:rdf="http://www.w3.org/1999/02/22-rdf-syntax-ns#"
   xmlns:svg="http://www.w3.org/2000/svg"
   xmlns="http://www.w3.org/2000/svg"
   xmlns:sodipodi="http://sodipodi.sourceforge.net/DTD/sodipodi-0.dtd"
   xmlns:inkscape="http://www.inkscape.org/namespaces/inkscape"
   width="24"
   height="24"
   viewBox="0 0 6.3499999 6.3500002"
   version="1.1"
   id="svg8"
   sodipodi:docname="poivron.svg"
   inkscape:version="0.92.4 (5da689c313, 2019-01-14)">
  <defs
     id="defs2">
    <inkscape:path-effect
       effect="bspline"
       id="path-effect4522"
       is_visible="true"
       weight="33.333333"
       steps="2"
       helper_size="0"
       apply_no_weight="true"
       apply_with_weight="true"
       only_selected="false" />
  </defs>
  <sodipodi:namedview
     id="base"
     pagecolor="#ffffff"
     bordercolor="#666666"
     borderopacity="1.0"
     inkscape:pageopacity="0.0"
     inkscape:pageshadow="2"
     inkscape:zoom="32"
     inkscape:cx="9.5051293"
     inkscape:cy="14.875558"
     inkscape:document-units="mm"
     inkscape:current-layer="layer1"
     showgrid="true"
     units="px"
     objecttolerance="20"
     inkscape:window-width="1920"
     inkscape:window-height="1017"
     inkscape:window-x="1592"
     inkscape:window-y="126"
     inkscape:window-maximized="1">
    <inkscape:grid
       type="xygrid"
       id="grid815"
       originx="3.175"
       originy="3.175"
       spacingx="0.13229167"
       spacingy="0.13229167"
       color="#6900ff"
       opacity="0.1254902"
       empspacing="2"
       dotted="false" />
  </sodipodi:namedview>
  <metadata
     id="metadata5">
    <rdf:RDF>
      <cc:Work
         rdf:about="">
        <dc:format>image/svg+xml</dc:format>
        <dc:type
           rdf:resource="http://purl.org/dc/dcmitype/StillImage" />
        <dc:title></dc:title>
      </cc:Work>
    </rdf:RDF>
  </metadata>
  <g
     inkscape:label="Calque 1"
     inkscape:groupmode="layer"
     id="layer1"
     transform="translate(0,-290.64997)">
    <path
       style="color:#000000;font-style:normal;font-variant:normal;font-weight:normal;font-stretch:normal;font-size:medium;line-height:normal;font-family:sans-serif;font-variant-ligatures:normal;font-variant-position:normal;font-variant-caps:normal;font-variant-numeric:normal;font-variant-alternates:normal;font-feature-settings:normal;text-indent:0;text-align:start;text-decoration:none;text-decoration-line:none;text-decoration-style:solid;text-decoration-color:#000000;letter-spacing:normal;word-spacing:normal;text-transform:none;writing-mode:lr-tb;direction:ltr;text-orientation:mixed;dominant-baseline:auto;baseline-shift:baseline;text-anchor:start;white-space:normal;shape-padding:0;clip-rule:nonzero;display:inline;overflow:visible;visibility:visible;opacity:1;isolation:auto;mix-blend-mode:normal;color-interpolation:sRGB;color-interpolation-filters:linearRGB;solid-color:#000000;solid-opacity:1;vector-effect:none;fill:#000000;fill-opacity:1;fill-rule:evenodd;stroke:none;stroke-width:0.99999994px;stroke-linecap:butt;stroke-linejoin:miter;stroke-miterlimit:4;stroke-dasharray:none;stroke-dashoffset:0;stroke-opacity:1;color-rendering:auto;image-rendering:auto;shape-rendering:auto;text-rendering:auto;enable-background:accumulate"
       d="M 12.113281 2.0605469 C 11.46787 2.0340902 10.90609 2.394721 10.291016 2.8652344 C 9.6759414 3.3357478 9.0235986 3.9655869 8.3925781 4.6308594 C 7.1305376 5.9614043 5.9330383 7.4601667 5.3730469 8.1152344 C 4.5433733 9.0857415 3.6416997 10.929153 2.9609375 12.765625 C 2.6205566 13.683899 2.3403996 14.594882 2.1855469 15.384766 C 2.030694 16.174687 1.9508142 16.82304 2.1992188 17.386719 C 2.6457768 18.400048 3.2863315 18.857921 3.8671875 19.03125 C 4.4480434 19.20473 4.8665782 19.193995 5.234375 19.423828 C 5.5227794 19.604112 5.6245199 20.0077 5.7578125 20.544922 C 5.8244607 20.813646 5.8944722 21.107336 6.0820312 21.386719 C 6.2695903 21.666026 6.6410693 21.892656 7.0488281 21.904297 C 7.4297471 21.915635 7.9506396 21.842087 8.6210938 21.710938 C 9.2915479 21.579788 10.09047 21.385563 10.902344 21.136719 C 12.526092 20.638842 14.210386 19.961548 15.177734 18.994141 C 15.956972 18.214878 17.623492 16.630784 19.097656 15.03125 C 19.834738 14.231502 20.523801 13.427762 21.044922 12.705078 C 21.566043 11.982395 21.955341 11.383596 21.96875 10.726562 C 21.98213 10.070512 21.511965 9.6011504 20.978516 9.2207031 C 20.445067 8.8402937 19.771237 8.5148982 19.074219 8.203125 C 18.3772 7.891314 17.660741 7.6013226 17.066406 7.3320312 C 16.883624 7.2492715 16.744185 7.1701721 16.589844 7.0898438 C 16.788137 6.8661226 17.11371 6.5058199 17.597656 6.0332031 C 18.2877 5.3593134 19.184712 4.6432897 19.666016 4.4746094 C 20.153919 4.3037747 20.419055 4.4682263 20.669922 4.6972656 C 20.707415 4.7312814 20.724934 4.7625447 20.757812 4.7988281 A 0.50083744 0.50083744 0 1 0 21.451172 5.5 L 21.503906 4.9980469 C 21.503906 4.9980469 21.998026 5.0800781 21.998047 5.0800781 C 21.998067 5.0799647 21.998048 4.9984248 21.998047 4.9980469 C 21.998043 4.9973666 21.9828 4.8745587 21.982422 4.8730469 C 21.981723 4.8703634 21.967098 4.8162773 21.960938 4.8007812 C 21.948616 4.770545 21.937888 4.7470965 21.923828 4.71875 C 21.895746 4.6620571 21.856973 4.5914668 21.806641 4.5117188 C 21.70598 4.3522227 21.558043 4.1524206 21.347656 3.9589844 C 20.926884 3.5721119 20.181376 3.2323394 19.333984 3.5292969 C 18.479993 3.8286355 17.622617 4.6072913 16.896484 5.3164062 C 16.310174 5.8889763 15.919834 6.3314009 15.759766 6.515625 C 15.417265 6.0873826 14.960035 5.1198322 14.460938 4.1953125 C 14.188702 3.6910101 13.890668 3.1949604 13.523438 2.7988281 C 13.156207 2.4027336 12.686298 2.0829973 12.113281 2.0605469 z M 12.076172 3.0644531 C 12.300646 3.0720122 12.528248 3.1928967 12.792969 3.4785156 C 13.057691 3.7642479 13.327077 4.1937259 13.582031 4.6660156 C 13.658627 4.8078992 13.72777 4.9569957 13.800781 5.1035156 C 13.346661 4.9267655 12.850208 4.8490669 12.335938 5.0292969 C 11.953716 5.1630922 11.732333 5.4154773 11.404297 5.7675781 C 11.07626 6.1198301 10.702855 6.5755923 10.291016 7.109375 C 9.4673371 8.1769404 8.5074652 9.5462859 7.5878906 10.896484 C 5.7487411 13.596919 4.0742187 16.234375 4.0742188 16.234375 A 0.50083744 0.50083744 0 1 0 4.9238281 16.765625 C 4.9238281 16.765625 6.588989 14.14158 8.4160156 11.458984 C 9.3295289 10.117668 10.278573 8.7614594 11.080078 7.7226562 C 11.480831 7.2032358 11.844695 6.7587487 12.136719 6.4453125 C 12.428744 6.1319897 12.716366 5.9556862 12.667969 5.9726562 C 13.066517 5.8328137 13.679505 6.0811228 14.210938 6.4746094 C 14.443496 6.6469558 14.635888 6.8230759 14.792969 6.9765625 A 0.50083744 0.50083744 0 1 0 15.431641 7.59375 C 15.762722 7.8331031 16.178942 8.0248499 16.654297 8.2402344 C 17.277736 8.5225651 17.993893 8.8176477 18.667969 9.1191406 C 19.342044 9.4207469 19.969973 9.736877 20.396484 10.041016 C 20.822995 10.345268 20.974893 10.595547 20.972656 10.705078 C 20.96971 10.849456 20.714914 11.448828 20.234375 12.115234 C 19.753835 12.781641 19.081333 13.56818 18.359375 14.351562 C 16.915459 15.918252 15.277354 17.486265 14.476562 18.287109 C 13.778949 18.984772 12.160431 19.707449 10.607422 20.183594 C 9.8309176 20.421704 9.0631038 20.606651 8.4296875 20.730469 C 7.7962708 20.854437 7.2768834 20.911919 7.0800781 20.90625 C 6.9409613 20.90247 6.9618526 20.903652 6.9101562 20.826172 C 6.8584599 20.74907 6.794682 20.553619 6.7324219 20.302734 C 6.6079016 19.800927 6.4772171 19.018994 5.765625 18.574219 C 5.1334219 18.179107 4.5363319 18.187995 4.1484375 18.072266 C 3.7605435 17.956612 3.4811773 17.818681 3.1152344 16.988281 C 3.0594489 16.861667 3.0266705 16.288941 3.1660156 15.578125 C 3.3053608 14.867347 3.5718791 13.992298 3.8984375 13.111328 C 4.5515542 11.349426 5.4934777 9.5138325 6.1347656 8.7636719 C 6.7257276 8.0723963 7.9020369 6.6036755 9.1230469 5.3164062 C 9.7335521 4.6727905 10.353521 4.0774417 10.896484 3.6621094 C 11.439448 3.2467771 11.924708 3.0585193 12.076172 3.0644531 z "
       transform="matrix(0.26458333,0,0,0.26458333,0,290.64997)"
       id="path6434" />
  </g>
</svg>
