<?xml version="1.0" encoding="UTF-8" standalone="no"?>
<!-- Created with Inkscape (http://www.inkscape.org/) -->

<svg
   xmlns:dc="http://purl.org/dc/elements/1.1/"
   xmlns:cc="http://creativecommons.org/ns#"
   xmlns:rdf="http://www.w3.org/1999/02/22-rdf-syntax-ns#"
   xmlns:svg="http://www.w3.org/2000/svg"
   xmlns="http://www.w3.org/2000/svg"
   xmlns:sodipodi="http://sodipodi.sourceforge.net/DTD/sodipodi-0.dtd"
   xmlns:inkscape="http://www.inkscape.org/namespaces/inkscape"
   width="24"
   height="24"
   viewBox="0 0 6.3499999 6.3500002"
   version="1.1"
   id="svg8"
   sodipodi:docname="radis.svg"
   inkscape:version="0.92.4 (5da689c313, 2019-01-14)">
  <defs
     id="defs2">
    <inkscape:path-effect
       effect="bspline"
       id="path-effect4522"
       is_visible="true"
       weight="33.333333"
       steps="2"
       helper_size="0"
       apply_no_weight="true"
       apply_with_weight="true"
       only_selected="false" />
  </defs>
  <sodipodi:namedview
     id="base"
     pagecolor="#ffffff"
     bordercolor="#666666"
     borderopacity="1.0"
     inkscape:pageopacity="0.0"
     inkscape:pageshadow="2"
     inkscape:zoom="32"
     inkscape:cx="6.634857"
     inkscape:cy="13.043265"
     inkscape:document-units="mm"
     inkscape:current-layer="layer1"
     showgrid="true"
     units="px"
     objecttolerance="20"
     inkscape:window-width="1920"
     inkscape:window-height="1017"
     inkscape:window-x="1592"
     inkscape:window-y="126"
     inkscape:window-maximized="1">
    <inkscape:grid
       type="xygrid"
       id="grid815"
       originx="3.175"
       originy="3.175"
       spacingx="0.13229167"
       spacingy="0.13229167"
       color="#6900ff"
       opacity="0.1254902"
       empspacing="2"
       dotted="false" />
  </sodipodi:namedview>
  <metadata
     id="metadata5">
    <rdf:RDF>
      <cc:Work
         rdf:about="">
        <dc:format>image/svg+xml</dc:format>
        <dc:type
           rdf:resource="http://purl.org/dc/dcmitype/StillImage" />
        <dc:title></dc:title>
      </cc:Work>
    </rdf:RDF>
  </metadata>
  <g
     inkscape:label="Calque 1"
     inkscape:groupmode="layer"
     id="layer1"
     transform="translate(0,-290.64997)">
    <path
       style="color:#000000;font-style:normal;font-variant:normal;font-weight:normal;font-stretch:normal;font-size:medium;line-height:normal;font-family:sans-serif;font-variant-ligatures:normal;font-variant-position:normal;font-variant-caps:normal;font-variant-numeric:normal;font-variant-alternates:normal;font-feature-settings:normal;text-indent:0;text-align:start;text-decoration:none;text-decoration-line:none;text-decoration-style:solid;text-decoration-color:#000000;letter-spacing:normal;word-spacing:normal;text-transform:none;writing-mode:lr-tb;direction:ltr;text-orientation:mixed;dominant-baseline:auto;baseline-shift:baseline;text-anchor:start;white-space:normal;shape-padding:0;clip-rule:nonzero;display:inline;overflow:visible;visibility:visible;opacity:1;isolation:auto;mix-blend-mode:normal;color-interpolation:sRGB;color-interpolation-filters:linearRGB;solid-color:#000000;solid-opacity:1;vector-effect:none;fill:#000000;fill-opacity:1;fill-rule:evenodd;stroke:none;stroke-width:0.99999994px;stroke-linecap:butt;stroke-linejoin:miter;stroke-miterlimit:4;stroke-dasharray:none;stroke-dashoffset:0;stroke-opacity:1;color-rendering:auto;image-rendering:auto;shape-rendering:auto;text-rendering:auto;enable-background:accumulate"
       d="M 20.011719 3.4902344 A 0.50004998 0.50004998 0 0 0 19.953125 3.4941406 A 0.50004998 0.50004998 0 0 0 19.525391 3.8398438 L 18.789062 6.0566406 C 17.445237 4.8291872 15.895234 4.5015211 14.410156 4.8359375 C 12.70002 5.2210336 11.066826 6.3897836 9.5820312 7.8046875 C 6.6124417 10.634495 4.2386122 14.513114 3.5585938 15.761719 C 2.8812533 17.005448 2.4924159 18.173706 2.3320312 19.128906 C 2.2518387 19.606487 2.2274646 20.031143 2.265625 20.398438 C 2.3037854 20.765808 2.3885143 21.097353 2.6503906 21.357422 C 2.8312478 21.536949 3.0222043 21.588529 3.21875 21.630859 C 3.4152956 21.67319 3.6269346 21.693108 3.8671875 21.697266 C 4.3476932 21.704825 4.9298724 21.653019 5.5742188 21.556641 C 6.862911 21.363885 8.3872708 20.984151 9.6855469 20.464844 C 10.962233 19.954192 14.7353 18.329615 17.568359 15.947266 C 18.984889 14.75611 20.188169 13.366912 20.669922 11.775391 C 21.108538 10.326411 20.880754 8.7176835 19.738281 7.140625 L 21.753906 5.9296875 A 0.50004998 0.50004998 0 0 0 21.466797 5 A 0.50004998 0.50004998 0 0 0 21.244141 5.0722656 L 19.900391 5.8789062 L 20.476562 4.1582031 A 0.50004998 0.50004998 0 0 0 20.011719 3.4902344 z M 15.669922 5.7011719 C 16.652037 5.7260023 17.585124 6.1636735 18.511719 7.2109375 A 0.50004998 0.50004998 0 0 0 18.742188 7.4863281 C 19.912431 8.9455994 20.088094 10.235885 19.708984 11.488281 C 19.315737 12.787418 18.259252 14.058339 16.925781 15.179688 C 14.25884 17.422346 10.53972 19.043868 9.3164062 19.533203 C 9.2053659 19.577618 9.0821111 19.615715 8.9667969 19.658203 C 8.8927183 18.731758 8.5142237 17.872577 7.8535156 17.142578 C 7.1767402 16.394793 6.2240387 15.768237 5.046875 15.212891 C 6.0639748 13.551704 8.0017107 10.69398 10.275391 8.5273438 C 11.689877 7.1794508 13.216894 6.1289343 14.630859 5.8105469 C 14.984351 5.7309878 15.330086 5.6925799 15.669922 5.7011719 z M 4.5371094 16.070312 C 5.6717375 16.598841 6.5415929 17.187117 7.109375 17.814453 C 7.713439 18.481877 8.0017961 19.180837 8 19.980469 C 7.1282839 20.240787 6.22168 20.44933 5.4257812 20.568359 C 4.8200099 20.659068 4.2772187 20.700163 3.8828125 20.693359 C 3.6856092 20.68992 3.5259822 20.669981 3.4257812 20.648438 C 3.3818623 20.638498 3.3573418 20.628601 3.3417969 20.623047 C 3.3435995 20.627707 3.3534752 20.650194 3.3515625 20.648438 C 3.3200564 20.61723 3.3218761 20.615929 3.3417969 20.623047 C 3.3319661 20.59763 3.2849253 20.499331 3.2636719 20.294922 C 3.2385229 20.053032 3.2454809 19.709587 3.3144531 19.298828 C 3.4523957 18.47731 3.8071354 17.396039 4.4355469 16.242188 C 4.4560291 16.204578 4.5129046 16.113615 4.5371094 16.070312 z "
       transform="matrix(0.26458333,0,0,0.26458333,0,290.64997)"
       id="path4677" />
  </g>
</svg>
