<?xml version="1.0" encoding="UTF-8" standalone="no"?>
<!-- Created with Inkscape (http://www.inkscape.org/) -->

<svg
   xmlns:dc="http://purl.org/dc/elements/1.1/"
   xmlns:cc="http://creativecommons.org/ns#"
   xmlns:rdf="http://www.w3.org/1999/02/22-rdf-syntax-ns#"
   xmlns:svg="http://www.w3.org/2000/svg"
   xmlns="http://www.w3.org/2000/svg"
   xmlns:sodipodi="http://sodipodi.sourceforge.net/DTD/sodipodi-0.dtd"
   xmlns:inkscape="http://www.inkscape.org/namespaces/inkscape"
   width="24"
   height="24"
   viewBox="0 0 6.3499999 6.3500002"
   version="1.1"
   id="svg8"
   sodipodi:docname="radis.svg"
   inkscape:version="0.92.4 (5da689c313, 2019-01-14)">
  <defs
     id="defs2">
    <inkscape:path-effect
       effect="bspline"
       id="path-effect4522"
       is_visible="true"
       weight="33.333333"
       steps="2"
       helper_size="0"
       apply_no_weight="true"
       apply_with_weight="true"
       only_selected="false" />
  </defs>
  <sodipodi:namedview
     id="base"
     pagecolor="#ffffff"
     bordercolor="#666666"
     borderopacity="1.0"
     inkscape:pageopacity="0.0"
     inkscape:pageshadow="2"
     inkscape:zoom="22.627417"
     inkscape:cx="2.0033579"
     inkscape:cy="12.778389"
     inkscape:document-units="mm"
     inkscape:current-layer="layer1"
     showgrid="true"
     units="px"
     objecttolerance="20"
     inkscape:window-width="1920"
     inkscape:window-height="1017"
     inkscape:window-x="1592"
     inkscape:window-y="126"
     inkscape:window-maximized="1">
    <inkscape:grid
       type="xygrid"
       id="grid815"
       originx="3.175"
       originy="3.175"
       spacingx="0.13229167"
       spacingy="0.13229167"
       color="#6900ff"
       opacity="0.1254902"
       empspacing="2"
       dotted="false" />
  </sodipodi:namedview>
  <metadata
     id="metadata5">
    <rdf:RDF>
      <cc:Work
         rdf:about="">
        <dc:format>image/svg+xml</dc:format>
        <dc:type
           rdf:resource="http://purl.org/dc/dcmitype/StillImage" />
        <dc:title></dc:title>
      </cc:Work>
    </rdf:RDF>
  </metadata>
  <g
     inkscape:label="Calque 1"
     inkscape:groupmode="layer"
     id="layer1"
     transform="translate(0,-290.64997)">
    <path
       style="color:#000000;font-style:normal;font-variant:normal;font-weight:normal;font-stretch:normal;font-size:medium;line-height:normal;font-family:sans-serif;font-variant-ligatures:normal;font-variant-position:normal;font-variant-caps:normal;font-variant-numeric:normal;font-variant-alternates:normal;font-feature-settings:normal;text-indent:0;text-align:start;text-decoration:none;text-decoration-line:none;text-decoration-style:solid;text-decoration-color:#000000;letter-spacing:normal;word-spacing:normal;text-transform:none;writing-mode:lr-tb;direction:ltr;text-orientation:mixed;dominant-baseline:auto;baseline-shift:baseline;text-anchor:start;white-space:normal;shape-padding:0;clip-rule:nonzero;display:inline;overflow:visible;visibility:visible;opacity:1;isolation:auto;mix-blend-mode:normal;color-interpolation:sRGB;color-interpolation-filters:linearRGB;solid-color:#000000;solid-opacity:1;vector-effect:none;fill:#000000;fill-opacity:1;fill-rule:evenodd;stroke:none;stroke-width:1.00157475;stroke-linecap:round;stroke-linejoin:round;stroke-miterlimit:4;stroke-dasharray:none;stroke-dashoffset:0;stroke-opacity:1;color-rendering:auto;image-rendering:auto;shape-rendering:auto;text-rendering:auto;enable-background:accumulate"
       d="M 15.732422 2.046875 C 14.972181 2.0840797 14.218223 2.3053752 13.582031 2.7773438 C 12.733776 3.4066729 12.138677 4.46869 12.003906 5.9511719 A 0.50058423 0.50058423 0 0 0 13 6.046875 C 13.11523 4.7793348 13.574818 4.0307746 14.179688 3.5820312 C 14.784557 3.1332501 15.579161 2.9748772 16.388672 3.0585938 C 17.198183 3.1424993 18.007141 3.4719489 18.587891 3.9296875 C 19.16864 4.3874639 19.503906 4.9464004 19.503906 5.5019531 C 19.503907 6.1331342 19.320566 6.4379745 18.994141 6.6816406 C 18.667718 6.9254202 18.129501 7.0801904 17.472656 7.140625 C 16.418206 7.2377029 15.119282 7.1166218 13.904297 7.0488281 C 14.460578 6.5421136 15.307075 6.024506 16.691406 5.4648438 A 0.50004998 0.50004998 0 0 0 16.490234 4.4980469 A 0.50004998 0.50004998 0 0 0 16.314453 4.5351562 C 14.300408 5.3493799 13.201888 6.1527166 12.556641 7.0585938 C 12.16867 7.6032753 11.970889 8.1653436 11.8125 8.734375 C 11.5583 8.3662752 11.274284 8.0086492 10.970703 7.6601562 C 10.985608 7.6227004 11.279966 6.8761094 11.367188 5.9511719 C 11.411903 5.4770301 11.407504 4.9499661 11.257812 4.4375 C 11.108126 3.9252228 10.797091 3.4212939 10.275391 3.0800781 C 9.2955969 2.439297 7.8472661 2.1961227 6.546875 2.4160156 C 5.8966795 2.5259999 5.2797639 2.7579056 4.7988281 3.1835938 C 4.3178927 3.6094331 4.0019527 4.2467402 4.0019531 5 C 4.0019531 6.4833134 5.0632557 7.4046522 6.0234375 7.8847656 C 6.9836193 8.3648412 7.9277344 8.4980469 7.9277344 8.4980469 A 0.50318479 0.50318479 0 1 0 8.0683594 7.5019531 C 8.0683594 7.5019531 7.2644275 7.3870347 6.4746094 6.9921875 C 5.6847913 6.5972647 4.9980473 6.0166173 4.9980469 5 C 4.9980469 4.5032567 5.1629668 4.1941799 5.4550781 3.9355469 C 5.7471903 3.6770272 6.1926959 3.4841316 6.7109375 3.3964844 C 7.7474208 3.2211143 9.0558058 3.4820514 9.7285156 3.921875 C 10.033066 4.1210561 10.197893 4.3798776 10.296875 4.71875 C 10.395857 5.0577736 10.407944 5.4647034 10.371094 5.8554688 C 10.336179 6.2257103 10.258022 6.5668832 10.185547 6.8300781 C 10.077027 6.7245194 9.9723518 6.6130057 9.8613281 6.5117188 C 8.817909 5.5597691 7.6863198 4.8098746 6.6289062 4.5195312 A 0.50004998 0.50004998 0 0 0 6.4804688 4.4960938 L 6.4804688 4.4980469 A 0.50004998 0.50004998 0 0 0 6.3710938 5.4785156 C 7.1643697 5.6962164 8.2257475 6.3689921 9.1914062 7.25 C 9.9372823 7.9304916 10.624464 8.7327472 11.140625 9.5273438 C 9.2651733 9.6419229 7.8949615 10.14336 6.96875 11.007812 C 5.9060274 11.999674 5.5 13.418482 5.5 15.001953 C 5.5 15.904958 5.9262998 16.667616 6.5175781 17.267578 C 7.1088561 17.86754 7.867411 18.335222 8.6367188 18.751953 C 9.4060268 19.168646 10.194439 19.532549 10.830078 19.873047 C 11.465717 20.213582 11.937263 20.553356 12.083984 20.773438 A 0.50083744 0.50083744 0 0 0 12.660156 20.972656 C 13.41016 20.722452 14.957987 20.214846 16.34375 19.291016 C 17.729512 18.367148 19.001953 16.966589 19.001953 15.001953 C 19.001953 13.156561 18.443295 11.704098 17.244141 10.787109 C 16.162021 9.9595824 14.617334 9.5975393 12.636719 9.53125 C 12.773813 8.9717546 12.9171 8.4557828 13.150391 8.0136719 C 14.44054 8.0472299 16.116556 8.2704677 17.568359 8.1367188 C 18.321179 8.0675534 19.03114 7.9049864 19.591797 7.4863281 C 20.152454 7.067821 20.5 6.3707531 20.5 5.5019531 C 20.5 4.557487 19.954408 3.7355993 19.207031 3.1464844 C 18.459655 2.5573694 17.493223 2.1721074 16.490234 2.0683594 C 16.239487 2.0423751 15.985836 2.0344734 15.732422 2.046875 z M 12.162109 10.505859 C 14.264502 10.52498 15.729146 10.894494 16.630859 11.583984 C 17.120371 11.958327 17.470706 12.433336 17.695312 13.039062 C 14.053072 13.54267 11.674254 14.248047 10.371094 14.248047 C 9.704427 14.248047 9.3921874 14.128333 9.1171875 13.761719 C 8.8421891 13.395105 8.6174812 12.665043 8.4960938 11.451172 A 0.50004998 0.50004998 0 0 0 8.4082031 11.207031 C 9.1995721 10.781212 10.315782 10.528367 11.824219 10.507812 A 0.50004998 0.50004998 0 0 0 12.162109 10.505859 z M 7.5410156 11.859375 C 7.6734986 12.971033 7.8869 13.781489 8.3203125 14.359375 C 8.7953122 14.99271 9.5377605 15.251953 10.371094 15.251953 C 12.014985 15.251953 14.30162 14.514689 17.925781 14.019531 C 17.967595 14.32447 17.996094 14.64324 17.996094 15.001953 C 17.996094 16.537311 17.022441 17.630864 15.783203 18.457031 C 14.615483 19.235538 13.321397 19.671559 12.541016 19.933594 C 12.192369 19.585877 11.819854 19.266341 11.300781 18.988281 C 10.62392 18.625825 9.8478798 18.268839 9.1171875 17.873047 C 8.3864952 17.477255 7.705597 17.036742 7.234375 16.558594 C 6.763153 16.080446 6.5039063 15.59893 6.5039062 15.001953 C 6.5039062 13.656725 6.8145227 12.610894 7.5410156 11.859375 z "
       transform="matrix(0.26458333,0,0,0.26458333,0,290.64997)"
       id="path4677" />
  </g>
</svg>
