<?xml version="1.0" standalone="no"?>
<!DOCTYPE svg PUBLIC "-//W3C//DTD SVG 1.1//EN" "http://www.w3.org/Graphics/SVG/1.1/DTD/svg11.dtd" >
<svg xmlns="http://www.w3.org/2000/svg">
<metadata>
This is a custom SVG webfont generated by Font Squirrel.
Copyright   : Typeface  your company 2012 All Rights Reserved
</metadata>
<defs>
<font id="TourardroitRegular" horiz-adv-x="1370" >
<font-face units-per-em="2048" ascent="1638" descent="-410" />
<missing-glyph horiz-adv-x="1000" />
<glyph unicode=" "  horiz-adv-x="1000" />
<glyph unicode="&#x09;" horiz-adv-x="1000" />
<glyph unicode="&#xa0;" horiz-adv-x="1000" />
<glyph unicode="!" horiz-adv-x="771" d="M100 200v100l400 400v100l-200 200v100l300 -300v-100l-400 -400v-100l200 -200h-100z" />
<glyph unicode="&#x22;" horiz-adv-x="871" d="M100 600l100 -100h200l100 100v100h-100l-100 -100l-100 100v200h-100v-300zM300 800h100l100 100l100 -100v-200h100v300l-100 100h-200l-100 -100v-100z" />
<glyph unicode="#" horiz-adv-x="1346" d="M200 200l200 -200h500l200 200v500l-200 200v-100l100 -100v-500l-100 -100h-500l-100 100v500l100 100h500v100h-500l-200 -200v-500z" />
<glyph unicode="$" horiz-adv-x="771" d="M100 200l200 -200h100l-200 200v100l400 400v100l-300 300v-100l200 -200v-100l-400 -400v-100zM100 700l400 -500v-200h100v200l-400 500v100l100 100h-100l-100 -100v-100z" />
<glyph unicode="%" horiz-adv-x="1610" />
<glyph unicode="&#x26;" horiz-adv-x="1683" />
<glyph unicode="'" horiz-adv-x="346" />
<glyph unicode="(" horiz-adv-x="758" />
<glyph unicode=")" horiz-adv-x="758" />
<glyph unicode="*" horiz-adv-x="1024" />
<glyph unicode="+" horiz-adv-x="1014" />
<glyph unicode="," horiz-adv-x="470" d="M100 100l100 -100h100v300l-100 100l100 100v300h-100l-100 -100v-100l100 -100v-200l-100 -100v-100z" />
<glyph unicode="-" horiz-adv-x="670" />
<glyph unicode="." d="M100 400v100l200 200h100l400 -400h100l200 200h100l-300 -300h-100l-400 400h-100z" />
<glyph unicode="/" horiz-adv-x="569" />
<glyph unicode="0" horiz-adv-x="1000" d="M100 600l400 -500l400 500h-152l-248 -356l-253 356l253 442l251 -442h149l-400 600z" />
<glyph unicode="1" horiz-adv-x="1000" d="M100 400h300v-200h200v200h300v200h-800v-200z" />
<glyph unicode="2" horiz-adv-x="1000" d="M100 200h300v-200h200v200h300v200h-800v-200zM100 600h300v-200h200v200h300v200h-800v-200z" />
<glyph unicode="3" horiz-adv-x="1000" d="M100 300h800v200h-300v200h-200v-200h-300v-200z" />
<glyph unicode="4" horiz-adv-x="1000" d="M100 200h300v-200h200v200h300v200h-800v-200zM100 500h800v200h-300v200h-200v-200h-300v-200z" />
<glyph unicode="5" horiz-adv-x="1000" d="M100 200h300v-200h200v200h300v200h-800v-200zM100 600h300v-200h200v200h300v200h-800v-200zM100 900h800v200h-300v200h-200v-200h-300v-200z" />
<glyph unicode="6" horiz-adv-x="1000" d="M100 300h800v200h-100v200h-200v-200h-200v200h-200v-200h-100v-200z" />
<glyph unicode="7" horiz-adv-x="1000" d="M100 200h300v-200h200v200h300v200h-800v-200zM100 500h800v200h-100v200h-200v-200h-200v200h-200v-200h-100v-200z" />
<glyph unicode="8" horiz-adv-x="1000" d="M100 200h300v-200h200v200h300v200h-800v-200zM100 600h300v-200h200v200h300v200h-800v-200zM100 900h800v200h-100v200h-200v-200h-200v200h-200v-200h-100v-200z" />
<glyph unicode="9" horiz-adv-x="1000" d="M100 400h800v200h-100v200h-100v-200h-100v200h-200v-200h-100v200h-100v-200h-100v-200z" />
<glyph unicode=":" horiz-adv-x="557" />
<glyph unicode=";" horiz-adv-x="557" />
<glyph unicode="&#x37e;" horiz-adv-x="557" />
<glyph unicode="&#x3c;" horiz-adv-x="1014" />
<glyph unicode="=" horiz-adv-x="1014" />
<glyph unicode="&#x3e;" horiz-adv-x="1014" />
<glyph unicode="?" d="M100 400v100l200 200h100l400 -400h100l200 200h100l-300 -300h-100l-400 400h-100zM400 200v100l300 400h100z" />
<glyph unicode="@" horiz-adv-x="2019" />
<glyph unicode="A" horiz-adv-x="0" d="M300 -300l100 200h100l-100 -200h-100zM600 -100h100v-300h-100v300zM800 -100l100 -200h100l-100 200h-100z" />
<glyph unicode="B" horiz-adv-x="1371" d="M0 -400l100 301v1099l100 300h100l-100 -300v-1100l-100 -300h-100zM147 -258l53 -141h100l-100 300zM200 200l200 -200h200l52 100l48 -100h200l200 200v500l-200 200h-200v-100h200l100 -100v-500l-100 -100h-200v400h-100v-400h-200l-100 100v500l100 100h200v-300 h100v300v100l-48 -100l-52 100h-200l-200 -200v-500z" />
<glyph unicode="C" d="M200 200l200 -200h200l52 100l48 -100h200l200 200v500l-200 200h-200v-100h200l100 -100v-500l-100 -100h-200v400h-100v-400h-200l-100 100v500l100 100h200v-300h100v300v100l-48 -100l-52 100h-200l-200 -200v-500zM0 1000l100 -300v-800h100v800l-100 300h-100z" />
<glyph unicode="D" d="M200 200l200 -200h200l52 100l48 -100h200l200 200v500l-200 200h-200v-100h200l100 -100v-500l-100 -100h-200v400h-100v-400h-200l-100 100v500l100 100h200v-300h100v300v100l-48 -100l-52 100h-200l-200 -200v-500zM0 1300l100 -300v-800h100v800l-100 300h-100z" />
<glyph unicode="E" horiz-adv-x="0" d="M400 -100v-100l500 -200v100z" />
<glyph unicode="F" d="M200 200l200 -200h200l52 102l48 -102h200l200 200v500l-200 200v-100l100 -100v-500l-100 -100h-200l-48 400l-52 -400h-200l-100 100v500l100 100v100l-200 -200v-500zM0 -400l100 300v1100l100 300h100l-100 -300v-1100l-100 -300h-100z" />
<glyph unicode="G" d="M200 200l200 -200h200l52 100l48 -100h200l200 200v500l-200 200h-200v-100h200l100 -100v-500l-100 -100h-200v400h-100v-400h-200l-100 100v500l100 100h200v-300h100v300v100l-48 -100l-52 100h-200l-200 -200v-500zM0 0l100 200v500l-100 200h100l100 -200v-500 l-100 -200h-100z" />
<glyph unicode="H" d="M200 200l200 -200h200l52 100l48 -100h200l200 200v500l-200 200h-200v-100h200l100 -100v-500l-100 -100h-200v400h-100v-400h-200l-100 100v500l100 100h200v-300h100v300v100l-48 -100l-52 100h-200l-200 -200v-500zM0 1300l100 -300v-800h100v800l-100 300h-100z M1000 -400l100 300v800h100v-800l-100 -300h-100z" />
<glyph unicode="I" horiz-adv-x="0" d="M600 -100v-100h100v100h-100z" />
<glyph unicode="J" horiz-adv-x="657" />
<glyph unicode="K" d="M200 200l200 -200h200l52 100l48 -100h200l200 200v500l-200 200h-200v-100h200l100 -100v-500l-100 -100h-200v400h-100v-400h-200l-100 100v500l100 100h200v-300h100v300v100l-48 -100l-52 100h-200l-200 -200v-500zM0 -400l100 300v1100l100 300h100l-100 -300v-1100 l-100 -300h-100z" />
<glyph unicode="L" d="M200 200l200 -200h200l52 100l48 -100h200l200 200v500l-200 200h-200v-100h200l100 -100v-500l-100 -100h-200v400h-100v-400h-200l-100 100v500l100 100h200v-300h100v300v100l-48 -100l-52 100h-200l-200 -200v-500zM0 -100l100 300v800h100v-800l-100 -300h-100z" />
<glyph unicode="M" d="M200 200l200 -200h200l52 100l48 -100h200l200 200v500l-200 200h-200v-100h200l100 -100v-500l-100 -100h-200v400h-100v-400h-200l-100 100v500l100 100h200v-300h100v300v100l-48 -100l-52 100h-200l-200 -200v-500zM0 1300h100l100 -300v-1100l100 -300h-100 l-100 300v1100zM1000 -400l100 300v800h100v-800l-100 -300h-100z" />
<glyph unicode="N" d="M200 200l200 -200h200l52 100l48 -100h200l200 200v500l-200 200h-200v-100h200l100 -100v-500l-100 -100h-200v400h-100v-400h-200l-100 100v500l100 100h200v-300h100v300v100l-48 -100l-52 100h-200l-200 -200v-500zM0 -400l100 300v1100l100 300h100l-100 -300v-1100 l-100 -300h-100zM1000 1300l100 -300v-800h100v800l-100 300h-100z" />
<glyph unicode="O" horiz-adv-x="0" d="M300 -249l100 -151h501v99h-500l-1 101l100 -1v101h-94z" />
<glyph unicode="P" d="M0 -400l100 300v300h100v-300l-100 -300h-100zM0 1300l100 -300v-800h100v800l-100 300h-100zM200 200l200 -200h200l52 100l48 -100h200l200 200v500l-200 200h-200v-100h200l100 -100v-500l-100 -100h-200v400h-100v-400h-200l-100 100v500l100 100h200v-300h100v300 v100l-48 -100l-52 100h-200l-200 -200v-500z" />
<glyph unicode="Q" d="M200 200l200 -200h200l52 100l48 -100h200l200 200v500l-200 200h-200v-100h200l100 -100v-500l-100 -100h-200v400h-100v-400h-200l-100 100v500l100 100h200v-300h100v300v100l-48 -100l-52 100h-200l-200 -200v-500zM0 -400l100 300v800h100v-800l-100 -300h-100z M1000 1300l100 -300v-800h100v800l-100 300h-100z" />
<glyph unicode="R" d="M200 200l200 -200h200l52 100l48 -100h200l200 200v500l-200 200h-200v-100h200l100 -100v-500l-100 -100h-200v400h-100v-400h-200l-100 100v500l100 100h200v-300h100v300v100l-48 -100l-52 100h-200l-200 -200v-500zM0 1300h100l100 -300v-1100l100 -300h-100 l-100 300v1100z" />
<glyph unicode="S" d="M200 200v500l200 200h200l52 -100l48 100h200l200 -200v-500l-200 -200v100l100 100v500l-100 100h-200l-48 -400l-52 400h-200l-100 -100v-500l100 -100v-100zM0 -400l100 300v800h100v-800l-100 -300h-100zM1000 1300l100 -300v-800h100v800l-100 300h-100z" />
<glyph unicode="T" d="M200 200l200 -200h200l52 100l48 -100h200l200 200v500l-200 200h-200v-100h200l100 -100v-500l-100 -100h-200v400h-100v-400h-200l-100 100v500l100 100h200v-300h100v300v100l-48 -100l-52 100h-200l-200 -200v-500zM0 -400l100 300v800h100v-800l-100 -300h-100z" />
<glyph unicode="U" horiz-adv-x="0" d="M300 -100v-100l348 -200l352 200v100l-352 -200z" />
<glyph unicode="V" d="M0 -400l100 301v1099l100 300h100l-100 -300v-1100l-100 -300h-100zM147 -258l53 -141h100l-100 300zM200 200v500l200 200h200l52 -100l48 100h200l200 -200v-500l-200 -200v100l100 100v500l-100 100h-200l-48 -400l-52 400h-200l-100 -100v-500l100 -100v-100z" />
<glyph unicode="W" horiz-adv-x="2030" />
<glyph unicode="X" horiz-adv-x="1350" d="M200 200l200 -200h200l52 100l48 -100h200l200 200v500l-200 200h-200v-100h200l100 -100v-500l-100 -100h-200v400h-100v-400h-200l-100 100v500l100 100h200v-300h100v300v100l-48 -100l-52 100h-200l-200 -200v-500zM0 -400l100 300v800h100v-800l-100 -300h-100z M1000 1300l100 -300v-800h100v800l-100 300h-100z" />
<glyph unicode="Y" horiz-adv-x="1000" d="M100 200h300v-200h200v200h300v200h-800v-200zM100 500h800v200h-100v200h-100v-200h-100v200h-200v-200h-100v200h-100v-200h-100v-200z" />
<glyph unicode="Z" horiz-adv-x="1000" d="M100 200h300v-200h200v200h300v200h-800v-200zM100 600h300v-200h200v200h300v200h-800v-200zM100 900h800v200h-100v200h-100v-200h-100v200h-200v-200h-100v200h-100v-200h-100v-200z" />
<glyph unicode="[" horiz-adv-x="758" />
<glyph unicode="\" horiz-adv-x="569" />
<glyph unicode="]" horiz-adv-x="758" />
<glyph unicode="^" horiz-adv-x="1014" />
<glyph unicode="_" horiz-adv-x="600" d="M100 100l200 600l200 -600h-400z" />
<glyph unicode="`" horiz-adv-x="1024" />
<glyph unicode="a" horiz-adv-x="0" d="M-1046 1300l100 -200h100l-100 200h-100zM-746 1100h100v300l-99 1zM-546 1100l100 200h100l-100 -200h-100z" />
<glyph unicode="b" horiz-adv-x="1342" d="M200 200l200 -200h200l52 102l48 -102h200l200 200v500l-200 200v-100l100 -100v-500l-100 -100h-200l-48 400l-52 -400h-200l-100 100v500l100 100v100l-200 -200v-500zM0 -400l100 300v800h100v-800l-100 -300h-100z" />
<glyph unicode="c" horiz-adv-x="1342" d="M200 200l200 -200h200l52 102l48 -102h200l200 200v500l-200 200v-100l100 -100v-500l-100 -100h-200l-48 400l-52 -400h-200l-100 100v500l100 100v100l-200 -200v-500zM0 1300l100 -300v-800h100v800l-100 300h-100z" />
<glyph unicode="d" horiz-adv-x="1342" d="M200 200l200 -200h200l52 102l48 -102h200l200 200v500l-200 200v-100l100 -100v-500l-100 -100h-200l-48 400l-52 -400h-200l-100 100v500l100 100v100l-200 -200v-500zM0 1000l100 -300v-800h100v800l-100 300h-100z" />
<glyph unicode="e" horiz-adv-x="0" d="M-942 1100v100l500 200v-100z" />
<glyph unicode="f" horiz-adv-x="1342" d="M200 200l200 -200h200l52 102l48 -102h200l200 200v500l-200 200v-100l100 -100v-500l-100 -100h-200l-48 400l-52 -400h-200l-100 100v500l100 100v100l-200 -200v-500zM0 -400l100 300v1100l100 300h100l-100 -300v-1100l-100 -300h-100z" />
<glyph unicode="g" d="M200 200l200 -200h200l52 102l48 -102h200l200 200v500l-200 200v-100l100 -100v-500l-100 -100h-200l-48 400l-52 -400h-200l-100 100v500l100 100v100l-200 -200v-500zM0 0l100 200v500l-100 200h100l100 -200v-500l-100 -200h-100z" />
<glyph unicode="h" d="M200 200v500l200 200h200l52 -100l48 100h200l200 -200v-500l-200 -200v100l100 100v500l-100 100h-200l-48 -400l-52 400h-200l-100 -100v-500l100 -100v-100zM0 -100l100 300v800h100v-800l-100 -300h-100z" />
<glyph unicode="i" horiz-adv-x="0" d="M-770 1100h100v100h-100v-100z" />
<glyph unicode="j" horiz-adv-x="510" d="M200 200l200 -200h200l52 102l48 -102h200l200 200v500l-200 200v-100l100 -100v-500l-100 -100h-200l-48 400l-52 -400h-200l-100 100v500l100 100v100l-200 -200v-500zM0 1300h100l100 -300v-1100l100 -300h-100l-100 300v1100z" />
<glyph unicode="k" d="M200 200v500l200 200h200l52 -100l48 100h200l200 -200v-500l-200 -200v100l100 100v500l-100 100h-200l-48 -400l-52 400h-200l-100 -100v-500l100 -100v-100zM1000 1300l100 -300v-800h100v800l-100 300h-100zM0 -400l100 300v800h100v-800l-100 -300h-100z" />
<glyph unicode="l" d="M200 200v500l200 200h200l52 -100l48 100h200l200 -200v-500l-200 -200v100l100 100v500l-100 100h-200l-48 -400l-52 400h-200l-100 -100v-500l100 -100v-100zM0 0l100 200v500l-100 200h100l100 -200v-500l-100 -200h-100z" />
<glyph unicode="m" d="M200 200v500l200 200h200l52 -100l48 100h200l200 -200v-500l-200 -200v100l100 100v500l-100 100h-200l-48 -400l-52 400h-200l-100 -100v-500l100 -100v-100zM0 -400l100 300v800h100v-800l-100 -300h-100z" />
<glyph unicode="n" d="M200 200v500l200 200h200l52 -100l48 100h200l200 -200v-500l-200 -200v100l100 100v500l-100 100h-200l-48 -400l-52 400h-200l-100 -100v-500l100 -100v-100zM0 1300l100 -300v-800h100v800l-100 300h-100z" />
<glyph unicode="o" horiz-adv-x="0" d="M-1070 1248l106 -148h94v100l-100 -1l1 101h500v100h-501z" />
<glyph unicode="p" horiz-adv-x="1371" d="M200 200l200 -200h200l52 102l48 -102h200l200 200v500l-200 200v-100l100 -100v-500l-100 -100h-200l-48 400l-52 -400h-200l-100 100v500l100 100v100l-200 -200v-500zM0 -100l100 300v800h100v-800l-100 -300h-100z" />
<glyph unicode="q" d="M200 200v500l200 200h200l52 -100l48 100h200l200 -200v-500l-200 -200v100l100 100v500l-100 100h-200l-48 -400l-52 400h-200l-100 -100v-500l100 -100v-100zM0 1300l100 -300v-800h100v800l-100 300h-100zM1000 -400l100 300v800h100v-800l-100 -300h-100z" />
<glyph unicode="r" d="M200 200l200 -200h200l52 102l48 -102h200l200 200v500l-200 200v-100l100 -100v-500l-100 -100h-200l-48 400l-52 -400h-200l-100 100v500l100 100v100l-200 -200v-500zM1000 1300l100 -300v-800h100v800l-100 300h-100zM0 -400l100 300v800h100v-800l-100 -300h-100z " />
<glyph unicode="s" d="M200 200l200 -200h200l52 102l48 -102h200l200 200v500l-200 200v-100l100 -100v-500l-100 -100h-200l-48 400l-52 -400h-200l-100 100v500l100 100v100l-200 -200v-500zM0 1300l100 -300v-800h100v800l-100 300h-100zM999 -400l100 300v800h100v-800l-100 -300h-100z " />
<glyph unicode="t" d="M0 -400l100 300v300h100v-300l-100 -300h-100zM0 1300l100 -300v-800h100v800l-100 300h-100zM200 200l200 -200h200l52 102l48 -102h200l200 200v500l-200 200v-100l100 -100v-500l-100 -100h-200l-48 400l-52 -400h-200l-100 100v500l100 100v100l-200 -200v-500z" />
<glyph unicode="u" horiz-adv-x="0" d="M-1039 1100l348 200l352 -200v100l-352 200l-348 -200v-100z" />
<glyph unicode="v" d="M0 1300h100l100 -300v-1100l100 -300h-100l-100 300v1099zM147 1159l53 -159l100 300h-100zM200 200l200 -200h200l52 102l48 -102h200l200 200v500l-200 200v-100l100 -100v-500l-100 -100h-200l-48 400l-52 -400h-200l-100 100v500l100 100v100l-200 -200v-500z" />
<glyph unicode="w" horiz-adv-x="1415" d="M200 200v500l200 200h200l52 -100l48 100h200l200 -200v-500l-200 -200v100l100 100v500l-100 100h-200l-48 -400l-52 400h-200l-100 -100v-500l100 -100v-100zM0 1000l100 -300v-800h100v800l-100 300h-100z" />
<glyph unicode="x" d="M200 200v500l200 200h200l52 -100l48 100h200l200 -200v-500l-200 -200v100l100 100v500l-100 100h-200l-48 -400l-52 400h-200l-100 -100v-500l100 -100v-100zM0 1300h100l100 -300v-1100l100 -300h-100l-100 300v1100z" />
<glyph unicode="y" d="M0 -400l100 300v300h100v-300l-100 -300h-100zM0 1300l100 -300v-800h100v800l-100 300h-100zM200 200l200 -200v100l-100 100v500l100 100h200l52 -400l48 400h200l100 -100v-500l-100 -100v-100l200 200v500l-200 200h-200l-48 -102l-52 102h-200l-200 -200v-500z" />
<glyph unicode="z" d="M0 -400l100 300v1100l100 300h100l-100 -301v-1099l-100 -300h-100zM0 1300l100 -300l53 159l-53 141h-100zM200 200l200 -200h200l52 102l48 -102h200l200 200v500l-200 200v-100l100 -100v-500l-100 -100h-200l-48 400l-52 -400h-200l-100 100v500l100 100v100 l-200 -200v-500z" />
<glyph unicode="{" horiz-adv-x="1014" />
<glyph unicode="|" horiz-adv-x="700" d="M100 0h400l100 100h-200v700h200l-100 100h-400l100 -100h100v-700h-100z" />
<glyph unicode="}" horiz-adv-x="1014" />
<glyph unicode="~" horiz-adv-x="1014" />
<glyph unicode="&#xa1;" horiz-adv-x="672" />
<glyph unicode="&#xa2;" horiz-adv-x="1139" />
<glyph unicode="&#xa3;" horiz-adv-x="1014" />
<glyph unicode="&#xa4;" horiz-adv-x="1014" />
<glyph unicode="&#xa5;" horiz-adv-x="1262" />
<glyph unicode="&#xa6;" horiz-adv-x="1014" />
<glyph unicode="&#xa7;" d="M100 300v100l200 200h100l400 -400h100l200 200h100l-300 -300h-100l-400 400h-100zM100 600v100l200 200h100l400 -400h100l200 200h100l-300 -300h-100l-400 400h-100z" />
<glyph unicode="&#xa8;" horiz-adv-x="1024" />
<glyph unicode="&#xa9;" horiz-adv-x="1674" />
<glyph unicode="&#xaa;" horiz-adv-x="648" />
<glyph unicode="&#xab;" horiz-adv-x="944" />
<glyph unicode="&#xac;" horiz-adv-x="1014" />
<glyph unicode="&#xad;" horiz-adv-x="670" />
<glyph unicode="&#xae;" horiz-adv-x="1674" />
<glyph unicode="&#xaf;" horiz-adv-x="670" />
<glyph unicode="&#xb0;" horiz-adv-x="674" />
<glyph unicode="&#xb1;" horiz-adv-x="1014" />
<glyph unicode="&#xb2;" horiz-adv-x="1014" />
<glyph unicode="&#xb3;" horiz-adv-x="1014" />
<glyph unicode="&#xb4;" horiz-adv-x="1024" />
<glyph unicode="&#xb5;" horiz-adv-x="1180" />
<glyph unicode="&#xb6;" horiz-adv-x="1000" d="M400 600l100 -100h156v400h-156l-100 -100v-200zM656 900h44v-800h-42zM700 859h51v41h-51v-41zM751 100h49v800h-49v-800zM800 859h34v41h-34v-41z" />
<glyph unicode="&#xb7;" horiz-adv-x="1000" d="M500 500v100h100v-100h-100z" />
<glyph unicode="&#x2219;" horiz-adv-x="1000" d="M500 500v100h100v-100h-100z" />
<glyph unicode="&#xb8;" horiz-adv-x="1024" />
<glyph unicode="&#xb9;" horiz-adv-x="1014" />
<glyph unicode="&#xba;" horiz-adv-x="718" />
<glyph unicode="&#xbb;" horiz-adv-x="944" />
<glyph unicode="&#xbc;" horiz-adv-x="1708" />
<glyph unicode="&#xbd;" horiz-adv-x="1964" />
<glyph unicode="&#xbe;" horiz-adv-x="1708" />
<glyph unicode="&#xbf;" horiz-adv-x="748" />
<glyph unicode="&#xc0;" horiz-adv-x="0" d="M400 -100h100v-100h-100v100zM600 -300v-100h100v100h-100zM800 -100v-100h100v100h-100z" />
<glyph unicode="&#xc1;" horiz-adv-x="1540" />
<glyph unicode="&#xc2;" horiz-adv-x="1540" />
<glyph unicode="&#xc3;" horiz-adv-x="1540" />
<glyph unicode="&#xc4;" horiz-adv-x="1540" />
<glyph unicode="&#xc5;" horiz-adv-x="1540" />
<glyph unicode="&#xc6;" horiz-adv-x="2118" />
<glyph unicode="&#xc7;" horiz-adv-x="1399" />
<glyph unicode="&#xc8;" horiz-adv-x="0" d="M300 -200v-100l100 -100l500 200v100l-500 -200v100l100 100h-100z" />
<glyph unicode="&#xc9;" horiz-adv-x="0" d="M300 -200l100 100h100l-100 -100v-100l400 200v-100l-400 -200l-100 100v100zM500 -100l400 -200v100l-100 100h100l100 -100v-100l-100 -100l-400 200v100z" />
<glyph unicode="&#xca;" horiz-adv-x="1151" />
<glyph unicode="&#xcb;" horiz-adv-x="0" d="M500 -100v-100h100v100h-100zM700 -100v-100h100v100h-100z" />
<glyph unicode="&#xcc;" horiz-adv-x="657" />
<glyph unicode="&#xcd;" horiz-adv-x="657" />
<glyph unicode="&#xce;" horiz-adv-x="0" d="M300 -252l106 -148h94v100l-100 -1l1 101h400l-1 100h-400z" />
<glyph unicode="&#xcf;" horiz-adv-x="657" />
<glyph unicode="&#xd0;" horiz-adv-x="1518" />
<glyph unicode="&#xd1;" horiz-adv-x="1554" />
<glyph unicode="&#xd2;" horiz-adv-x="0" d="M300 -100v-100h500l1 -101l-100 1v-100h94l106 148l-100 152h-501z" />
<glyph unicode="&#xd3;" horiz-adv-x="1614" />
<glyph unicode="&#xd4;" horiz-adv-x="0" d="M500 -200l100 100h100l100 -100h-100h-100v-100h100v100h100v-100l-100 -100h-100l-100 100v100z" />
<glyph unicode="&#xd5;" horiz-adv-x="1614" />
<glyph unicode="&#xd6;" horiz-adv-x="1614" />
<glyph unicode="&#xd7;" horiz-adv-x="1014" />
<glyph unicode="&#xd8;" horiz-adv-x="1614" />
<glyph unicode="&#xd9;" horiz-adv-x="0" d="M300 -100l600 -200v100l-100 100h100l100 -100v-100l-100 -100l-600 200v100z" />
<glyph unicode="&#xda;" horiz-adv-x="1501" />
<glyph unicode="&#xdb;" horiz-adv-x="1501" />
<glyph unicode="&#xdc;" horiz-adv-x="0" d="M300 -300v-100l348 200l352 -200v100l-352 200z" />
<glyph unicode="&#xdd;" horiz-adv-x="1233" />
<glyph unicode="&#xde;" horiz-adv-x="1120" />
<glyph unicode="&#xdf;" horiz-adv-x="1251" />
<glyph unicode="&#xe0;" horiz-adv-x="0" d="M-942 1100h100v100h-100v-100zM-742 1300h100v100h-100v-100zM-542 1100h100v100h-100v-100z" />
<glyph unicode="&#xe1;" horiz-adv-x="922" />
<glyph unicode="&#xe2;" horiz-adv-x="922" />
<glyph unicode="&#xe3;" horiz-adv-x="922" />
<glyph unicode="&#xe4;" horiz-adv-x="922" />
<glyph unicode="&#xe5;" horiz-adv-x="922" />
<glyph unicode="&#xe6;" horiz-adv-x="1454" />
<glyph unicode="&#xe7;" horiz-adv-x="905" />
<glyph unicode="&#xe8;" horiz-adv-x="0" d="M-1042 1200v100l100 100l600 -200v-100l-600 200v-100l100 -100h-100z" />
<glyph unicode="&#xe9;" horiz-adv-x="0" d="M-1070 1200v100l100 100l400 -200v-100l-400 200v-100l100 -100h-100zM-870 1100v100l400 200l100 -100v-100l-100 -100h-100l100 100v100z" />
<glyph unicode="&#xea;" horiz-adv-x="909" />
<glyph unicode="&#xeb;" horiz-adv-x="0" d="M-842 1100v100h100v-100h-100zM-642 1100h100v100h-100v-100z" />
<glyph unicode="&#xec;" horiz-adv-x="514" />
<glyph unicode="&#xed;" horiz-adv-x="514" />
<glyph unicode="&#xee;" horiz-adv-x="0" d="M-970 1300h400l1 -101l-100 1v-100h94l106 148l-100 152h-401v-100z" />
<glyph unicode="&#xef;" horiz-adv-x="514" />
<glyph unicode="&#xf0;" horiz-adv-x="1139" />
<glyph unicode="&#xf1;" horiz-adv-x="1108" />
<glyph unicode="&#xf2;" horiz-adv-x="0" d="M-970 1100h501l100 151l-106 149h-94v-101l100 1l-1 -101h-500v-99z" />
<glyph unicode="&#xf3;" horiz-adv-x="1010" />
<glyph unicode="&#xf4;" horiz-adv-x="0" d="M-870 1200v100l100 100h100l100 -100h-100h-100v-100h100v100h100v-100l-100 -100h-100z" />
<glyph unicode="&#xf5;" horiz-adv-x="1010" />
<glyph unicode="&#xf6;" horiz-adv-x="1010" />
<glyph unicode="&#xf7;" horiz-adv-x="1014" />
<glyph unicode="&#xf8;" horiz-adv-x="1010" />
<glyph unicode="&#xf9;" horiz-adv-x="0" d="M-1070 1100v100l600 200l100 -100v-100l-100 -100h-100l100 100v100z" />
<glyph unicode="&#xfa;" horiz-adv-x="1059" />
<glyph unicode="&#xfb;" horiz-adv-x="1059" />
<glyph unicode="&#xfc;" horiz-adv-x="0" d="M-1070 1300l348 -200l352 200v100l-352 -200l-348 200v-100z" />
<glyph unicode="&#xfd;" horiz-adv-x="868" />
<glyph unicode="&#xfe;" horiz-adv-x="1010" />
<glyph unicode="&#xff;" horiz-adv-x="868" />
<glyph unicode="&#x152;" horiz-adv-x="0" d="M400 -100v-100l500 -200v100zM300 -249l100 -151h501v99h-500l-1 101l100 -1v101h-94z" />
<glyph unicode="&#x153;" horiz-adv-x="0" d="M-942 1100v100l500 200v-100zM-1070 1248l106 -148h94v100l-100 -1l1 101h500v100h-501z" />
<glyph unicode="&#x178;" horiz-adv-x="1000" d="M100 200h300v-200h200v200h300v200h-800v-200zM100 500h800v200h-100v200h-100v-200h-100v200h-200v-200h-100v200h-100v-200h-100v-200z" />
<glyph unicode="&#x2c6;" horiz-adv-x="1024" />
<glyph unicode="&#x2dc;" horiz-adv-x="1024" />
<glyph unicode="&#x2000;" horiz-adv-x="717" />
<glyph unicode="&#x2001;" horiz-adv-x="1434" />
<glyph unicode="&#x2002;" horiz-adv-x="717" />
<glyph unicode="&#x2003;" horiz-adv-x="1434" />
<glyph unicode="&#x2004;" horiz-adv-x="478" />
<glyph unicode="&#x2005;" horiz-adv-x="358" />
<glyph unicode="&#x2006;" horiz-adv-x="239" />
<glyph unicode="&#x2007;" horiz-adv-x="239" />
<glyph unicode="&#x2008;" horiz-adv-x="179" />
<glyph unicode="&#x2009;" horiz-adv-x="286" />
<glyph unicode="&#x200a;" horiz-adv-x="79" />
<glyph unicode="&#x2010;" horiz-adv-x="670" />
<glyph unicode="&#x2011;" horiz-adv-x="670" />
<glyph unicode="&#x2012;" horiz-adv-x="670" />
<glyph unicode="&#x2013;" horiz-adv-x="1108" />
<glyph unicode="&#x2014;" horiz-adv-x="2048" />
<glyph unicode="&#x2018;" horiz-adv-x="557" />
<glyph unicode="&#x2019;" horiz-adv-x="557" />
<glyph unicode="&#x201a;" horiz-adv-x="557" />
<glyph unicode="&#x201c;" horiz-adv-x="910" />
<glyph unicode="&#x201d;" horiz-adv-x="910" />
<glyph unicode="&#x201e;" horiz-adv-x="910" />
<glyph unicode="&#x2022;" horiz-adv-x="1024" />
<glyph unicode="&#x2026;" horiz-adv-x="2048" />
<glyph unicode="&#x202f;" horiz-adv-x="286" />
<glyph unicode="&#x2039;" horiz-adv-x="631" />
<glyph unicode="&#x203a;" horiz-adv-x="631" />
<glyph unicode="&#x205f;" horiz-adv-x="358" />
<glyph unicode="&#x20ac;" horiz-adv-x="1014" />
<glyph unicode="&#x2122;" horiz-adv-x="1497" />
<glyph unicode="&#xe000;" horiz-adv-x="1300" d="M0 1300h1300v-1300h-1300v1300z" />
<glyph unicode="&#xf001;" horiz-adv-x="1073" />
<glyph unicode="&#xfb01;" horiz-adv-x="1073" />
<glyph unicode="&#xf002;" horiz-adv-x="1081" />
<glyph unicode="&#xfb02;" horiz-adv-x="1081" />
<glyph unicode="&#xfb03;" horiz-adv-x="2684" d="M1914 1100h100v100h-100v-100zM1542 200l200 -200h200l52 102l48 -102h200l200 200v500l-200 200v-100l100 -100v-500l-100 -100h-200l-48 400l-52 -400h-200l-100 100v500l100 100v100l-200 -200v-500zM1342 -400l100 300v1100l100 300h100l-100 -300v-1100l-100 -300 h-100zM200 200l200 -200h200l52 102l48 -102h200l200 200v500l-200 200v-100l100 -100v-500l-100 -100h-200l-48 400l-52 -400h-200l-100 100v500l100 100v100l-200 -200v-500zM0 -400l100 300v1100l100 300h100l-100 -300v-1100l-100 -300h-100z" />
<glyph unicode="&#xfb04;" horiz-adv-x="4054" d="M2884 200v500l200 200h200l52 -100l48 100h200l200 -200v-500l-200 -200v100l100 100v500l-100 100h-200l-48 -400l-52 400h-200l-100 -100v-500l100 -100v-100zM2684 0l100 200v500l-100 200h100l100 -200v-500l-100 -200h-100zM1542 200l200 -200h200l52 102l48 -102 h200l200 200v500l-200 200v-100l100 -100v-500l-100 -100h-200l-48 400l-52 -400h-200l-100 100v500l100 100v100l-200 -200v-500zM1342 -400l100 300v1100l100 300h100l-100 -300v-1100l-100 -300h-100zM200 200l200 -200h200l52 102l48 -102h200l200 200v500l-200 200 v-100l100 -100v-500l-100 -100h-200l-48 400l-52 -400h-200l-100 100v500l100 100v100l-200 -200v-500zM0 -400l100 300v1100l100 300h100l-100 -300v-1100l-100 -300h-100z" />
<glyph horiz-adv-x="1342" d="M200 200l200 -200h200l52 102l48 -102h200l200 200v500l-200 200v-100l100 -100v-500l-100 -100h-200l-48 400l-52 -400h-200l-100 100v500l100 100v100l-200 -200v-500z" />
<glyph horiz-adv-x="1342" d="M200 200v500l200 200h200l52 -100l48 100h200l200 -200v-500l-200 -200v100l100 100v500l-100 100h-200l-48 -400l-52 400h-200l-100 -100v-500l100 -100v-100z" />
<glyph horiz-adv-x="1342" d="M200 200l200 -200h200l52 100l48 -100h200l200 200v500l-200 200h-200v-100h200l100 -100v-500l-100 -100h-200v400h-100v-400h-200l-100 100v500l100 100h200v-300h100v300v100l-48 -100l-52 100h-200l-200 -200v-500z" />
<glyph horiz-adv-x="1342" d="M0 -400l100 300v800h100v-800l-100 -300h-100z" />
<glyph horiz-adv-x="1342" d="M0 1300l100 -300v-800h100v800l-100 300h-100z" />
<glyph horiz-adv-x="1342" d="M0 -400l100 300v1100l100 300h100l-100 -300v-1100l-100 -300h-100z" />
<glyph horiz-adv-x="1342" d="M0 1300h100l100 -300v-1100l100 -300h-100l-100 300v1100z" />
<glyph horiz-adv-x="1342" d="M0 0l100 200v500l-100 200h100l100 -200v-500l-100 -200h-100z" />
</font>
</defs>
</svg>
