<?xml version="1.0" encoding="UTF-8" standalone="no"?>
<!-- Created with Inkscape (http://www.inkscape.org/) -->

<svg
        xmlns:dc="http://purl.org/dc/elements/1.1/"
        xmlns:cc="http://creativecommons.org/ns#"
        xmlns:rdf="http://www.w3.org/1999/02/22-rdf-syntax-ns#"
        xmlns="http://www.w3.org/2000/svg"
        xmlns:sodipodi="http://sodipodi.sourceforge.net/DTD/sodipodi-0.dtd"
        xmlns:inkscape="http://www.inkscape.org/namespaces/inkscape"
        width="210mm"
        height="297mm"
        viewBox="0 0 210 297"
        version="1.1"
        id="svg1040"
        inkscape:version="0.92.4 (5da689c313, 2019-01-14)"
        sodipodi:docname="Logo_LG.svg">
    <defs
            id="defs1034"/>
    <sodipodi:namedview
            id="base"
            pagecolor="#ffffff"
            bordercolor="#666666"
            borderopacity="1.0"
            inkscape:pageopacity="0.0"
            inkscape:pageshadow="2"
            inkscape:zoom="2.2493852"
            inkscape:cx="183.43399"
            inkscape:cy="149.41943"
            inkscape:document-units="mm"
            inkscape:current-layer="layer1"
            showgrid="false"
            inkscape:pagecheckerboard="true"
            inkscape:window-width="1920"
            inkscape:window-height="1017"
            inkscape:window-x="1592"
            inkscape:window-y="126"
            inkscape:window-maximized="1"/>
    <metadata
            id="metadata1037">
        <rdf:RDF>
            <cc:Work
                    rdf:about="">
                <dc:format>image/svg+xml</dc:format>
                <dc:type
                        rdf:resource="http://purl.org/dc/dcmitype/StillImage"/>
                <dc:title></dc:title>
            </cc:Work>
        </rdf:RDF>
    </metadata>
    <g
            inkscape:label="Calque 1"
            inkscape:groupmode="layer"
            id="layer1">
        <path
                style="opacity:1;fill:#fff6f6;fill-opacity:1;fill-rule:nonzero;stroke:none;stroke-width:0.19771449;stroke-linejoin:round;stroke-miterlimit:4;stroke-dasharray:none;stroke-dashoffset:0;stroke-opacity:0.05263157"
                d="M 33.866666,217.625 A 33.866836,28.442644 0 0 0 0,246.06771 33.866836,28.442644 0 0 0 33.866666,274.51042 33.866836,28.442644 0 0 0 67.733334,246.06771 33.866836,28.442644 0 0 0 33.866666,217.625 Z m -14.237191,9.40037 a 13.827291,13.812779 0 0 1 13.827294,13.81278 13.827291,13.812779 0 0 1 13.827294,-13.81278 13.827291,13.812779 0 0 1 13.827294,13.81278 13.827291,13.812779 0 0 1 -13.827294,13.81277 13.827291,13.812779 0 0 1 -5.79438,-1.28833 l -8.032914,13.37452 -8.033513,-13.37514 A 13.827291,13.812779 0 0 1 19.629475,254.65092 13.827291,13.812779 0 0 1 5.8021827,240.83815 13.827291,13.812779 0 0 1 19.629475,227.02537 Z m 2.074095,9.32362 a 8.2963762,8.2876692 0 0 0 -8.296376,8.28768 8.2963762,8.2876692 0 0 0 8.296376,8.28765 8.2963762,8.2876692 0 0 0 4.207003,-1.15585 5.1852351,5.1797933 0 0 1 -2.132909,0.46521 5.1852351,5.1797933 0 0 1 -5.185235,-5.17978 5.1852351,5.1797933 0 0 1 5.185235,-5.17979 5.1852351,5.1797933 0 0 1 5.185235,5.17979 5.1852351,5.1797933 0 0 1 -0.858804,2.84889 8.2963762,8.2876692 0 0 0 1.895851,-5.26612 8.2963762,8.2876692 0 0 0 -8.296376,-8.28768 z m 27.654588,0 a 8.2963762,8.2876692 0 0 0 -8.296377,8.28768 8.2963762,8.2876692 0 0 0 8.296377,8.28765 8.2963762,8.2876692 0 0 0 4.207002,-1.15585 5.1852351,5.1797933 0 0 1 -2.132909,0.46521 5.1852351,5.1797933 0 0 1 -5.185235,-5.17978 5.1852351,5.1797933 0 0 1 5.185235,-5.17979 5.1852351,5.1797933 0 0 1 5.185236,5.17979 5.1852351,5.1797933 0 0 1 -0.858805,2.84889 8.2963762,8.2876692 0 0 0 1.895851,-5.26612 8.2963762,8.2876692 0 0 0 -8.296375,-8.28768 z"
                id="path1585"
                inkscape:connector-curvature="0"/>
        <path
                style="opacity:1;fill:#000000;fill-opacity:1;fill-rule:nonzero;stroke:none;stroke-width:0.2;stroke-linejoin:round;stroke-miterlimit:4;stroke-dasharray:none;stroke-dashoffset:0;stroke-opacity:0.05263157"
                id="path1587"
                sodipodi:type="arc"
                sodipodi:cx="37.345852"
                sodipodi:cy="254.59628"
                sodipodi:rx="6.5281725"
                sodipodi:ry="5.2343001"
                sodipodi:start="0"
                sodipodi:end="0.014149995"
                sodipodi:open="true"
                d="m 43.874024,254.59628 a 6.5281725,5.2343001 0 0 1 -6.53e-4,0.0741"/>
        <text
                xml:space="preserve"
                style="font-style:normal;font-weight:normal;font-size:10.15028572px;line-height:125%;font-family:Sans;letter-spacing:0px;word-spacing:0px;fill:#000000;fill-opacity:1;stroke:none;stroke-width:0.25375715px;stroke-linecap:butt;stroke-linejoin:miter;stroke-opacity:1"
                x="33.72591"
                y="282.61316"
                id="text1657"><tspan
         sodipodi:role="line"
         id="tspan1655"
         x="33.72591"
         y="282.61316"
         style="font-style:normal;font-variant:normal;font-weight:bold;font-stretch:normal;font-size:11.28888893px;font-family:Arial;-inkscape-font-specification:'Arial Bold';text-align:center;text-anchor:middle;fill:#ffffff;fill-opacity:1;stroke-width:0.25375715px"
         dy="1.4300008">Lachouette</tspan>
            <tspan
                    sodipodi:role="line"
                    x="33.72591"
                    y="295.4975"
                    style="font-style:normal;font-variant:normal;font-weight:bold;font-stretch:normal;font-size:11.28888893px;font-family:Arial;-inkscape-font-specification:'Arial Bold';text-align:center;text-anchor:middle;fill:#ffffff;fill-opacity:1;stroke-width:0.25375715px"
                    id="tspan2211"> Games</tspan></text>
    </g>
</svg>
